SplineFontDB: 3.0
FontName: VeranaSans-Bold
FullName: Verana Sans Bold
FamilyName: Verana Sans
Weight: Bold
Copyright: Copyright (c) Arkandis Digital fondry, from initial release of Bitstream VeraSans Font modified  and under Public Domain.
Version: 1.002
ItalicAngle: 0
UnderlinePosition: -100
UnderlineWidth: 50
Ascent: 760
Descent: 240
sfntRevision: 0x00010041
LayerCount: 2
Layer: 0 0 "Arri+AOgA-re"  1
Layer: 1 0 "Avant"  0
NeedsXUIDChange: 1
XUID: [1021 905 1196402830 15047364]
BaseHoriz: 2 'ideo' 'romn'
BaseScript: 'latn' 1  -135 0
FSType: 8
OS2Version: 2
OS2_WeightWidthSlopeOnly: 0
OS2_UseTypoMetrics: 1
CreationTime: 1214138676
ModificationTime: 1312111876
PfmFamily: 17
TTFWeight: 700
TTFWidth: 5
LineGap: 200
VLineGap: 0
Panose: 2 11 8 4 2 2 2 2 0 3
OS2TypoAscent: 0
OS2TypoAOffset: 1
OS2TypoDescent: 0
OS2TypoDOffset: 1
OS2TypoLinegap: 200
OS2WinAscent: 0
OS2WinAOffset: 1
OS2WinDescent: 0
OS2WinDOffset: 1
HheadAscent: -168
HheadAOffset: 1
HheadDescent: -4
HheadDOffset: 1
OS2SubXSize: 650
OS2SubYSize: 600
OS2SubXOff: 0
OS2SubYOff: 75
OS2SupXSize: 650
OS2SupYSize: 600
OS2SupXOff: 0
OS2SupYOff: 350
OS2StrikeYSize: 125
OS2StrikeYPos: 328
OS2Vendor: 'ADFP'
OS2CodePages: 00000003.00000000
OS2UnicodeRanges: 800000af.5000204a.00000000.00000000
Lookup: 1 0 0 "'aalt' Activer toutes les variantes dans Latin lookup 0"  {"sous-table 'aalt' Activer toutes les variantes dans Latin lookup 0"  } ['aalt' ('latn' <'dflt' > ) ]
Lookup: 3 0 0 "'aalt' Activer toutes les variantes dans Latin lookup 1"  {"sous-table 'aalt' Activer toutes les variantes dans Latin lookup 1"  } ['aalt' ('latn' <'dflt' > ) ]
Lookup: 1 0 0 "'numr' Num+AOkA-rateurs dans Latin lookup 2"  {"sous-table 'numr' Num+AOkA-rateurs dans Latin lookup 2"  } ['numr' ('latn' <'dflt' > ) ]
Lookup: 1 0 0 "'dnom' D+AOkA-nominateurs dans Latin lookup 3"  {"sous-table 'dnom' D+AOkA-nominateurs dans Latin lookup 3"  } ['dnom' ('latn' <'dflt' > ) ]

StartChar: .notdef
Encoding: 65536 -1 0
Width: 600
Flags: W
HStem: -177 56<106 494> 649 56<106 494>
VStem: 50 56<-121 649> 494 56<-121 649>
LayerCount: 2
Fore
SplineSet
50 -177 m 1
 50 705 l 1
 550 705 l 1
 550 -177 l 1
 50 -177 l 1
106 -121 m 1
 494 -121 l 1
 494 649 l 1
 106 649 l 1
 106 -121 l 1
EndSplineSet
Validated: 1
EndChar

StartChar: exclam
Encoding: 33 33 2
Width: 456
Flags: W
HStem: 0 174<140 316> 709 20G<140 316>
VStem: 140 176<0 174 391.88 729>
LayerCount: 2
Fore
SplineSet
140 729 m 1
 316 729 l 1
 316 449 l 1
 291 245 l 1
 165 245 l 1
 140 449 l 1
 140 729 l 1
140 174 m 1
 316 174 l 1
 316 0 l 1
 140 0 l 1
 140 174 l 1
EndSplineSet
Validated: 1
Position2: "sous-table 'cpsp' Chasses pour composition en capitales dans Latin lookup 1" dx=5 dy=0 dh=10 dv=0
EndChar

StartChar: quotedbl
Encoding: 34 34 3
Width: 521
Flags: W
HStem: 458 271<95 211 310 426>
VStem: 95 116<458 729> 310 116<458 729>
LayerCount: 2
Fore
SplineSet
426 729 m 1
 426 458 l 1
 310 458 l 1
 310 729 l 1
 426 729 l 1
211 729 m 1
 211 458 l 1
 95 458 l 1
 95 729 l 1
 211 729 l 1
EndSplineSet
Validated: 1
EndChar

StartChar: numbersign
Encoding: 35 35 4
Width: 838
Flags: W
HStem: 0 21G<157 271.027 395 508.027> 187 105<68 204 337 442 575 714> 426 104<124 262 398 500 635 770>
LayerCount: 2
Fore
SplineSet
445 718 m 1
 398 530 l 1
 527 530 l 1
 574 718 l 1
 682 718 l 1
 635 530 l 1
 770 530 l 1
 770 426 l 1
 609 426 l 1
 575 292 l 1
 714 292 l 1
 714 187 l 1
 550 187 l 1
 503 0 l 1
 395 0 l 1
 442 187 l 1
 313 187 l 1
 266 0 l 1
 157 0 l 1
 204 187 l 1
 68 187 l 1
 68 292 l 1
 228 292 l 1
 262 426 l 1
 124 426 l 1
 124 530 l 1
 289 530 l 1
 336 718 l 1
 445 718 l 1
500 426 m 1
 371 426 l 1
 337 292 l 1
 466 292 l 1
 500 426 l 1
EndSplineSet
Validated: 1
EndChar

StartChar: dollar
Encoding: 36 36 5
Width: 696
Flags: W
HStem: 0 111<179.862 309 388 451.065> 536 111<250.983 309 388 519.763> 740 20G<309 388>
VStem: 78 155<427.401 517.588> 309 79<-147 0 113 249 408 536 647.111 760> 473 155<131.075 228.324>
LayerCount: 2
Fore
SplineSet
388 -147 m 1
 309 -147 l 1
 309 0 l 1
 228 3 151 18 79 45 c 1
 79 173 l 1
 154 134 230 114 309 111 c 1
 309 263 l 1
 293 266 l 1
 137 294 78 348 78 457 c 0
 78 573 161 642 309 647 c 1
 309 760 l 1
 388 760 l 1
 388 649 l 1
 453 644 519 632 584 615 c 1
 584 491 l 1
 519 519 455 534 388 537 c 1
 388 397 l 1
 404 394 l 1
 487 381 545 360 578 329 c 0
 611 298 628 253 628 194 c 0
 628 74 549 10 388 1 c 1
 388 -147 l 1
309 408 m 1
 309 536 l 1
 262 533 233 509 233 474 c 0
 233 435 258 415 309 408 c 1
388 249 m 1
 388 113 l 1
 445 114 473 135 473 178 c 0
 473 222 449 242 388 249 c 1
EndSplineSet
Validated: 1
EndChar

StartChar: percent
Encoding: 37 37 6
Width: 1002
Flags: W
HStem: -14 83<726.933 820.316> 301 82<726.933 820.316> 345 82<181.492 272.508> 660 82<178.96 275.04>
VStem: 32 122<455.117 632.522> 300 122<455.117 632.522> 579 123<96.3909 273.522> 847 123<95.5399 274.373>
LayerCount: 2
Fore
SplineSet
775 301 m 0xdf
 728 301 702 260 702 185 c 0
 702 110 728 69 775 69 c 0
 822 69 847 110 847 185 c 0
 847 260 822 301 775 301 c 0xdf
775 383 m 0
 896 383 970 308 970 185 c 0
 970 62 896 -14 775 -14 c 0
 654 -14 579 62 579 185 c 0
 579 308 654 383 775 383 c 0
327 -14 m 1
 219 -14 l 1
 675 742 l 1
 783 742 l 1
 327 -14 l 1
227 742 m 0
 348 742 422 667 422 544 c 0
 422 421 348 345 227 345 c 0xbf
 106 345 32 421 32 544 c 0
 32 667 106 742 227 742 c 0
227 660 m 0
 180 660 154 619 154 544 c 0
 154 469 180 427 227 427 c 0
 274 427 300 469 300 544 c 0
 300 619 274 660 227 660 c 0
EndSplineSet
Validated: 1
Ligature2: "sous-table Remplacement de ligature lookups12" zero fraction zero
Ligature2: "sous-table Remplacement de ligature lookups12" zero slash zero
EndChar

StartChar: ampersand
Encoding: 38 38 7
Width: 872
Flags: W
HStem: -14 126<292.673 456.733> 0 21G<604.887 830> 624 118<357.131 534.305>
VStem: 60 169<174.484 318.843> 169 174<516.272 609.807> 645 152<323.69 437>
LayerCount: 2
Fore
SplineSet
390 484 m 2xac
 590 264 l 1
 625 309 642 365 645 437 c 1
 797 437 l 1
 788 318 751 226 687 157 c 1
 830 0 l 1
 623 0 l 1x6c
 575 53 l 1
 507 8 432 -14 347 -14 c 0
 262 -14 192 8 139 53 c 0
 86 98 60 157 60 228 c 0xb4
 60 323 104 392 209 461 c 1
 181 496 169 530 169 567 c 0
 169 672 259 742 396 742 c 0
 455 742 520 733 589 714 c 1
 589 578 l 1
 528 610 474 624 422 624 c 0
 371 624 343 604 343 569 c 0
 343 546 359 519 390 484 c 2xac
293 363 m 1
 250 332 229 294 229 247 c 0
 229 210 243 178 270 151 c 1
 298 125 331 112 370 112 c 0xb4
 414 112 451 125 484 152 c 1
 293 363 l 1
EndSplineSet
Validated: 1
Position2: "sous-table 'cpsp' Chasses pour composition en capitales dans Latin lookup 1" dx=5 dy=0 dh=10 dv=0
EndChar

StartChar: quotesingle
Encoding: 39 39 8
Width: 306
Flags: W
HStem: 458 271<95 211>
VStem: 95 116<458 729>
LayerCount: 2
Fore
SplineSet
211 729 m 1
 211 458 l 1
 95 458 l 1
 95 729 l 1
 211 729 l 1
EndSplineSet
Validated: 1
EndChar

StartChar: parenleft
Encoding: 40 40 9
Width: 457
Flags: W
HStem: 739 20G<182.5 377>
VStem: 86 166<144.302 479.402>
LayerCount: 2
Fore
SplineSet
377 -132 m 1
 232 -132 l 1
 132 29 86 170 86 313 c 0
 86 456 133 599 232 759 c 1
 377 759 l 1
 293 604 252 458 252 314 c 0
 252 170 293 23 377 -132 c 1
EndSplineSet
Validated: 1
EndChar

StartChar: parenright
Encoding: 41 41 10
Width: 457
Flags: W
HStem: 739 20G<80 274.5>
VStem: 205 166<144.302 479.402>
LayerCount: 2
Fore
SplineSet
80 -132 m 1
 164 23 205 170 205 314 c 0
 205 458 164 604 80 759 c 1
 225 759 l 1
 324 599 371 456 371 313 c 0
 371 170 325 29 225 -132 c 1
 80 -132 l 1
EndSplineSet
Validated: 1
EndChar

StartChar: asterisk
Encoding: 42 42 11
Width: 523
Flags: W
HStem: 722 20G<220 303>
VStem: 220 83<278 446 574 742>
LayerCount: 2
Fore
SplineSet
503 594 m 1
 342 510 l 1
 503 425 l 1
 466 356 l 1
 303 446 l 1
 303 278 l 1
 220 278 l 1
 220 446 l 1
 57 356 l 1
 20 425 l 1
 183 510 l 1
 20 594 l 1
 57 663 l 1
 220 574 l 1
 220 742 l 1
 303 742 l 1
 303 574 l 1
 466 663 l 1
 503 594 l 1
EndSplineSet
Validated: 1
EndChar

StartChar: plus
Encoding: 43 43 12
Width: 838
Flags: W
HStem: 0 21G<361 477> 256 115<106 361 477 732>
VStem: 361 116<0 256 371 627>
LayerCount: 2
Fore
SplineSet
477 627 m 1
 477 371 l 1
 732 371 l 1
 732 256 l 1
 477 256 l 1
 477 0 l 1
 361 0 l 1
 361 256 l 1
 106 256 l 1
 106 371 l 1
 361 371 l 1
 361 627 l 1
 477 627 l 1
EndSplineSet
Validated: 1
EndChar

StartChar: comma
Encoding: 44 44 13
Width: 380
Flags: W
HStem: -142 331<102 157>
VStem: 102 176<40 189>
LayerCount: 2
Fore
SplineSet
102 189 m 1
 278 189 l 1
 278 40 l 1
 157 -142 l 1
 53 -142 l 1
 102 40 l 1
 102 189 l 1
EndSplineSet
Validated: 1
EndChar

StartChar: hyphen
Encoding: 45 45 14
Width: 415
Flags: W
HStem: 217 142<54 361>
VStem: 54 307<217 359>
LayerCount: 2
Fore
SplineSet
54 359 m 1
 361 359 l 1
 361 217 l 1
 54 217 l 1
 54 359 l 1
EndSplineSet
Validated: 1
AlternateSubs2: "sous-table 'aalt' Activer toutes les variantes dans Latin lookup 1" endash emdash minus
EndChar

StartChar: period
Encoding: 46 46 15
Width: 380
Flags: W
HStem: 0 189<102 278>
VStem: 102 176<0 189>
LayerCount: 2
Fore
SplineSet
102 189 m 1
 278 189 l 1
 278 0 l 1
 102 0 l 1
 102 189 l 1
EndSplineSet
Validated: 1
Substitution2: "sous-table 'aalt' Activer toutes les variantes dans Latin lookup 0" ellipsis
EndChar

StartChar: slash
Encoding: 47 47 16
Width: 365
Flags: W
HStem: 709 20G<250.747 365>
LayerCount: 2
Fore
SplineSet
257 729 m 1
 365 729 l 1
 108 -93 l 1
 0 -93 l 1
 257 729 l 1
EndSplineSet
Validated: 1
Substitution2: "sous-table 'dnom' D+AOkA-nominateurs dans Latin lookup 3" fraction
Substitution2: "sous-table 'numr' Num+AOkA-rateurs dans Latin lookup 2" fraction
Substitution2: "sous-table 'aalt' Activer toutes les variantes dans Latin lookup 0" fraction
EndChar

StartChar: zero
Encoding: 48 48 17
Width: 696
Flags: W
HStem: -14 128<287.31 408.69> 614 128<287.31 408.439>
VStem: 48 188<201.609 526.834> 460 188<201.609 528.369>
LayerCount: 2
Fore
SplineSet
460 365 m 0
 460 456 451 521 434 558 c 0
 417 595 389 614 348 614 c 0
 268 614 236 548 236 365 c 0
 236 181 268 114 348 114 c 0
 428 114 460 181 460 365 c 0
648 364 m 0
 648 123 540 -14 348 -14 c 0
 156 -14 48 123 48 364 c 0
 48 605 156 742 348 742 c 0
 540 742 648 605 648 364 c 0
EndSplineSet
Validated: 1
Position2: "sous-table 'cpsp' Chasses pour composition en capitales dans Latin lookup 1" dx=5 dy=0 dh=10 dv=0
EndChar

StartChar: one
Encoding: 49 49 18
Width: 696
Flags: W
HStem: 0 130<117 283 461 627> 709 20G<185.429 461>
VStem: 283 178<130 601>
LayerCount: 2
Fore
SplineSet
117 130 m 1
 283 130 l 1
 283 601 l 1
 113 566 l 1
 113 694 l 1
 282 729 l 1
 461 729 l 1
 461 130 l 1
 627 130 l 1
 627 0 l 1
 117 0 l 1
 117 130 l 1
EndSplineSet
Validated: 1
Position2: "sous-table 'cpsp' Chasses pour composition en capitales dans Latin lookup 1" dx=5 dy=0 dh=10 dv=0
EndChar

StartChar: two
Encoding: 50 50 19
Width: 696
Flags: W
HStem: 0 138<288 609> 614 128<186.856 367.395>
VStem: 415 189<429.407 567.548>
LayerCount: 2
Fore
SplineSet
288 138 m 1
 609 138 l 1
 609 0 l 1
 79 0 l 1
 79 138 l 1
 345 373 l 2
 393 416 415 456 415 500 c 0
 415 568 365 614 289 614 c 0
 230 614 161 588 81 539 c 1
 81 699 l 1
 166 727 249 742 328 742 c 0
 503 742 604 661 604 524 c 0
 604 484 594 447 573 412 c 0
 552 378 509 332 444 275 c 2
 288 138 l 1
EndSplineSet
Validated: 1
Position2: "sous-table 'cpsp' Chasses pour composition en capitales dans Latin lookup 1" dx=5 dy=0 dh=10 dv=0
EndChar

StartChar: three
Encoding: 51 51 20
Width: 696
Flags: W
HStem: -14 128<142.977 377.692> 315 121<192 374.048> 614 128<150.049 375.076>
VStem: 411 188<469.283 578.931> 428 188<156.19 273.435>
LayerCount: 2
Fore
SplineSet
466 393 m 1xf0
 565 368 616 304 616 207 c 0
 616 63 503 -14 291 -14 c 0
 216 -14 140 -2 67 22 c 1
 67 167 l 1
 138 132 207 114 274 114 c 0
 374 114 428 150 428 214 c 0xe8
 428 281 374 315 267 315 c 2
 192 315 l 1
 192 436 l 1
 271 436 l 2
 366 436 411 465 411 526 c 0
 411 582 365 614 282 614 c 0
 222 614 159 600 98 573 c 1
 98 711 l 1
 173 732 245 742 316 742 c 0
 505 742 599 680 599 555 c 0
 599 470 554 416 466 393 c 1xf0
EndSplineSet
Validated: 1
Position2: "sous-table 'cpsp' Chasses pour composition en capitales dans Latin lookup 1" dx=5 dy=0 dh=10 dv=0
EndChar

StartChar: four
Encoding: 52 52 21
Width: 696
Flags: W
HStem: 0 21G<368 546> 133 136<162 368 546 650> 709 20G<323.575 546>
VStem: 368 178<0 133 269 574>
LayerCount: 2
Fore
SplineSet
368 574 m 1
 162 269 l 1
 368 269 l 1
 368 574 l 1
337 729 m 1
 546 729 l 1
 546 269 l 1
 650 269 l 1
 650 133 l 1
 546 133 l 1
 546 0 l 1
 368 0 l 1
 368 133 l 1
 45 133 l 1
 45 294 l 1
 337 729 l 1
EndSplineSet
Validated: 1
Position2: "sous-table 'cpsp' Chasses pour composition en capitales dans Latin lookup 1" dx=5 dy=0 dh=10 dv=0
EndChar

StartChar: five
Encoding: 53 53 22
Width: 696
Flags: W
HStem: -14 128<177.887 380.415> 362 128<257.118 378.516> 591 138<256 573>
VStem: 106 150<478 591> 438 188<168.495 307.877>
LayerCount: 2
Fore
SplineSet
106 729 m 1
 573 729 l 1
 573 591 l 1
 256 591 l 1
 256 478 l 1
 284 486 313 490 344 490 c 0
 523 490 626 397 626 238 c 0
 626 159 599 98 545 53 c 0
 491 8 416 -14 321 -14 c 0
 238 -14 157 2 77 34 c 1
 77 182 l 1
 157 137 228 114 291 114 c 0
 382 114 438 162 438 238 c 0
 438 314 382 362 291 362 c 0
 236 362 177 348 106 319 c 1
 106 729 l 1
EndSplineSet
Validated: 1
Position2: "sous-table 'cpsp' Chasses pour composition en capitales dans Latin lookup 1" dx=5 dy=0 dh=10 dv=0
EndChar

StartChar: six
Encoding: 54 54 23
Width: 696
Flags: W
HStem: -14 118<299.612 425.634> 360 121<298.82 426.793> 618 123<330.619 541.702>
VStem: 62 201<194.629 432.526> 461 181<140.793 323.671>
LayerCount: 2
Fore
SplineSet
362 360 m 0
 297 360 263 317 263 232 c 0
 263 147 297 104 362 104 c 0
 429 104 461 147 461 232 c 0
 461 317 429 360 362 360 c 0
594 710 m 1
 594 575 l 1
 533 604 479 618 427 618 c 0
 315 618 252 556 241 433 c 1
 284 465 334 481 393 481 c 0
 468 481 528 459 573 415 c 1
 619 372 642 315 642 244 c 0
 642 166 616 103 565 56 c 0
 514 9 446 -14 360 -14 c 0
 171 -14 62 119 62 354 c 0
 62 475 92 569 153 638 c 0
 214 707 297 741 403 741 c 0
 470 741 533 731 594 710 c 1
EndSplineSet
Validated: 1
Position2: "sous-table 'cpsp' Chasses pour composition en capitales dans Latin lookup 1" dx=5 dy=0 dh=10 dv=0
EndChar

StartChar: seven
Encoding: 55 55 24
Width: 696
Flags: W
HStem: 0 21G<149 341.117> 591 138<67 418>
LayerCount: 2
Fore
SplineSet
67 729 m 1
 616 729 l 1
 616 623 l 1
 332 0 l 1
 149 0 l 1
 418 591 l 1
 67 591 l 1
 67 729 l 1
EndSplineSet
Validated: 1
Position2: "sous-table 'cpsp' Chasses pour composition en capitales dans Latin lookup 1" dx=5 dy=0 dh=10 dv=0
EndChar

StartChar: eight
Encoding: 56 56 25
Width: 696
Flags: W
HStem: -14 118<277.792 417.568> 326 118<282.311 412.494> 624 118<283.789 412.386>
VStem: 61 178<141.264 290.038> 77 178<471.014 597.066> 440 178<471.014 597.463> 456 178<141.264 290.038>
LayerCount: 2
Fore
SplineSet
348 326 m 0xf2
 277 326 239 287 239 215 c 0
 239 143 277 104 348 104 c 0
 417 104 456 143 456 215 c 0
 456 287 417 326 348 326 c 0xf2
211 388 m 1
 123 415 77 470 77 553 c 0
 77 677 171 742 348 742 c 0
 524 742 618 677 618 553 c 0xec
 618 470 572 415 484 388 c 1
 583 361 634 298 634 205 c 0
 634 61 537 -14 348 -14 c 0
 159 -14 61 61 61 205 c 0
 61 298 112 361 211 388 c 1
255 534 m 0
 255 477 288 444 348 444 c 0
 407 444 440 477 440 534 c 0
 440 593 407 624 348 624 c 0
 288 624 255 591 255 534 c 0
EndSplineSet
Validated: 1
Position2: "sous-table 'cpsp' Chasses pour composition en capitales dans Latin lookup 1" dx=5 dy=0 dh=10 dv=0
EndChar

StartChar: nine
Encoding: 57 57 26
Width: 696
Flags: W
HStem: -14 123<150.251 362.881> 245 122<269.289 394.968> 623 118<268.51 394.165>
VStem: 52 181<405.142 584.821> 431 201<294.474 532.371>
LayerCount: 2
Fore
SplineSet
100 16 m 1
 100 151 l 1
 160 123 214 109 267 109 c 0
 379 109 442 171 453 294 c 1
 409 262 360 245 301 245 c 0
 226 245 166 267 120 310 c 0
 75 353 52 411 52 482 c 0
 52 561 77 623 128 670 c 0
 179 717 248 741 333 741 c 0
 524 741 632 608 632 373 c 0
 632 252 601 158 540 89 c 0
 479 20 396 -14 290 -14 c 0
 222 -14 160 -4 100 16 c 1
332 367 m 0
 397 367 431 410 431 495 c 0
 431 580 397 623 332 623 c 0
 267 623 233 580 233 495 c 0
 233 410 267 367 332 367 c 0
EndSplineSet
Validated: 1
Position2: "sous-table 'cpsp' Chasses pour composition en capitales dans Latin lookup 1" dx=5 dy=0 dh=10 dv=0
EndChar

StartChar: colon
Encoding: 58 58 27
Width: 400
Flags: W
HStem: 0 189<112 288> 358 189<112 288>
VStem: 112 176<0 189 358 547>
LayerCount: 2
Fore
SplineSet
112 547 m 1
 288 547 l 1
 288 358 l 1
 112 358 l 1
 112 547 l 1
112 189 m 1
 288 189 l 1
 288 0 l 1
 112 0 l 1
 112 189 l 1
EndSplineSet
Validated: 1
EndChar

StartChar: semicolon
Encoding: 59 59 28
Width: 400
Flags: W
HStem: 358 189<112 288>
VStem: 112 176<40 189 358 547>
LayerCount: 2
Fore
SplineSet
112 189 m 1
 288 189 l 1
 288 40 l 1
 167 -142 l 1
 63 -142 l 1
 112 40 l 1
 112 189 l 1
112 547 m 1
 288 547 l 1
 288 358 l 1
 112 358 l 1
 112 547 l 1
EndSplineSet
Validated: 1
EndChar

StartChar: less
Encoding: 60 60 29
Width: 838
Flags: W
LayerCount: 2
Fore
SplineSet
732 475 m 1
 261 313 l 1
 732 152 l 1
 732 30 l 1
 106 256 l 1
 106 371 l 1
 732 597 l 1
 732 475 l 1
EndSplineSet
Validated: 1
EndChar

StartChar: equal
Encoding: 61 61 30
Width: 838
Flags: W
HStem: 144 116<106 732> 367 115<106 732>
LayerCount: 2
Fore
SplineSet
106 482 m 1
 732 482 l 1
 732 367 l 1
 106 367 l 1
 106 482 l 1
106 260 m 1
 732 260 l 1
 732 144 l 1
 106 144 l 1
 106 260 l 1
EndSplineSet
Validated: 1
EndChar

StartChar: greater
Encoding: 62 62 31
Width: 838
Flags: W
LayerCount: 2
Fore
SplineSet
106 475 m 1
 106 597 l 1
 732 371 l 1
 732 256 l 1
 106 30 l 1
 106 152 l 1
 577 313 l 1
 106 475 l 1
EndSplineSet
Validated: 1
EndChar

StartChar: question
Encoding: 63 63 32
Width: 580
Flags: W
HStem: 0 174<170 346> 549 21G<69 102.5> 614 128<151.127 315.334>
VStem: 170 176<0 174 246 323.805> 339 176<483.6 591.269>
LayerCount: 2
Fore
SplineSet
346 246 m 1xf0
 170 246 l 1
 170 270 l 2xf0
 170 297 175 320 186 341 c 0
 197 362 219 388 254 420 c 2
 285 448 l 1
 322 483 339 512 339 541 c 0
 339 586 306 614 250 614 c 0
 197 614 136 592 69 549 c 1
 69 702 l 1
 148 730 211 742 271 742 c 0
 430 742 515 676 515 552 c 0xe8
 515 488 492 442 431 385 c 1
 400 357 l 2
 356 317 346 297 346 268 c 2
 346 246 l 1xf0
170 174 m 1
 346 174 l 1
 346 0 l 1
 170 0 l 1
 170 174 l 1
EndSplineSet
Validated: 1
Position2: "sous-table 'cpsp' Chasses pour composition en capitales dans Latin lookup 1" dx=5 dy=0 dh=10 dv=0
EndChar

StartChar: at
Encoding: 64 64 33
Width: 1000
Flags: W
HStem: -174 92<382.486 623.241> 43 91<443.027 557.174 708 760.896> 391 91<443.131 558.275> 612 91<387.651 637.063>
VStem: 66 91<141.916 385.304> 294 112<174.51 350.322> 596 112<175.426 350.144> 606 102<408 472> 838 91<214.763 430.073>
LayerCount: 2
Fore
SplineSet
406 263 m 0xfe80
 406 183 442 134 501 134 c 0
 558 134 596 184 596 263 c 0
 596 342 559 391 500 391 c 0
 443 391 406 342 406 263 c 0xfe80
606 116 m 1xfd80
 586 71 540 43 483 43 c 0
 427 43 381 63 346 104 c 0
 311 145 294 197 294 262 c 0
 294 327 311 380 346 421 c 0
 381 462 427 482 483 482 c 0
 540 482 586 455 606 408 c 1
 606 472 l 1
 708 472 l 1
 708 134 l 1
 789 146 838 215 838 318 c 0
 838 383 820 440 781 488 c 0
 718 567 622 612 514 612 c 0
 439 612 369 592 310 553 c 0
 214 489 157 384 157 265 c 0
 157 168 192 81 259 16 c 0
 324 -48 410 -82 506 -82 c 0
 587 -82 675 -49 734 3 c 1
 786 -76 l 1
 705 -140 606 -174 507 -174 c 0
 387 -174 277 -130 194 -49 c 0
 110 32 66 142 66 265 c 0
 66 384 111 495 194 576 c 1
 275 657 390 703 507 703 c 0
 652 703 775 646 855 541 c 0
 904 477 929 401 929 320 c 0
 929 144 818 41 625 41 c 2
 606 41 l 1
 606 116 l 1xfd80
EndSplineSet
Validated: 1
EndChar

StartChar: A
Encoding: 65 65 34
Width: 774
Flags: W
HStem: 0 21G<5 200.917 573.083 769> 133 135<287 487> 709 20G<267.593 506.407>
LayerCount: 2
Fore
SplineSet
534 133 m 1
 240 133 l 1
 194 0 l 1
 5 0 l 1
 275 729 l 1
 499 729 l 1
 769 0 l 1
 580 0 l 1
 534 133 l 1
287 268 m 1
 487 268 l 1
 387 558 l 1
 287 268 l 1
EndSplineSet
Validated: 1
Position2: "sous-table 'cpsp' Chasses pour composition en capitales dans Latin lookup 1" dx=5 dy=0 dh=10 dv=0
EndChar

StartChar: B
Encoding: 66 66 35
Width: 762
Flags: W
HStem: 0 128<280 471.787> 319 128<280 452.539> 601 128<280 452.732>
VStem: 92 188<128 319 447 601> 474 188<467.564 578.979> 504 188<159.1 287.958>
LayerCount: 2
Fore
SplineSet
384 447 m 2xf8
 443 447 474 473 474 524 c 0
 474 575 443 601 384 601 c 2
 280 601 l 1
 280 447 l 1
 384 447 l 2xf8
390 128 m 2
 466 128 504 160 504 224 c 0xf4
 504 287 466 319 390 319 c 2
 280 319 l 1
 280 128 l 1
 390 128 l 2
565 390 m 1
 645 367 692 301 692 209 c 0xf4
 692 69 597 0 404 0 c 2
 92 0 l 1
 92 729 l 1
 374 729 l 2
 577 729 662 671 662 536 c 0xf8
 662 465 628 414 565 390 c 1
EndSplineSet
Validated: 1
Position2: "sous-table 'cpsp' Chasses pour composition en capitales dans Latin lookup 1" dx=5 dy=0 dh=10 dv=0
EndChar

StartChar: C
Encoding: 67 67 36
Width: 734
Flags: W
HStem: -14 136<359.145 579.812> 606 136<359.145 579.812>
VStem: 50 194<246.845 481.132>
LayerCount: 2
Fore
SplineSet
670 40 m 1
 601 4 526 -14 445 -14 c 0
 324 -14 227 20 156 87 c 0
 85 155 50 247 50 364 c 0
 50 481 85 573 156 640 c 0
 227 708 324 742 445 742 c 0
 526 742 601 724 670 688 c 1
 670 537 l 1
 601 585 535 606 460 606 c 0
 325 606 244 515 244 364 c 0
 244 213 325 122 460 122 c 0
 535 122 601 143 670 191 c 1
 670 40 l 1
EndSplineSet
Validated: 1
Position2: "sous-table 'cpsp' Chasses pour composition en capitales dans Latin lookup 1" dx=5 dy=0 dh=10 dv=0
EndChar

StartChar: D
Encoding: 68 68 37
Width: 830
Flags: W
HStem: 0 142<280 464.629> 587 142<280 465.51>
VStem: 92 188<142 587> 584 194<254.935 474.811>
LayerCount: 2
Fore
SplineSet
280 587 m 1
 280 142 l 1
 347 142 l 2
 500 142 584 220 584 365 c 0
 584 510 502 587 347 587 c 2
 280 587 l 1
92 729 m 1
 290 729 l 2
 401 729 483 721 537 705 c 1
 592 690 638 663 677 625 c 0
 745 560 778 474 778 365 c 0
 778 256 745 169 677 104 c 0
 638 66 591 39 536 23 c 0
 481 8 399 0 290 0 c 2
 92 0 l 1
 92 729 l 1
EndSplineSet
Validated: 1
Position2: "sous-table 'cpsp' Chasses pour composition en capitales dans Latin lookup 1" dx=5 dy=0 dh=10 dv=0
EndChar

StartChar: E
Encoding: 69 69 38
Width: 683
Flags: W
HStem: 0 142<280 610> 309 142<280 580> 587 142<280 599>
VStem: 92 188<142 309 451 587>
LayerCount: 2
Fore
SplineSet
92 729 m 1
 599 729 l 1
 599 587 l 1
 280 587 l 1
 280 451 l 1
 580 451 l 1
 580 309 l 1
 280 309 l 1
 280 142 l 1
 610 142 l 1
 610 0 l 1
 92 0 l 1
 92 729 l 1
EndSplineSet
Validated: 1
Position2: "sous-table 'cpsp' Chasses pour composition en capitales dans Latin lookup 1" dx=5 dy=0 dh=10 dv=0
EndChar

StartChar: F
Encoding: 70 70 39
Width: 683
Flags: W
HStem: 0 21G<92 280> 309 142<280 580> 587 142<280 599>
VStem: 92 188<0 309 451 587>
LayerCount: 2
Fore
SplineSet
92 729 m 1
 599 729 l 1
 599 587 l 1
 280 587 l 1
 280 451 l 1
 580 451 l 1
 580 309 l 1
 280 309 l 1
 280 0 l 1
 92 0 l 1
 92 729 l 1
EndSplineSet
Validated: 1
Position2: "sous-table 'cpsp' Chasses pour composition en capitales dans Latin lookup 1" dx=5 dy=0 dh=10 dv=0
EndChar

StartChar: G
Encoding: 71 71 40
Width: 821
Flags: W
HStem: -14 136<363.377 567.797> 279 126<454 569> 606 136<367.03 614.46>
VStem: 50 194<243.649 482.16> 569 178<130.016 279>
LayerCount: 2
Fore
SplineSet
747 54 m 1
 654 9 552 -14 445 -14 c 0
 324 -14 227 20 156 87 c 0
 85 155 50 247 50 364 c 0
 50 481 86 574 158 641 c 0
 231 708 330 742 455 742 c 0
 552 742 641 724 720 688 c 1
 720 537 l 1
 639 584 559 606 478 606 c 0
 329 606 244 519 244 364 c 0
 244 209 325 122 469 122 c 0
 509 122 542 126 569 137 c 1
 569 279 l 1
 454 279 l 1
 454 405 l 1
 747 405 l 1
 747 54 l 1
EndSplineSet
Validated: 1
Position2: "sous-table 'cpsp' Chasses pour composition en capitales dans Latin lookup 1" dx=5 dy=0 dh=10 dv=0
EndChar

StartChar: H
Encoding: 72 72 41
Width: 837
Flags: W
HStem: 0 21G<92 280 557 745> 309 142<280 557> 709 20G<92 280 557 745>
VStem: 92 188<0 309 451 729> 557 188<0 309 451 729>
LayerCount: 2
Fore
SplineSet
92 729 m 1
 280 729 l 1
 280 451 l 1
 557 451 l 1
 557 729 l 1
 745 729 l 1
 745 0 l 1
 557 0 l 1
 557 309 l 1
 280 309 l 1
 280 0 l 1
 92 0 l 1
 92 729 l 1
EndSplineSet
Validated: 1
Position2: "sous-table 'cpsp' Chasses pour composition en capitales dans Latin lookup 1" dx=5 dy=0 dh=10 dv=0
EndChar

StartChar: I
Encoding: 73 73 42
Width: 372
Flags: W
HStem: 0 21G<92 280> 709 20G<92 280>
VStem: 92 188<0 729>
LayerCount: 2
Fore
SplineSet
92 729 m 1
 280 729 l 1
 280 0 l 1
 92 0 l 1
 92 729 l 1
EndSplineSet
Validated: 1
Position2: "sous-table 'cpsp' Chasses pour composition en capitales dans Latin lookup 1" dx=5 dy=0 dh=10 dv=0
EndChar

StartChar: J
Encoding: 74 74 43
Width: 372
Flags: W
HStem: -200 142<-56 43.9696> 709 20G<92 280>
VStem: 92 188<-14.2685 729>
LayerCount: 2
Fore
SplineSet
92 729 m 1
 280 729 l 1
 280 71 l 2
 280 -110 182 -200 -18 -200 c 2
 -56 -200 l 1
 -56 -58 l 1
 -27 -58 l 2
 52 -58 92 -14 92 71 c 2
 92 729 l 1
EndSplineSet
Validated: 1
Position2: "sous-table 'cpsp' Chasses pour composition en capitales dans Latin lookup 1" dx=5 dy=0 dh=10 dv=0
EndChar

StartChar: K
Encoding: 75 75 44
Width: 775
Flags: W
HStem: 0 21G<92 280 549.791 805> 709 20G<92 280 530.624 769>
VStem: 92 188<0 287 463 729>
LayerCount: 2
Fore
SplineSet
92 729 m 1
 280 729 l 1
 280 463 l 1
 551 729 l 1
 769 729 l 1
 418 384 l 1
 805 0 l 1
 570 0 l 1
 280 287 l 1
 280 0 l 1
 92 0 l 1
 92 729 l 1
EndSplineSet
Validated: 1
Position2: "sous-table 'cpsp' Chasses pour composition en capitales dans Latin lookup 1" dx=5 dy=0 dh=10 dv=0
EndChar

StartChar: L
Encoding: 76 76 45
Width: 637
Flags: W
HStem: 0 142<280 610> 709 20G<92 280>
VStem: 92 188<142 729>
LayerCount: 2
Fore
SplineSet
92 729 m 1
 280 729 l 1
 280 142 l 1
 610 142 l 1
 610 0 l 1
 92 0 l 1
 92 729 l 1
EndSplineSet
Validated: 1
Position2: "sous-table 'cpsp' Chasses pour composition en capitales dans Latin lookup 1" dx=5 dy=0 dh=10 dv=0
EndChar

StartChar: M
Encoding: 77 77 46
Width: 995
Flags: W
HStem: 0 21G<92 270 725 903> 709 20G<92 339.513 655.436 903>
VStem: 92 178<0 533> 725 178<0 533>
LayerCount: 2
Fore
SplineSet
92 729 m 1
 331 729 l 1
 497 339 l 1
 664 729 l 1
 903 729 l 1
 903 0 l 1
 725 0 l 1
 725 533 l 1
 557 140 l 1
 438 140 l 1
 270 533 l 1
 270 0 l 1
 92 0 l 1
 92 729 l 1
EndSplineSet
Validated: 1
Position2: "sous-table 'cpsp' Chasses pour composition en capitales dans Latin lookup 1" dx=5 dy=0 dh=10 dv=0
EndChar

StartChar: N
Encoding: 78 78 47
Width: 837
Flags: W
HStem: 0 21G<92 270 524.4 745> 709 20G<92 312.6 567 745>
VStem: 92 178<0 500> 567 178<229 729>
LayerCount: 2
Fore
SplineSet
92 729 m 1
 302 729 l 1
 567 229 l 1
 567 729 l 1
 745 729 l 1
 745 0 l 1
 535 0 l 1
 270 500 l 1
 270 0 l 1
 92 0 l 1
 92 729 l 1
EndSplineSet
Validated: 1
Position2: "sous-table 'cpsp' Chasses pour composition en capitales dans Latin lookup 1" dx=5 dy=0 dh=10 dv=0
EndChar

StartChar: O
Encoding: 79 79 48
Width: 850
Flags: W
HStem: -14 136<341.034 509.036> 606 136<341.034 509.036>
VStem: 50 194<233.789 494.03> 606 194<233.789 494.03>
LayerCount: 2
Fore
SplineSet
425 606 m 0
 310 606 244 517 244 364 c 0
 244 211 310 122 425 122 c 0
 540 122 606 211 606 364 c 0
 606 517 540 606 425 606 c 0
425 742 m 0
 542 742 634 708 700 641 c 0
 767 574 800 482 800 364 c 0
 800 246 767 153 700 86 c 0
 634 19 542 -14 425 -14 c 0
 308 -14 217 19 150 86 c 0
 83 153 50 246 50 364 c 0
 50 482 83 574 150 641 c 0
 217 708 308 742 425 742 c 0
EndSplineSet
Validated: 1
Position2: "sous-table 'cpsp' Chasses pour composition en capitales dans Latin lookup 1" dx=5 dy=0 dh=10 dv=0
EndChar

StartChar: P
Encoding: 80 80 49
Width: 733
Flags: W
HStem: 0 21G<92 280> 253 136<280 461.733> 593 136<280 461.733>
VStem: 92 188<0 253 389 593> 498 194<424.343 557.49>
LayerCount: 2
Fore
SplineSet
92 729 m 1
 404 729 l 2
 589 729 692 643 692 491 c 0
 692 338 589 253 404 253 c 2
 280 253 l 1
 280 0 l 1
 92 0 l 1
 92 729 l 1
280 593 m 1
 280 389 l 1
 384 389 l 2
 456 389 498 426 498 491 c 0
 498 556 456 593 384 593 c 2
 280 593 l 1
EndSplineSet
Validated: 1
Position2: "sous-table 'cpsp' Chasses pour composition en capitales dans Latin lookup 1" dx=5 dy=0 dh=10 dv=0
EndChar

StartChar: Q
Encoding: 81 81 50
Width: 850
Flags: W
HStem: -13 135<340.071 445> 606 136<341.034 509.325>
VStem: 50 194<232.908 494.03> 606 194<235.491 494.573>
LayerCount: 2
Fore
SplineSet
445 -13 m 1
 430 -13 l 2
 310 -13 217 20 150 86 c 0
 83 153 50 245 50 364 c 0
 50 482 83 574 150 641 c 0
 217 708 308 742 425 742 c 0
 543 742 635 709 701 642 c 0
 767 576 800 483 800 364 c 0
 800 200 728 78 596 18 c 1
 743 -146 l 1
 564 -146 l 1
 445 -13 l 1
425 606 m 0
 310 606 244 517 244 364 c 0
 244 208 308 122 425 122 c 0
 540 122 606 211 606 364 c 0
 606 517 540 606 425 606 c 0
EndSplineSet
Validated: 1
Position2: "sous-table 'cpsp' Chasses pour composition en capitales dans Latin lookup 1" dx=5 dy=0 dh=10 dv=0
EndChar

StartChar: R
Encoding: 82 82 51
Width: 770
Flags: W
HStem: 0 21G<92 280 540.166 750> 276 130<280 406.856> 593 136<280 438.222>
VStem: 92 188<0 276 406 593> 469 188<431.678 566.147>
LayerCount: 2
Fore
SplineSet
359 406 m 2
 438 406 469 433 469 500 c 0
 469 567 438 593 359 593 c 2
 280 593 l 1
 280 406 l 1
 359 406 l 2
280 276 m 1
 280 0 l 1
 92 0 l 1
 92 729 l 1
 379 729 l 2
 571 729 657 667 657 528 c 0
 657 432 610 370 517 341 c 1
 569 329 607 291 648 207 c 2
 750 0 l 1
 550 0 l 1
 461 181 l 2
 425 254 394 276 333 276 c 2
 280 276 l 1
EndSplineSet
Validated: 1
Position2: "sous-table 'cpsp' Chasses pour composition en capitales dans Latin lookup 1" dx=5 dy=0 dh=10 dv=0
EndChar

StartChar: S
Encoding: 83 83 52
Width: 720
Flags: W
HStem: -14 136<204.792 434.266> 552 21G<559 599> 606 136<272.597 511.079>
VStem: 72 170<484.896 579.498> 466 181<153.526 251.91>
LayerCount: 2
Fore
SplineSet
599 706 m 1
 599 552 l 1
 519 588 442 606 374 606 c 0
 285 606 242 582 242 530 c 0
 242 490 267 472 343 456 c 2
 423 440 l 2
 584 408 647 347 647 224 c 0
 647 64 553 -14 357 -14 c 0
 265 -14 171 3 78 38 c 1
 78 197 l 1
 171 148 258 122 339 122 c 0
 420 122 466 150 466 201 c 0
 466 246 443 267 355 287 c 2
 282 303 l 2
 137 335 72 400 72 516 c 0
 72 661 168 742 344 742 c 0
 424 742 508 730 599 706 c 1
EndSplineSet
Validated: 1
Position2: "sous-table 'cpsp' Chasses pour composition en capitales dans Latin lookup 1" dx=5 dy=0 dh=10 dv=0
EndChar

StartChar: T
Encoding: 84 84 53
Width: 682
Flags: W
HStem: 0 21G<247 435> 587 142<5 247 435 677>
VStem: 247 188<0 587>
LayerCount: 2
Fore
SplineSet
5 729 m 1
 677 729 l 1
 677 587 l 1
 435 587 l 1
 435 0 l 1
 247 0 l 1
 247 587 l 1
 5 587 l 1
 5 729 l 1
EndSplineSet
Validated: 1
Position2: "sous-table 'cpsp' Chasses pour composition en capitales dans Latin lookup 1" dx=5 dy=0 dh=10 dv=0
EndChar

StartChar: U
Encoding: 85 85 54
Width: 812
Flags: W
HStem: -14 138<329.331 482.669> 709 20G<92 280 532 720>
VStem: 92 188<179.152 729> 532 188<179.152 729>
LayerCount: 2
Fore
SplineSet
92 729 m 1
 280 729 l 1
 280 292 l 2
 280 172 317 124 406 124 c 0
 495 124 532 172 532 292 c 2
 532 729 l 1
 720 729 l 1
 720 292 l 2
 720 85 618 -14 406 -14 c 0
 194 -14 92 85 92 292 c 2
 92 729 l 1
EndSplineSet
Validated: 1
Position2: "sous-table 'cpsp' Chasses pour composition en capitales dans Latin lookup 1" dx=5 dy=0 dh=10 dv=0
EndChar

StartChar: V
Encoding: 86 86 55
Width: 774
Flags: W
HStem: 0 21G<267.593 506.407> 709 20G<5 201.175 572.825 769>
LayerCount: 2
Fore
SplineSet
5 729 m 1
 194 729 l 1
 387 191 l 1
 580 729 l 1
 769 729 l 1
 499 0 l 1
 275 0 l 1
 5 729 l 1
EndSplineSet
Validated: 1
Position2: "sous-table 'cpsp' Chasses pour composition en capitales dans Latin lookup 1" dx=5 dy=0 dh=10 dv=0
EndChar

StartChar: W
Encoding: 87 87 56
Width: 1103
Flags: W
HStem: 0 21G<198.254 424.729 678.235 904.719> 709 20G<30 214.755 456.283 646.717 888.245 1072>
LayerCount: 2
Fore
SplineSet
30 729 m 1
 210 729 l 1
 336 199 l 1
 461 729 l 1
 642 729 l 1
 767 199 l 1
 893 729 l 1
 1072 729 l 1
 900 0 l 1
 683 0 l 1
 551 554 l 1
 420 0 l 1
 203 0 l 1
 30 729 l 1
EndSplineSet
Validated: 1
Position2: "sous-table 'cpsp' Chasses pour composition en capitales dans Latin lookup 1" dx=5 dy=0 dh=10 dv=0
EndChar

StartChar: X
Encoding: 88 88 57
Width: 771
Flags: W
HStem: 0 21G<19 229.574 541.345 751> 709 20G<29 238.617 530.468 741>
LayerCount: 2
Fore
SplineSet
498 372 m 1
 751 0 l 1
 555 0 l 1
 385 249 l 1
 216 0 l 1
 19 0 l 1
 272 372 l 1
 29 729 l 1
 225 729 l 1
 385 494 l 1
 544 729 l 1
 741 729 l 1
 498 372 l 1
EndSplineSet
Validated: 1
Position2: "sous-table 'cpsp' Chasses pour composition en capitales dans Latin lookup 1" dx=5 dy=0 dh=10 dv=0
EndChar

StartChar: Y
Encoding: 89 89 58
Width: 724
Flags: W
HStem: 0 21G<268 456> 709 20G<-10 208.769 515.231 734>
VStem: 268 188<0 307>
LayerCount: 2
Fore
SplineSet
-10 729 m 1
 196 729 l 1
 362 469 l 1
 528 729 l 1
 734 729 l 1
 456 307 l 1
 456 0 l 1
 268 0 l 1
 268 307 l 1
 -10 729 l 1
EndSplineSet
Validated: 1
Position2: "sous-table 'cpsp' Chasses pour composition en capitales dans Latin lookup 1" dx=5 dy=0 dh=10 dv=0
EndChar

StartChar: Z
Encoding: 90 90 59
Width: 725
Flags: W
HStem: 0 142<278 680> 587 142<56 436>
LayerCount: 2
Fore
SplineSet
56 729 m 1
 669 729 l 1
 669 615 l 1
 278 142 l 1
 680 142 l 1
 680 0 l 1
 45 0 l 1
 45 114 l 1
 436 587 l 1
 56 587 l 1
 56 729 l 1
EndSplineSet
Validated: 1
Position2: "sous-table 'cpsp' Chasses pour composition en capitales dans Latin lookup 1" dx=5 dy=0 dh=10 dv=0
EndChar

StartChar: bracketleft
Encoding: 91 91 60
Width: 457
Flags: W
HStem: -132 110<252 389> 650 110<252 389>
VStem: 86 303<-132 -22 650 760> 86 166<-22 650>
LayerCount: 2
Fore
SplineSet
86 760 m 1xe0
 389 760 l 1
 389 650 l 1xe0
 252 650 l 1
 252 -22 l 1xd0
 389 -22 l 1
 389 -132 l 1
 86 -132 l 1
 86 760 l 1xe0
EndSplineSet
Validated: 1
EndChar

StartChar: backslash
Encoding: 92 92 61
Width: 365
Flags: W
HStem: 709 20G<0 114.253>
LayerCount: 2
Fore
SplineSet
257 -93 m 1
 0 729 l 1
 108 729 l 1
 365 -93 l 1
 257 -93 l 1
EndSplineSet
Validated: 1
EndChar

StartChar: bracketright
Encoding: 93 93 62
Width: 457
Flags: W
HStem: -132 110<68 205> 650 110<68 205>
VStem: 68 303<-132 -22 650 760> 205 166<-22 650>
LayerCount: 2
Fore
SplineSet
371 -132 m 1xe0
 68 -132 l 1
 68 -22 l 1xe0
 205 -22 l 1
 205 650 l 1xd0
 68 650 l 1
 68 760 l 1
 371 760 l 1
 371 -132 l 1xe0
EndSplineSet
Validated: 1
EndChar

StartChar: asciicircum
Encoding: 94 94 63
Width: 838
Flags: W
HStem: 457 272
LayerCount: 2
Fore
SplineSet
479 729 m 1
 737 457 l 1
 619 457 l 1
 419 604 l 1
 219 457 l 1
 101 457 l 1
 359 729 l 1
 479 729 l 1
EndSplineSet
Validated: 1
EndChar

StartChar: underscore
Encoding: 95 95 64
Width: 500
Flags: W
HStem: -236 93<0 500>
LayerCount: 2
Fore
SplineSet
500 -143 m 1
 500 -236 l 1
 0 -236 l 1
 0 -143 l 1
 500 -143 l 1
EndSplineSet
Validated: 1
EndChar

StartChar: grave
Encoding: 96 96 65
Width: 500
Flags: W
HStem: 616 184
VStem: 46 276
LayerCount: 2
Fore
SplineSet
184 800 m 1
 322 616 l 1
 226 616 l 1
 46 800 l 1
 184 800 l 1
EndSplineSet
Validated: 1
EndChar

StartChar: a
Encoding: 97 97 66
Width: 675
Flags: W
HStem: -14 116<205.5 338.357> 0 21G<420 596> 246 104<243.383 420> 444 116<146.263 388.293>
VStem: 43 176<121.909 220.772> 420 176<0 81 153.123 246 350 412.505>
LayerCount: 2
Fore
SplineSet
329 246 m 2xbc
 256 246 219 221 219 173 c 0
 219 129 251 102 303 102 c 0
 370 102 420 155 420 226 c 2
 420 246 l 1
 329 246 l 2xbc
596 312 m 2
 596 0 l 1
 420 0 l 1x7c
 420 81 l 1
 373 14 318 -14 234 -14 c 0
 177 -14 131 2 96 35 c 0
 61 68 43 111 43 164 c 0
 43 292 128 350 317 350 c 2
 420 350 l 1
 420 364 l 2
 420 419 377 444 285 444 c 0
 210 444 146 428 91 399 c 1
 91 532 l 1
 166 551 241 560 317 560 c 0
 514 560 596 487 596 312 c 2
EndSplineSet
Validated: 1
Substitution2: "sous-table Substitution simple lookups10" ordfeminine
Substitution2: "sous-table 'aalt' Activer toutes les variantes dans Latin lookup 0" ordfeminine
EndChar

StartChar: b
Encoding: 98 98 67
Width: 716
Flags: W
HStem: -14 127<342.08 474.533> 0 21G<84 259> 433 127<342.08 474.533> 740 20G<84 259>
VStem: 84 175<0 79 167.605 378.395 467 760> 490 181<167.457 378.125>
LayerCount: 2
Fore
SplineSet
375 113 m 0xbc
 450 113 490 169 490 273 c 0
 490 377 450 433 375 433 c 0
 300 433 259 377 259 273 c 0
 259 169 300 113 375 113 c 0xbc
259 467 m 1
 307 531 364 560 440 560 c 0
 507 560 563 533 606 479 c 0
 649 426 671 357 671 273 c 0
 671 188 649 119 606 66 c 0
 563 13 507 -14 440 -14 c 0xbc
 364 -14 307 15 259 79 c 1
 259 0 l 1
 84 0 l 1x7c
 84 760 l 1
 259 760 l 1
 259 467 l 1
EndSplineSet
Validated: 1
EndChar

StartChar: c
Encoding: 99 99 68
Width: 593
Flags: W
HStem: -14 125<295.406 482.34> 435 125<295.406 478.908>
VStem: 43 182<179.685 366.315>
LayerCount: 2
Fore
SplineSet
526 530 m 1
 526 387 l 1
 478 420 431 435 380 435 c 0
 283 435 225 376 225 273 c 0
 225 170 283 111 380 111 c 0
 435 111 485 127 526 159 c 1
 526 16 l 1
 471 -4 414 -14 358 -14 c 0
 161 -14 43 93 43 273 c 0
 43 453 161 560 358 560 c 0
 415 560 470 550 526 530 c 1
EndSplineSet
Validated: 1
EndChar

StartChar: d
Encoding: 100 100 69
Width: 716
Flags: W
HStem: -14 127<241.467 373.649> 0 21G<456 632> 433 127<241.467 373.649> 740 20G<456 632>
VStem: 45 181<167.457 378.125> 456 176<0 79 167.605 378.395 467 760>
LayerCount: 2
Fore
SplineSet
456 467 m 1xbc
 456 760 l 1
 632 760 l 1
 632 0 l 1
 456 0 l 1x7c
 456 79 l 1
 408 15 352 -14 276 -14 c 0
 209 -14 153 13 110 66 c 0
 67 119 45 188 45 273 c 0
 45 357 67 426 110 479 c 0
 153 533 209 560 276 560 c 0
 352 560 408 531 456 467 c 1xbc
341 113 m 0xbc
 416 113 456 169 456 273 c 0
 456 377 416 433 341 433 c 0
 266 433 226 377 226 273 c 0
 226 169 266 113 341 113 c 0xbc
EndSplineSet
Validated: 1
EndChar

StartChar: e
Encoding: 101 101 70
Width: 678
Flags: W
HStem: -14 116<283.511 499.457> 225 108<223 450> 444 116<271.063 411.43>
VStem: 43 178<165.31 225 333 388.955>
LayerCount: 2
Fore
SplineSet
630 275 m 2
 630 225 l 1
 221 225 l 1
 230 144 281 102 372 102 c 0
 445 102 523 124 604 168 c 1
 604 33 l 1
 521 2 439 -14 356 -14 c 0
 159 -14 43 92 43 273 c 0
 43 362 70 432 124 483 c 0
 178 534 252 560 346 560 c 0
 432 560 501 534 552 482 c 1
 604 431 630 362 630 275 c 2
450 333 m 1
 450 400 408 444 345 444 c 0
 277 444 234 405 223 333 c 1
 450 333 l 1
EndSplineSet
Validated: 1
EndChar

StartChar: f
Encoding: 102 102 71
Width: 435
Flags: W
HStem: 0 21G<106 281> 422 125<19 106 281 430> 645 115<290.94 444>
VStem: 106 175<0 422 547 636.194>
LayerCount: 2
Fore
SplineSet
444 760 m 1
 444 645 l 1
 347 645 l 2
 298 645 281 629 281 585 c 2
 281 547 l 1
 430 547 l 1
 430 422 l 1
 281 422 l 1
 281 0 l 1
 106 0 l 1
 106 422 l 1
 19 422 l 1
 19 547 l 1
 106 547 l 1
 106 585 l 2
 106 704 171 760 310 760 c 2
 444 760 l 1
EndSplineSet
Validated: 1
EndChar

StartChar: g
Encoding: 103 103 72
Width: 716
Flags: W
HStem: -216 116<175.839 391.637> 0 127<273.401 373.315> 433 126<242.13 373.315> 527 20G<456 632>
VStem: 45 181<178.749 378.969> 456 176<-35.3647 93 180.252 379.748 466 547>
LayerCount: 2
Fore
SplineSet
456 93 m 1xdc
 408 29 352 0 276 0 c 0
 209 0 154 26 110 79 c 0
 67 132 45 199 45 280 c 0
 45 361 67 428 110 480 c 0
 154 533 209 559 276 559 c 0xec
 352 559 408 530 456 466 c 1
 456 547 l 1
 632 547 l 1
 632 55 l 2
 632 -121 518 -216 307 -216 c 0
 239 -216 176 -205 112 -184 c 1
 112 -48 l 1
 173 -83 231 -100 290 -100 c 0
 405 -100 456 -52 456 55 c 2
 456 93 l 1xdc
341 433 m 0
 269 433 226 377 226 280 c 0
 226 180 266 127 341 127 c 0
 414 127 456 183 456 280 c 0
 456 377 414 433 341 433 c 0
EndSplineSet
Validated: 1
EndChar

StartChar: h
Encoding: 104 104 73
Width: 712
Flags: W
HStem: 0 21G<84 259 458 634> 428 132<344.641 504.5> 740 20G<84 259>
VStem: 84 175<0 369.368 467 760> 458 176<0 402.958>
LayerCount: 2
Fore
SplineSet
634 333 m 2
 634 0 l 1
 458 0 l 1
 458 54 l 1
 458 254 l 2
 458 302 457 335 455 352 c 0
 453 370 449 383 444 392 c 0
 431 415 405 428 376 428 c 0
 303 428 259 369 259 269 c 2
 259 0 l 1
 84 0 l 1
 84 760 l 1
 259 760 l 1
 259 467 l 1
 311 531 369 560 441 560 c 0
 568 560 634 481 634 333 c 2
EndSplineSet
Validated: 1
EndChar

StartChar: i
Encoding: 105 105 74
Width: 343
Flags: W
HStem: 0 21G<84 259> 527 20G<84 259> 617 143<84 259>
VStem: 84 175<0 547 617 760>
LayerCount: 2
Fore
SplineSet
84 547 m 1
 259 547 l 1
 259 0 l 1
 84 0 l 1
 84 547 l 1
84 760 m 1
 259 760 l 1
 259 617 l 1
 84 617 l 1
 84 760 l 1
EndSplineSet
Validated: 1
EndChar

StartChar: j
Encoding: 106 106 75
Width: 343
Flags: W
HStem: -216 115<-33 59.1904> 527 20G<84 259> 617 143<84 259>
VStem: 84 175<-81.513 547 617 760>
LayerCount: 2
Fore
SplineSet
84 547 m 1
 259 547 l 1
 259 10 l 2
 259 -137 186 -216 53 -216 c 2
 -33 -216 l 1
 -33 -101 l 1
 -3 -101 l 2
 64 -101 84 -78 84 10 c 2
 84 547 l 1
84 760 m 1
 259 760 l 1
 259 617 l 1
 84 617 l 1
 84 760 l 1
EndSplineSet
Validated: 1
EndChar

StartChar: k
Encoding: 107 107 76
Width: 665
Flags: W
HStem: 0 21G<84 259 453.316 684> 527 20G<440 663> 740 20G<84 259>
VStem: 84 175<0 228 346 760>
LayerCount: 2
Fore
SplineSet
84 760 m 1
 259 760 l 1
 259 346 l 1
 460 547 l 1
 663 547 l 1
 396 296 l 1
 684 0 l 1
 472 0 l 1
 259 228 l 1
 259 0 l 1
 84 0 l 1
 84 760 l 1
EndSplineSet
Validated: 1
EndChar

StartChar: l
Encoding: 108 108 77
Width: 343
Flags: W
HStem: 0 21G<84 259> 740 20G<84 259>
VStem: 84 175<0 760>
LayerCount: 2
Fore
SplineSet
84 760 m 1
 259 760 l 1
 259 0 l 1
 84 0 l 1
 84 760 l 1
EndSplineSet
Validated: 1
EndChar

StartChar: m
Encoding: 109 109 78
Width: 1042
Flags: W
HStem: 0 21G<83 259 435 611 787 963> 428 132<337.703 462.5 678.564 832.5> 527 20G<83 259>
VStem: 83 176<0 376.446 467 547> 435 176<0 376.446> 787 176<0 408.907>
CounterMasks: 1 1c
LayerCount: 2
Fore
SplineSet
591 456 m 1xdc
 635 524 697 560 770 560 c 0
 895 560 963 481 963 333 c 2
 963 0 l 1
 787 0 l 1
 787 285 l 1
 788 294 788 301 788 318 c 0
 788 395 767 428 716 428 c 0
 649 428 612 372 611 269 c 1
 611 0 l 1
 435 0 l 1
 435 285 l 2
 435 346 430 385 419 402 c 0
 409 419 391 428 364 428 c 0xdc
 296 428 259 372 259 269 c 2
 259 0 l 1
 83 0 l 1
 83 547 l 1
 259 547 l 1xbc
 259 467 l 1
 302 528 358 560 425 560 c 0
 500 560 560 521 591 456 c 1xdc
EndSplineSet
Validated: 1
EndChar

StartChar: n
Encoding: 110 110 79
Width: 712
Flags: W
HStem: 0 21G<84 259 458 634> 428 132<344.641 504.5> 527 20G<84 259>
VStem: 84 175<0 369.368 467 547> 458 176<0 402.958>
LayerCount: 2
Fore
SplineSet
634 333 m 2xd8
 634 0 l 1
 458 0 l 1
 458 54 l 1
 458 255 l 2
 458 302 457 335 455 352 c 0
 453 370 449 383 444 392 c 0
 431 415 405 428 376 428 c 0xd8
 303 428 259 369 259 269 c 2
 259 0 l 1
 84 0 l 1
 84 547 l 1
 259 547 l 1xb8
 259 467 l 1
 311 531 369 560 441 560 c 0
 568 560 634 481 634 333 c 2xd8
EndSplineSet
Validated: 1
EndChar

StartChar: o
Encoding: 111 111 80
Width: 687
Flags: W
HStem: -14 125<275.98 411.63> 435 125<275.98 411.63>
VStem: 43 182<169.524 376.476> 462 182<169.524 376.476>
LayerCount: 2
Fore
SplineSet
344 435 m 0
 267 435 225 378 225 273 c 0
 225 168 267 111 344 111 c 0
 420 111 462 168 462 273 c 0
 462 378 420 435 344 435 c 0
344 560 m 0
 532 560 644 453 644 273 c 0
 644 93 532 -14 344 -14 c 0
 156 -14 43 93 43 273 c 0
 43 453 156 560 344 560 c 0
EndSplineSet
Validated: 1
Substitution2: "sous-table Substitution simple lookups10" ordmasculine
Substitution2: "sous-table 'aalt' Activer toutes les variantes dans Latin lookup 0" ordmasculine
EndChar

StartChar: p
Encoding: 112 112 81
Width: 716
Flags: W
HStem: -208 21G<84 259> -14 127<342.08 474.533> 433 127<342.08 474.533> 527 20G<84 259>
VStem: 84 175<-208 79 167.605 378.395 467 547> 490 181<167.457 378.125>
LayerCount: 2
Fore
SplineSet
259 79 m 1xec
 259 -208 l 1
 84 -208 l 1
 84 547 l 1
 259 547 l 1xdc
 259 467 l 1
 307 531 364 560 440 560 c 0
 507 560 563 533 606 479 c 0
 649 426 671 357 671 273 c 0
 671 188 649 119 606 66 c 0
 563 13 507 -14 440 -14 c 0
 364 -14 307 15 259 79 c 1xec
375 433 m 0xec
 300 433 259 377 259 273 c 0
 259 169 300 113 375 113 c 0
 450 113 490 169 490 273 c 0
 490 377 450 433 375 433 c 0xec
EndSplineSet
Validated: 1
EndChar

StartChar: q
Encoding: 113 113 82
Width: 716
Flags: W
HStem: -208 21G<456 632> -14 127<241.467 373.649> 433 126<241.467 373.649> 527 20G<456 632>
VStem: 45 181<167.457 378.125> 456 176<-208 79 167.605 378.395 466 547>
LayerCount: 2
Fore
SplineSet
341 433 m 0xec
 266 433 226 377 226 273 c 0
 226 169 266 113 341 113 c 0
 416 113 456 169 456 273 c 0
 456 377 416 433 341 433 c 0xec
456 79 m 1
 408 15 352 -14 276 -14 c 0
 209 -14 153 13 110 66 c 0
 67 119 45 188 45 273 c 0
 45 357 67 426 110 479 c 0
 153 532 209 559 276 559 c 0xec
 352 559 408 530 456 466 c 1
 456 547 l 1
 632 547 l 1xdc
 632 -208 l 1
 456 -208 l 1
 456 79 l 1
EndSplineSet
Validated: 1
EndChar

StartChar: r
Encoding: 114 114 83
Width: 493
Flags: W
HStem: 0 21G<84 259> 419 141<342.316 488.648> 527 20G<84 259>
VStem: 84 175<0 352.301 457 547>
LayerCount: 2
Fore
SplineSet
490 398 m 1xd0
 459 413 430 419 399 419 c 0xd0
 310 419 259 360 259 252 c 2
 259 0 l 1
 84 0 l 1
 84 547 l 1
 259 547 l 1xb0
 259 457 l 1
 303 529 360 560 441 560 c 0
 453 560 463 560 490 556 c 1
 490 398 l 1xd0
EndSplineSet
Validated: 1
EndChar

StartChar: s
Encoding: 115 115 84
Width: 595
Flags: W
HStem: -14 116<132.038 365.512> 444 116<217.105 439.721>
VStem: 52 154<360.007 429.828> 382 166<119.53 195.67>
LayerCount: 2
Fore
SplineSet
511 530 m 1
 511 397 l 1
 436 428 367 444 304 444 c 0
 237 444 206 428 206 393 c 0
 206 365 227 352 290 344 c 2
 321 340 l 2
 410 329 470 310 501 284 c 0
 532 258 548 217 548 161 c 0
 548 45 462 -14 291 -14 c 0
 219 -14 141 -3 60 20 c 1
 60 153 l 1
 129 118 203 102 279 102 c 0
 347 102 382 121 382 158 c 0
 382 190 364 203 293 211 c 1
 262 215 l 2
 107 234 52 282 52 389 c 0
 52 505 130 560 294 560 c 0
 358 560 428 550 511 530 c 1
EndSplineSet
Validated: 1
EndChar

StartChar: t
Encoding: 116 116 85
Width: 478
Flags: W
HStem: 0 125<283.655 440> 422 125<13 100 275 455>
VStem: 100 175<136.477 422 547 702>
LayerCount: 2
Fore
SplineSet
275 702 m 1
 275 547 l 1
 455 547 l 1
 455 422 l 1
 275 422 l 1
 275 190 l 2
 275 139 290 125 350 125 c 2
 440 125 l 1
 440 0 l 1
 290 0 l 2
 153 0 100 51 100 190 c 2
 100 422 l 1
 13 422 l 1
 13 547 l 1
 100 547 l 1
 100 702 l 1
 275 702 l 1
EndSplineSet
Validated: 1
EndChar

StartChar: u
Encoding: 117 117 86
Width: 712
Flags: W
HStem: -14 132<208.5 367.427> 0 21G<453 628> 527 20G<78 254 453 628>
VStem: 78 175<148.717 547> 453 175<0 79 176.632 547>
LayerCount: 2
Fore
SplineSet
78 213 m 2xb8
 78 547 l 1
 254 547 l 1
 254 492 l 2
 254 463 254 425 253 380 c 1
 253 291 l 2
 253 203 257 171 268 154 c 0
 283 131 305 118 336 118 c 0xb8
 409 118 453 177 453 277 c 2
 453 547 l 1
 628 547 l 1
 628 0 l 1
 453 0 l 1x78
 453 79 l 1
 401 15 343 -14 272 -14 c 0
 145 -14 78 65 78 213 c 2xb8
EndSplineSet
Validated: 1
EndChar

StartChar: v
Encoding: 118 118 87
Width: 652
Flags: W
HStem: 0 21G<222.139 429.861> 527 20G<15 197.196 454.804 637>
LayerCount: 2
Fore
SplineSet
15 547 m 1
 190 547 l 1
 326 169 l 1
 462 547 l 1
 637 547 l 1
 422 0 l 1
 230 0 l 1
 15 547 l 1
EndSplineSet
Validated: 1
EndChar

StartChar: w
Encoding: 119 119 88
Width: 924
Flags: W
HStem: 0 21G<173.735 374.894 549.106 750.265> 527 20G<35 209.881 384.119 539.933 714.067 889>
LayerCount: 2
Fore
SplineSet
35 547 m 1
 205 547 l 1
 297 170 l 1
 389 547 l 1
 535 547 l 1
 627 174 l 1
 719 547 l 1
 889 547 l 1
 745 0 l 1
 554 0 l 1
 462 376 l 1
 370 0 l 1
 179 0 l 1
 35 547 l 1
EndSplineSet
Validated: 1
EndChar

StartChar: x
Encoding: 120 120 89
Width: 645
Flags: W
HStem: 0 21G<15 214.104 430.78 630> 527 20G<25 223.827 421.049 620>
LayerCount: 2
Fore
SplineSet
222 280 m 1
 25 547 l 1
 210 547 l 1
 322 385 l 1
 435 547 l 1
 620 547 l 1
 423 281 l 1
 630 0 l 1
 445 0 l 1
 322 173 l 1
 200 0 l 1
 15 0 l 1
 222 280 l 1
EndSplineSet
Validated: 1
EndChar

StartChar: y
Encoding: 121 121 90
Width: 652
Flags: W
HStem: -216 115<100 228.429> 527 20G<12 194.925 452.261 634>
LayerCount: 2
Fore
SplineSet
12 547 m 1
 187 547 l 1
 334 176 l 1
 459 547 l 1
 634 547 l 1
 404 -52 l 2
 381 -113 354 -155 323 -179 c 0
 292 -204 252 -216 201 -216 c 2
 100 -216 l 1
 100 -101 l 1
 155 -101 l 2
 214 -101 236 -85 251 -36 c 1
 256 -21 l 1
 12 547 l 1
EndSplineSet
Validated: 1
EndChar

StartChar: z
Encoding: 122 122 91
Width: 582
Flags: W
HStem: 0 125<246 534> 422 125<57 333>
LayerCount: 2
Fore
SplineSet
57 547 m 1
 534 547 l 1
 534 425 l 1
 246 125 l 1
 534 125 l 1
 534 0 l 1
 45 0 l 1
 45 122 l 1
 333 422 l 1
 57 422 l 1
 57 547 l 1
EndSplineSet
Validated: 1
EndChar

StartChar: braceleft
Encoding: 123 123 92
Width: 712
Flags: W
HStem: -163 110<468.009 587> 241 109<125 242.828> 650 110<468.009 587>
VStem: 277 166<-31.6233 205.062 384.678 628.623>
LayerCount: 2
Fore
SplineSet
587 -53 m 1
 587 -163 l 1
 481 -163 l 2
 340 -163 277 -108 277 17 c 2
 277 111 l 2
 277 208 247 241 155 241 c 2
 125 241 l 1
 125 350 l 1
 155 350 l 2
 247 350 277 383 277 480 c 2
 277 580 l 2
 277 705 340 760 481 760 c 2
 587 760 l 1
 587 650 l 1
 553 650 l 2
 507 650 477 643 463 628 c 0
 450 614 443 584 443 538 c 2
 443 457 l 2
 443 354 417 315 345 299 c 1
 417 282 443 241 443 140 c 2
 443 59 l 2
 443 12 450 -18 463 -32 c 0
 477 -46 507 -53 553 -53 c 2
 587 -53 l 1
EndSplineSet
Validated: 1
EndChar

StartChar: bar
Encoding: 124 124 93
Width: 365
Flags: W
HStem: 744 20G<127 238>
VStem: 127 111<-236 764>
LayerCount: 2
Fore
SplineSet
238 764 m 1
 238 -236 l 1
 127 -236 l 1
 127 764 l 1
 238 764 l 1
EndSplineSet
Validated: 1
EndChar

StartChar: braceright
Encoding: 125 125 94
Width: 712
Flags: W
HStem: -163 110<125 243.991> 241 109<469.172 587> 650 110<125 243.991>
VStem: 269 166<-31.6233 205.062 384.678 628.623>
LayerCount: 2
Fore
SplineSet
125 -53 m 1
 159 -53 l 2
 205 -53 235 -46 248 -32 c 0
 262 -18 269 12 269 59 c 2
 269 140 l 2
 269 241 295 282 367 299 c 1
 295 315 269 354 269 457 c 2
 269 538 l 2
 269 584 262 614 248 628 c 1
 235 643 205 650 159 650 c 2
 125 650 l 1
 125 760 l 1
 231 760 l 2
 372 760 435 705 435 580 c 2
 435 480 l 2
 435 383 465 350 557 350 c 2
 587 350 l 1
 587 241 l 1
 557 241 l 2
 465 241 435 208 435 111 c 2
 435 17 l 2
 435 -108 372 -163 231 -163 c 2
 125 -163 l 1
 125 -53 l 1
EndSplineSet
Validated: 1
EndChar

StartChar: asciitilde
Encoding: 126 126 95
Width: 838
Flags: W
HStem: 223 114<458.339 646.877> 290 114<190.353 379.661>
LayerCount: 2
Fore
SplineSet
732 415 m 1x80
 732 296 l 1
 663 244 609 223 546 223 c 0x80
 511 223 471 232 424 251 c 0
 419 253 416 255 413 256 c 0
 411 257 407 258 402 260 c 0
 352 280 312 290 281 290 c 0
 224 290 170 265 106 212 c 1
 106 331 l 1
 175 383 229 404 292 404 c 0x40
 327 404 367 394 414 375 c 0
 419 374 422 372 425 371 c 0
 427 370 431 369 436 367 c 0
 486 347 526 337 557 337 c 0
 613 337 665 360 732 415 c 1x80
EndSplineSet
Validated: 1
EndChar

StartChar: Euro
Encoding: 8364 8364 96
Width: 696
Flags: W
HStem: -14 128<363.147 548.584> 233 95<24 72 280 426> 401 95<24 72 280 501> 614 128<362.302 548.981>
VStem: 71 188<328 401>
LayerCount: 2
Fore
SplineSet
629 40 m 1
 568 4 499 -14 427 -14 c 0
 256 -14 136 73 87 233 c 1
 -19 233 l 1
 24 328 l 1
 72 328 l 1
 71 337 71 345 71 364 c 0
 71 383 71 392 72 401 c 1
 -19 401 l 1
 24 496 l 1
 87 496 l 1
 138 656 256 742 427 742 c 0
 499 742 568 724 629 688 c 1
 629 537 l 1
 576 588 516 614 451 614 c 0
 368 614 309 573 280 496 c 1
 543 496 l 1
 501 401 l 1
 260 401 l 1
 259 390 259 381 259 358 c 0
 259 350 259 339 260 328 c 1
 469 328 l 1
 426 233 l 1
 280 233 l 1
 312 153 370 114 451 114 c 0
 516 114 574 139 629 191 c 1
 629 40 l 1
EndSplineSet
Validated: 1
EndChar

StartChar: quotesinglbase
Encoding: 8218 8218 97
Width: 380
Flags: W
HStem: -122 311<121 175>
VStem: 121 166<50 189>
LayerCount: 2
Fore
SplineSet
121 189 m 1
 287 189 l 1
 287 50 l 1
 175 -122 l 1
 72 -122 l 1
 121 50 l 1
 121 189 l 1
EndSplineSet
Validated: 1
EndChar

StartChar: florin
Encoding: 402 402 98
Width: 696
Flags: W
HStem: -208 116<13.5614 146.064> 321 116<132 250 446 585> 644 116<508.2 641.151>
LayerCount: 2
Fore
SplineSet
652 740 m 1
 652 616 l 1
 621 635 595 644 568 644 c 0
 509 644 479 611 462 519 c 2
 446 437 l 1
 585 437 l 1
 585 321 l 1
 423 321 l 1
 358 -8 l 2
 331 -141 257 -208 133 -208 c 0
 90 -208 47 -201 3 -188 c 1
 3 -64 l 1
 32 -83 60 -92 87 -92 c 0
 144 -92 174 -59 193 33 c 2
 250 321 l 1
 132 321 l 1
 132 437 l 1
 273 437 l 1
 298 560 l 2
 325 695 398 760 522 760 c 0
 565 760 608 753 652 740 c 1
EndSplineSet
Validated: 1
EndChar

StartChar: quotedblbase
Encoding: 8222 8222 99
Width: 657
Flags: W
HStem: -122 311<287 341 534 589>
VStem: 121 166<50 189> 368 166<49 189>
LayerCount: 2
Fore
SplineSet
121 189 m 1
 287 189 l 1
 287 50 l 1
 175 -122 l 1
 72 -122 l 1
 121 50 l 1
 121 189 l 1
368 189 m 1
 534 189 l 1
 534 49 l 1
 423 -122 l 1
 319 -122 l 1
 368 49 l 1
 368 189 l 1
EndSplineSet
Validated: 1
EndChar

StartChar: ellipsis
Encoding: 8230 8230 100
Width: 1000
Flags: W
HStem: 0 189<79 255 412 588 745 921>
VStem: 79 176<0 189> 412 176<0 189> 745 176<0 189>
CounterMasks: 1 70
LayerCount: 2
Fore
SplineSet
745 189 m 1
 921 189 l 1
 921 0 l 1
 745 0 l 1
 745 189 l 1
79 189 m 1
 255 189 l 1
 255 0 l 1
 79 0 l 1
 79 189 l 1
412 189 m 1
 588 189 l 1
 588 0 l 1
 412 0 l 1
 412 189 l 1
EndSplineSet
Validated: 1
EndChar

StartChar: dagger
Encoding: 8224 8224 101
Width: 500
Flags: W
HStem: 427 116<26 167 328 470> 709 20G<167 328>
VStem: 167 161<-96 427 543 729>
LayerCount: 2
Fore
SplineSet
167 729 m 1
 328 729 l 1
 328 543 l 1
 470 543 l 1
 470 427 l 1
 328 427 l 1
 328 -96 l 1
 167 -96 l 1
 167 427 l 1
 26 427 l 1
 26 543 l 1
 167 543 l 1
 167 729 l 1
EndSplineSet
Validated: 1
EndChar

StartChar: daggerdbl
Encoding: 8225 8225 102
Width: 500
Flags: W
HStem: 90 116<25 167 328 470> 427 116<26 167 328 470> 709 20G<167 328>
VStem: 167 161<-96 90 206 427 543 729>
LayerCount: 2
Fore
SplineSet
167 729 m 1
 328 729 l 1
 328 543 l 1
 470 543 l 1
 470 427 l 1
 328 427 l 1
 328 206 l 1
 470 206 l 1
 470 90 l 1
 328 90 l 1
 328 -96 l 1
 167 -96 l 1
 167 90 l 1
 25 90 l 1
 25 206 l 1
 167 206 l 1
 167 427 l 1
 26 427 l 1
 26 543 l 1
 167 543 l 1
 167 729 l 1
EndSplineSet
Validated: 1
EndChar

StartChar: circumflex
Encoding: 710 710 103
Width: 500
Flags: W
HStem: 616 184
LayerCount: 2
Fore
SplineSet
191 800 m 1
 309 800 l 1
 434 616 l 1
 347 616 l 1
 250 726 l 1
 153 616 l 1
 66 616 l 1
 191 800 l 1
EndSplineSet
Validated: 1
EndChar

StartChar: perthousand
Encoding: 8240 8240 104
Width: 1440
Flags: W
HStem: -14 83<726.933 820.316 1173.93 1267.32> 301 82<726.933 820.316 1173.93 1267.32> 345 82<181.492 272.508> 660 82<178.96 275.04>
VStem: 32 122<455.117 632.522> 300 122<455.117 632.522> 579 123<96.3909 273.522> 847 123<95.5399 274.373> 1026 123<96.3909 273.522> 1294 123<95.5399 274.373>
LayerCount: 2
Fore
SplineSet
1222 301 m 0xdfc0
 1175 301 1149 260 1149 185 c 0
 1149 110 1175 69 1222 69 c 0
 1269 69 1294 110 1294 185 c 0
 1294 260 1269 301 1222 301 c 0xdfc0
1222 383 m 0
 1343 383 1417 308 1417 185 c 0
 1417 62 1343 -14 1222 -14 c 0
 1101 -14 1026 62 1026 185 c 0
 1026 308 1101 383 1222 383 c 0
227 660 m 0
 180 660 154 619 154 544 c 0
 154 469 180 427 227 427 c 0xbfc0
 274 427 300 469 300 544 c 0
 300 619 274 660 227 660 c 0
227 742 m 0
 348 742 422 667 422 544 c 0
 422 421 348 345 227 345 c 0
 106 345 32 421 32 544 c 0
 32 667 106 742 227 742 c 0
327 -14 m 1
 219 -14 l 1
 675 742 l 1
 783 742 l 1
 327 -14 l 1
775 383 m 0xdfc0
 896 383 970 308 970 185 c 0
 970 62 896 -14 775 -14 c 0
 654 -14 579 62 579 185 c 0
 579 308 654 383 775 383 c 0xdfc0
775 301 m 0
 728 301 702 260 702 185 c 0
 702 110 728 69 775 69 c 0
 822 69 847 110 847 185 c 0
 847 260 822 301 775 301 c 0
EndSplineSet
Validated: 1
Ligature2: "sous-table Remplacement de ligature lookups11" zero fraction zero zero
Ligature2: "sous-table Remplacement de ligature lookups11" zero slash zero zero
EndChar

StartChar: Scaron
Encoding: 352 352 105
Width: 720
Flags: W
HStem: -14 136<204.792 434.266> 552 21G<559 599> 606 136<272.597 511.079>
VStem: 72 170<484.896 579.498> 466 181<153.526 251.91>
LayerCount: 2
Fore
SplineSet
599 706 m 1
 599 552 l 1
 519 588 442 606 374 606 c 0
 285 606 242 582 242 530 c 0
 242 490 267 472 343 456 c 2
 423 440 l 2
 584 408 647 347 647 224 c 0
 647 64 553 -14 357 -14 c 0
 265 -14 171 3 78 38 c 1
 78 197 l 1
 171 148 258 122 339 122 c 0
 420 122 466 150 466 201 c 0
 466 246 443 267 355 287 c 2
 282 303 l 2
 137 335 72 400 72 516 c 0
 72 661 168 742 344 742 c 0
 424 742 508 730 599 706 c 1
273 798 m 1
 164 927 l 1
 251 927 l 1
 348 848 l 1
 445 927 l 1
 532 927 l 1
 423 798 l 1
 273 798 l 1
EndSplineSet
Validated: 1
Position2: "sous-table 'cpsp' Chasses pour composition en capitales dans Latin lookup 1" dx=5 dy=0 dh=10 dv=0
EndChar

StartChar: guilsinglleft
Encoding: 8249 8249 106
Width: 412
Flags: W
VStem: 77 241
LayerCount: 2
Fore
SplineSet
318 519 m 1
 318 401 l 1
 175 293 l 1
 318 185 l 1
 318 67 l 1
 77 247 l 1
 77 338 l 1
 318 519 l 1
EndSplineSet
Validated: 1
EndChar

StartChar: OE
Encoding: 338 338 107
Width: 1167
Flags: W
HStem: 0 142<383.237 576 764 1094> 309 142<764 1064> 587 142<383.237 576 764 1083>
VStem: 50 194<262.343 467.537> 576 188<142 309 451 587>
LayerCount: 2
Fore
SplineSet
576 587 m 1
 525 587 l 2
 337 587 244 514 244 365 c 0
 244 216 337 142 525 142 c 2
 576 142 l 1
 576 587 l 1
532 729 m 2
 1083 729 l 1
 1083 587 l 1
 764 587 l 1
 764 451 l 1
 1064 451 l 1
 1064 309 l 1
 764 309 l 1
 764 142 l 1
 1094 142 l 1
 1094 0 l 1
 532 0 l 2
 524 0 505 -1 497 -1 c 0
 209 -1 50 130 50 365 c 0
 50 600 209 730 497 730 c 0
 504 730 524 729 532 729 c 2
EndSplineSet
Validated: 1
Ligature2: "sous-table 'dpng' Dipthongs (Obsolete) dans Latin lookup 9" O e
Ligature2: "sous-table 'dpng' Dipthongs (Obsolete) dans Latin lookup 9" O E
Position2: "sous-table 'cpsp' Chasses pour composition en capitales dans Latin lookup 1" dx=5 dy=0 dh=10 dv=0
EndChar

StartChar: quoteleft
Encoding: 8216 8216 108
Width: 380
Flags: W
HStem: 418 311<214 269>
VStem: 103 166<418 557>
LayerCount: 2
Fore
SplineSet
269 418 m 1
 103 418 l 1
 103 557 l 1
 214 729 l 1
 318 729 l 1
 269 557 l 1
 269 418 l 1
EndSplineSet
Validated: 1
EndChar

StartChar: quoteright
Encoding: 8217 8217 109
Width: 380
Flags: W
HStem: 418 311<112 167>
VStem: 112 166<590 729>
LayerCount: 2
Fore
SplineSet
112 729 m 1
 278 729 l 1
 278 590 l 1
 167 418 l 1
 63 418 l 1
 112 590 l 1
 112 729 l 1
EndSplineSet
Validated: 1
EndChar

StartChar: quotedblleft
Encoding: 8220 8220 110
Width: 657
Flags: W
HStem: 418 311<214 269 461 516>
VStem: 103 166<418 557> 350 166<418 556>
LayerCount: 2
Fore
SplineSet
516 418 m 1
 350 418 l 1
 350 556 l 1
 461 729 l 1
 565 729 l 1
 516 556 l 1
 516 418 l 1
269 418 m 1
 103 418 l 1
 103 557 l 1
 214 729 l 1
 318 729 l 1
 269 557 l 1
 269 418 l 1
EndSplineSet
Validated: 1
EndChar

StartChar: quotedblright
Encoding: 8221 8221 111
Width: 657
Flags: W
HStem: 418 311<141 196 388 443>
VStem: 141 166<590 729> 388 166<589 729>
LayerCount: 2
Fore
SplineSet
141 729 m 1
 307 729 l 1
 307 590 l 1
 196 418 l 1
 92 418 l 1
 141 590 l 1
 141 729 l 1
388 729 m 1
 554 729 l 1
 554 589 l 1
 443 418 l 1
 339 418 l 1
 388 589 l 1
 388 729 l 1
EndSplineSet
Validated: 1
EndChar

StartChar: bullet
Encoding: 8226 8226 112
Width: 639
Flags: W
HStem: 196 351<236.08 404.485>
VStem: 144 351<286.515 456.779>
LayerCount: 2
Fore
SplineSet
144 372 m 0
 144 420 162 464 195 496 c 0
 230 529 272 547 320 547 c 0
 367 547 411 529 444 496 c 0
 477 463 495 420 495 372 c 0
 495 324 477 280 444 247 c 0
 411 214 367 196 319 196 c 0
 271 196 228 214 195 247 c 0
 162 280 144 324 144 372 c 0
EndSplineSet
Validated: 1
EndChar

StartChar: endash
Encoding: 8211 8211 113
Width: 500
Flags: W
HStem: 211 126<0 500>
LayerCount: 2
Fore
SplineSet
0 337 m 1
 500 337 l 1
 500 211 l 1
 0 211 l 1
 0 337 l 1
EndSplineSet
Validated: 1
EndChar

StartChar: emdash
Encoding: 8212 8212 114
Width: 1000
Flags: W
HStem: 211 126<0 1000>
LayerCount: 2
Fore
SplineSet
0 337 m 1
 1000 337 l 1
 1000 211 l 1
 0 211 l 1
 0 337 l 1
EndSplineSet
Validated: 1
EndChar

StartChar: tilde
Encoding: 732 732 115
Width: 500
Flags: W
HStem: 638 76<269.472 345.668> 702 76<154.298 229.672>
VStem: 80 68<639 698.266> 352 68<717.734 777>
LayerCount: 2
Fore
SplineSet
251 666 m 2xb0
 224 684 l 2
 223 685 221 686 219 687 c 0
 204 697 192 702 184 702 c 0
 161 702 148 682 148 643 c 2
 148 639 l 1
 80 639 l 1
 80 728 115 778 176 778 c 0x70
 199 778 222 770 249 750 c 2
 279 729 l 1
 294 720 306 714 315 714 c 0
 339 714 352 736 352 773 c 2
 352 777 l 1
 420 777 l 1
 420 688 385 638 324 638 c 0
 301 638 282 645 251 666 c 2xb0
EndSplineSet
Validated: 1
EndChar

StartChar: trademark
Encoding: 8482 8482 116
Width: 1000
Flags: W
HStem: 447 282<228 312 452 536 707 790> 659 70<144 228 312 397>
VStem: 228 84<447 659> 452 84<447 660> 707 83<447 660>
LayerCount: 2
Fore
SplineSet
563 729 m 1x78
 621 618 l 1
 679 729 l 1x78
 790 729 l 1
 790 447 l 1
 707 447 l 1
 707 660 l 1
 640 535 l 1
 603 535 l 1
 536 660 l 1
 536 447 l 1
 452 447 l 1
 452 729 l 1xb8
 563 729 l 1x78
397 729 m 1
 397 659 l 1
 312 659 l 1x78
 312 447 l 1
 228 447 l 1xb8
 228 659 l 1
 144 659 l 1
 144 729 l 1
 397 729 l 1
EndSplineSet
Validated: 1
EndChar

StartChar: scaron
Encoding: 353 353 117
Width: 595
Flags: W
HStem: -14 116<132.038 365.512> 444 116<217.105 439.721>
VStem: 52 154<360.007 429.828> 382 166<119.53 195.67>
LayerCount: 2
Fore
SplineSet
511 530 m 1
 511 397 l 1
 436 428 367 444 304 444 c 0
 237 444 206 428 206 393 c 0
 206 365 227 352 290 344 c 2
 321 340 l 2
 410 329 470 310 501 284 c 0
 532 258 548 217 548 161 c 0
 548 45 462 -14 291 -14 c 0
 219 -14 141 -3 60 20 c 1
 60 153 l 1
 129 118 203 102 279 102 c 0
 347 102 382 121 382 158 c 0
 382 190 364 203 293 211 c 1
 262 215 l 2
 107 234 52 282 52 389 c 0
 52 505 130 560 294 560 c 0
 358 560 428 550 511 530 c 1
239 616 m 1
 114 800 l 1
 201 800 l 1
 298 689 l 1
 395 800 l 1
 482 800 l 1
 357 616 l 1
 239 616 l 1
EndSplineSet
Validated: 1
EndChar

StartChar: guilsinglright
Encoding: 8250 8250 118
Width: 412
Flags: W
VStem: 94 241
LayerCount: 2
Fore
SplineSet
94 519 m 1
 335 338 l 1
 335 247 l 1
 94 67 l 1
 94 185 l 1
 237 293 l 1
 94 401 l 1
 94 519 l 1
EndSplineSet
Validated: 1
EndChar

StartChar: oe
Encoding: 339 339 119
Width: 1094
Flags: W
HStem: -14 125<275.98 412.254> -14 116<697.852 917.097> 225 108<639 866> 435 125<275.98 410.928> 444 116<687.376 826.501>
VStem: 43 182<169.524 376.476> 462 175<168.764 225 333 378.11>
LayerCount: 2
Fore
SplineSet
866 333 m 1x2e
 866 400 824 444 761 444 c 0
 693 444 650 405 639 333 c 1
 866 333 l 1x2e
1046 275 m 2
 1046 225 l 1
 637 225 l 1
 646 144 697 102 788 102 c 0
 861 102 939 124 1020 168 c 1
 1020 33 l 1
 937 2 853 -14 772 -14 c 0x6e
 664 -14 599 11 552 68 c 1
 499 13 429 -14 344 -14 c 0
 156 -14 43 93 43 273 c 0
 43 453 156 560 344 560 c 0xb6
 432 560 497 534 550 478 c 1
 603 535 665 560 753 560 c 0
 844 560 915 534 967 483 c 0
 1020 432 1046 363 1046 275 c 2
344 435 m 0xb6
 267 435 225 378 225 273 c 0
 225 168 267 111 344 111 c 0
 420 111 462 168 462 273 c 0
 462 378 420 435 344 435 c 0xb6
EndSplineSet
Validated: 1
Ligature2: "sous-table 'dpng' Dipthongs (Obsolete) dans Latin lookup 9" o e
EndChar

StartChar: Ydieresis
Encoding: 376 376 120
Width: 724
Flags: W
HStem: 0 21G<268 456> 709 20G<-10 208.769 515.231 734> 807 120<196 311 389 504>
VStem: 196 115<807 927> 268 188<0 307> 389 115<807 927>
LayerCount: 2
Fore
SplineSet
-10 729 m 1xe8
 196 729 l 1xf0
 362 469 l 1
 528 729 l 1
 734 729 l 1
 456 307 l 1
 456 0 l 1
 268 0 l 1
 268 307 l 1
 -10 729 l 1xe8
196 927 m 1
 311 927 l 1
 311 807 l 1
 196 807 l 1
 196 927 l 1
389 927 m 1xe4
 504 927 l 1
 504 807 l 1
 389 807 l 1
 389 927 l 1xe4
EndSplineSet
Validated: 1
Position2: "sous-table 'cpsp' Chasses pour composition en capitales dans Latin lookup 1" dx=5 dy=0 dh=10 dv=0
EndChar

StartChar: exclamdown
Encoding: 161 161 121
Width: 456
Flags: W
HStem: 0 21G<140 316> 555 174<140 316>
VStem: 140 176<0 337.12 555 729>
LayerCount: 2
Fore
SplineSet
140 0 m 1
 140 280 l 1
 165 484 l 1
 291 484 l 1
 316 280 l 1
 316 0 l 1
 140 0 l 1
140 555 m 1
 140 729 l 1
 316 729 l 1
 316 555 l 1
 140 555 l 1
EndSplineSet
Validated: 1
Position2: "sous-table 'cpsp' Chasses pour composition en capitales dans Latin lookup 1" dx=5 dy=0 dh=10 dv=0
EndChar

StartChar: cent
Encoding: 162 162 122
Width: 696
Flags: W
HStem: -14 125<422 524.206> 435 124<422 520.179>
VStem: 85 182<179.801 364.958> 343 79<-153 -14 127 419 559 699>
LayerCount: 2
Fore
SplineSet
343 419 m 1
 292 390 267 344 267 273 c 0
 267 202 292 154 343 127 c 1
 343 419 l 1
567 530 m 1
 567 387 l 1
 519 419 472 435 429 435 c 2
 422 435 l 1
 422 111 l 1
 479 112 530 128 567 159 c 1
 567 16 l 1
 512 -4 464 -14 427 -14 c 2
 422 -14 l 1
 422 -153 l 1
 343 -153 l 1
 343 -12 l 1
 172 13 85 113 85 281 c 0
 85 440 175 536 343 559 c 1
 343 699 l 1
 422 699 l 1
 422 559 l 1
 469 558 516 547 567 530 c 1
EndSplineSet
Validated: 1
EndChar

StartChar: sterling
Encoding: 163 163 123
Width: 696
Flags: W
HStem: 0 130<61 172 350 613> 289 117<77 172 350 532> 614 128<388.465 571.776>
VStem: 172 178<130 289 406 571.088>
LayerCount: 2
Fore
SplineSet
607 716 m 1
 607 576 l 1
 562 601 512 614 463 614 c 0
 386 614 350 574 350 489 c 2
 350 406 l 1
 532 406 l 1
 532 289 l 1
 350 289 l 1
 350 130 l 1
 613 130 l 1
 613 0 l 1
 61 0 l 1
 61 130 l 1
 172 130 l 1
 172 289 l 1
 77 289 l 1
 77 406 l 1
 172 406 l 1
 172 489 l 2
 172 665 251 742 430 742 c 0
 490 742 548 733 607 716 c 1
EndSplineSet
Validated: 1
EndChar

StartChar: currency
Encoding: 164 164 124
Width: 636
Flags: W
HStem: 104 102<253.648 383.113> 420 102<254.518 383.423>
VStem: 110 102<248.267 377.636> 426 102<248.672 377.64>
LayerCount: 2
Fore
SplineSet
212 131 m 1
 111 30 l 1
 36 105 l 1
 137 206 l 1
 120 238 110 272 110 313 c 0
 110 354 120 388 139 419 c 1
 37 519 l 1
 112 594 l 1
 213 493 l 1
 244 513 279 522 319 522 c 0
 354 522 389 514 426 495 c 1
 527 596 l 1
 601 521 l 1
 500 420 l 1
 519 384 528 348 528 313 c 0
 528 272 519 239 499 208 c 1
 600 107 l 1
 525 32 l 1
 424 133 l 1
 393 113 360 104 319 104 c 0
 282 104 247 112 212 131 c 1
319 206 m 0
 378 206 426 253 426 313 c 0
 426 373 379 420 319 420 c 0
 259 420 212 373 212 313 c 0
 212 253 258 206 319 206 c 0
EndSplineSet
Validated: 1
EndChar

StartChar: yen
Encoding: 165 165 125
Width: 696
Flags: W
HStem: 0 21G<255 441> 203 95<33 255 441 663> 372 94<33 176 520 663> 709 20G<12 219.533 476.467 684>
VStem: 255 186<0 203 298 330>
LayerCount: 2
Fore
SplineSet
663 203 m 1
 441 203 l 1
 441 0 l 1
 255 0 l 1
 255 203 l 1
 33 203 l 1
 33 298 l 1
 255 298 l 1
 255 330 l 1
 231 372 l 1
 33 372 l 1
 33 466 l 1
 176 466 l 1
 12 729 l 1
 207 729 l 1
 348 504 l 1
 489 729 l 1
 684 729 l 1
 520 466 l 1
 663 466 l 1
 663 372 l 1
 465 372 l 1
 441 330 l 1
 441 298 l 1
 663 298 l 1
 663 203 l 1
EndSplineSet
Validated: 1
EndChar

StartChar: brokenbar
Encoding: 166 166 126
Width: 365
Flags: W
VStem: 127 111<-171 199 329 699>
LayerCount: 2
Fore
SplineSet
238 699 m 1
 238 329 l 1
 127 329 l 1
 127 699 l 1
 238 699 l 1
238 199 m 1
 238 -171 l 1
 127 -171 l 1
 127 199 l 1
 238 199 l 1
EndSplineSet
Validated: 1
EndChar

StartChar: section
Encoding: 167 167 127
Width: 500
Flags: W
HStem: -95 103<115.947 291.334> 641 101<214.978 386.766>
VStem: 7 139<294.803 389.862> 48 157<562.168 630.271> 299 159<18.8571 85.7074> 361 135<256.18 352.885>
LayerCount: 2
Fore
SplineSet
432 714 m 1xd0
 432 603 l 1
 368 628 316 641 279 641 c 0
 230 641 205 625 205 594 c 0
 205 573 236 549 297 523 c 0
 306 520 312 517 316 515 c 0
 384 486 431 458 457 429 c 0
 483 401 496 367 496 326 c 0xd4
 496 250 460 199 384 168 c 1
 433 141 458 105 458 57 c 0
 458 -38 375 -95 236 -95 c 0
 180 -95 123 -86 56 -67 c 1
 56 49 l 1
 131 22 192 8 229 8 c 0
 272 8 299 25 299 52 c 0
 299 75 270 98 211 122 c 0
 199 127 190 130 184 133 c 0
 52 189 7 242 7 326 c 0xe8
 7 394 43 444 116 477 c 1
 68 510 48 544 48 593 c 0
 48 686 127 742 258 742 c 0
 313 742 372 733 432 714 c 1xd0
212 418 m 1
 168 399 146 375 146 343 c 0xe4
 146 321 156 302 176 286 c 0
 196 270 236 251 295 230 c 1
 338 245 361 272 361 305 c 0
 361 349 320 381 212 418 c 1
EndSplineSet
Validated: 1
EndChar

StartChar: dieresis
Encoding: 168 168 128
Width: 500
Flags: W
HStem: 654 120<96 211 289 404>
VStem: 96 115<654 774> 289 115<654 774>
LayerCount: 2
Fore
SplineSet
96 774 m 1
 211 774 l 1
 211 654 l 1
 96 654 l 1
 96 774 l 1
289 774 m 1
 404 774 l 1
 404 654 l 1
 289 654 l 1
 289 774 l 1
EndSplineSet
Validated: 1
EndChar

StartChar: copyright
Encoding: 169 169 129
Width: 1000
Flags: W
HStem: 0 75<389.965 610.223> 153 91<461.892 625.675> 480 91<462.322 623.467> 650 75<389.965 609.848>
VStem: 138 74<252.322 472.065> 293 126<285.638 435.609> 788 74<252.322 472.065>
LayerCount: 2
Fore
SplineSet
646 550 m 1
 646 445 l 1
 609 469 573 480 536 480 c 0
 463 480 419 435 419 362 c 0
 419 287 461 244 536 244 c 0
 577 244 617 256 646 279 c 1
 646 175 l 1
 603 160 560 153 520 153 c 0
 451 153 396 172 355 210 c 0
 314 248 293 299 293 362 c 0
 293 425 314 476 355 514 c 0
 396 552 451 571 520 571 c 0
 565 571 606 565 646 550 c 1
500 650 m 0
 421 650 353 621 297 565 c 0
 240 508 212 441 212 362 c 0
 212 283 240 216 297 159 c 0
 353 103 421 75 500 75 c 0
 580 75 647 103 703 159 c 0
 760 216 788 283 788 362 c 0
 788 441 760 508 703 565 c 0
 646 622 579 650 500 650 c 0
500 725 m 0
 599 725 685 689 756 618 c 0
 827 547 862 462 862 362 c 0
 862 263 827 178 756 107 c 0
 685 36 599 0 500 0 c 0
 401 0 315 36 244 107 c 0
 173 178 138 263 138 362 c 0
 138 462 173 547 244 618 c 0
 315 689 401 725 500 725 c 0
EndSplineSet
Validated: 1
EndChar

StartChar: ordfeminine
Encoding: 170 170 130
Width: 564
Flags: W
HStem: 182 98<86 483> 340 79<208.833 314.835> 528 67<215.757 357> 661 81<140.969 342.855>
VStem: 77 121<428.893 512.085> 358 131<453.884 528 595 645.391> 369 120<350 412>
LayerCount: 2
Fore
SplineSet
86 280 m 1xf8
 483 280 l 1
 483 182 l 1
 86 182 l 1
 86 280 l 1xf8
314 528 m 2
 227 528 198 512 198 472 c 0
 198 439 220 419 259 419 c 0
 316 419 358 461 358 517 c 2
 358 528 l 1xfc
 314 528 l 2
489 569 m 2xfa
 489 350 l 1
 369 350 l 1
 369 412 l 1
 333 363 289 340 228 340 c 0
 133 340 77 386 77 462 c 0
 77 554 143 595 290 595 c 2
 357 595 l 1
 357 605 l 2
 357 641 327 661 272 661 c 0
 215 661 161 650 110 627 c 1
 110 715 l 1
 170 734 225 742 274 742 c 0
 419 742 489 686 489 569 c 2xfa
EndSplineSet
Validated: 1
EndChar

StartChar: guillemotleft
Encoding: 171 171 131
Width: 646
Flags: W
LayerCount: 2
Fore
SplineSet
318 519 m 1
 318 401 l 1
 175 293 l 1
 318 185 l 1
 318 67 l 1
 77 247 l 1
 77 338 l 1
 318 519 l 1
552 519 m 1
 552 401 l 1
 409 293 l 1
 552 185 l 1
 552 67 l 1
 311 247 l 1
 311 338 l 1
 552 519 l 1
EndSplineSet
Validated: 1
EndChar

StartChar: logicalnot
Encoding: 172 172 132
Width: 838
Flags: W
HStem: 328 116<106 617>
VStem: 617 115<140 328>
LayerCount: 2
Fore
SplineSet
106 444 m 1
 732 444 l 1
 732 140 l 1
 617 140 l 1
 617 328 l 1
 106 328 l 1
 106 444 l 1
EndSplineSet
Validated: 1
EndChar

StartChar: minus
Encoding: 8722 8722 133
Width: 838
Flags: W
HStem: 256 115<106 732>
LayerCount: 2
Fore
SplineSet
106 371 m 1
 732 371 l 1
 732 256 l 1
 106 256 l 1
 106 371 l 1
EndSplineSet
Validated: 1
EndChar

StartChar: registered
Encoding: 174 174 134
Width: 1000
Flags: W
HStem: 0 75<389.965 610.223> 339 66<455 493.88> 506 67<455 539.596> 650 75<389.965 609.848>
VStem: 138 74<252.322 472.065> 351 104<165 339 405 506> 549 112<417.036 494.007> 788 74<252.322 472.065>
LayerCount: 2
Fore
SplineSet
500 650 m 0
 421 650 353 621 297 565 c 0
 240 508 212 441 212 362 c 0
 212 283 240 216 297 159 c 0
 353 103 421 75 500 75 c 0
 580 75 647 103 703 159 c 0
 760 216 788 283 788 362 c 0
 788 441 760 508 703 565 c 0
 646 622 579 650 500 650 c 0
472 506 m 2
 455 506 l 1
 455 405 l 1
 472 405 l 2
 523 405 549 423 549 456 c 0
 549 489 524 506 472 506 c 2
490 573 m 2
 605 573 661 535 661 456 c 0
 661 400 626 362 563 351 c 1
 590 336 613 310 632 273 c 2
 686 165 l 1
 574 165 l 1
 522 269 l 2
 497 320 480 339 461 339 c 2
 455 339 l 1
 455 165 l 1
 351 165 l 1
 351 573 l 1
 490 573 l 2
500 725 m 0
 599 725 685 689 756 618 c 0
 827 547 862 462 862 362 c 0
 862 263 827 178 756 107 c 0
 685 36 599 0 500 0 c 0
 401 0 315 36 244 107 c 0
 173 178 138 263 138 362 c 0
 138 462 173 547 244 618 c 0
 315 689 401 725 500 725 c 0
EndSplineSet
Validated: 1
EndChar

StartChar: macron
Encoding: 175 175 135
Width: 500
Flags: W
HStem: 668 92<96 404>
VStem: 96 308<668 760>
LayerCount: 2
Fore
SplineSet
96 760 m 1
 404 760 l 1
 404 668 l 1
 96 668 l 1
 96 760 l 1
EndSplineSet
Validated: 1
EndChar

StartChar: degree
Encoding: 176 176 136
Width: 500
Flags: W
HStem: 424 79<192.805 306.732> 670 79<193.504 306.599>
VStem: 87 79<529.73 642.496> 334 78<530.229 642.802>
LayerCount: 2
Fore
SplineSet
250 670 m 0
 203 670 166 633 166 586 c 0
 166 539 202 503 250 503 c 0
 297 503 334 539 334 586 c 0
 334 633 297 670 250 670 c 0
250 749 m 0
 293 749 334 732 365 701 c 0
 396 670 412 630 412 586 c 0
 412 542 395 501 366 472 c 0
 335 441 293 424 249 424 c 0
 203 424 164 439 133 470 c 0
 102 501 87 540 87 586 c 0
 87 632 103 671 134 702 c 0
 165 733 204 749 250 749 c 0
EndSplineSet
Validated: 1
EndChar

StartChar: plusminus
Encoding: 177 177 137
Width: 838
Flags: W
HStem: 0 116<106 732> 339 115<106 361 477 732>
VStem: 361 116<166 339 454 627>
LayerCount: 2
Fore
SplineSet
477 627 m 1
 477 454 l 1
 732 454 l 1
 732 339 l 1
 477 339 l 1
 477 166 l 1
 361 166 l 1
 361 339 l 1
 106 339 l 1
 106 454 l 1
 361 454 l 1
 361 627 l 1
 477 627 l 1
106 116 m 1
 732 116 l 1
 732 0 l 1
 106 0 l 1
 106 116 l 1
EndSplineSet
Validated: 1
EndChar

StartChar: twosuperior
Encoding: 178 178 138
Width: 438
Flags: W
HStem: 326 82<201 382> 670 72<102.914 248.329>
VStem: 261 119<564.677 657.496>
LayerCount: 2
Fore
SplineSet
201 408 m 1
 382 408 l 1
 382 326 l 1
 53 326 l 1
 53 401 l 1
 206 531 l 2
 246 566 261 590 261 615 c 0
 261 648 236 670 197 670 c 0
 157 670 111 656 56 625 c 1
 56 716 l 1
 113 733 166 742 215 742 c 0
 318 742 380 697 380 625 c 0
 380 578 361 545 296 489 c 2
 201 408 l 1
EndSplineSet
Validated: 1
EndChar

StartChar: threesuperior
Encoding: 179 179 139
Width: 438
Flags: W
HStem: 319 71<72.757 246.712> 511 67<121 244.673> 670 72<69.3886 245.426>
VStem: 254 119<590.222 660.29> 265 119<408.526 493.033>
LayerCount: 2
Fore
SplineSet
289 547 m 1xf0
 349 535 384 497 384 445 c 0
 384 361 320 319 189 319 c 0
 136 319 88 326 44 341 c 1
 44 426 l 1
 87 402 129 390 168 390 c 0
 229 390 265 411 265 450 c 0xe8
 265 491 232 511 157 511 c 2
 121 511 l 1
 121 578 l 1
 162 578 l 2
 226 578 254 593 254 626 c 0
 254 655 229 670 177 670 c 0
 142 670 102 661 57 644 c 1
 57 725 l 1
 100 736 149 742 205 742 c 0
 314 742 373 705 373 636 c 0
 373 592 342 559 289 547 c 1xf0
EndSplineSet
Validated: 1
EndChar

StartChar: acute
Encoding: 180 180 140
Width: 500
Flags: W
HStem: 616 184
VStem: 178 276
LayerCount: 2
Fore
SplineSet
316 800 m 1
 454 800 l 1
 274 616 l 1
 178 616 l 1
 316 800 l 1
EndSplineSet
Validated: 1
EndChar

StartChar: mu
Encoding: 181 181 141
Width: 736
Flags: W
HStem: -209 21G<85 261> -14 131<291.378 428.145 581.5 702.901> 527 20G<85 261 459 635>
VStem: 85 176<-209 32 148.08 547> 459 176<148.559 547>
LayerCount: 2
Fore
SplineSet
85 -209 m 1
 85 547 l 1
 261 547 l 1
 261 229 l 2
 261 153 293 117 360 117 c 0
 427 117 459 153 459 229 c 2
 459 547 l 1
 635 547 l 1
 635 181 l 2
 635 134 645 119 670 119 c 0
 682 119 692 122 704 130 c 1
 704 8 l 1
 669 -7 640 -14 611 -14 c 0
 552 -14 518 8 495 63 c 1
 464 11 420 -14 363 -14 c 0
 315 -14 281 1 261 32 c 1
 261 -209 l 1
 85 -209 l 1
EndSplineSet
Validated: 1
EndChar

StartChar: paragraph
Encoding: 182 182 142
Width: 636
Flags: W
HStem: 657 72<364 456>
VStem: 63 301<427.043 618.306> 271 93<-96 319.631> 456 93<-96 657>
LayerCount: 2
Fore
SplineSet
295 729 m 2xd0
 549 729 l 1
 549 -96 l 1
 456 -96 l 1
 456 657 l 1
 364 657 l 1
 364 -96 l 1
 271 -96 l 1
 271 317 l 1xb0
 138 333 63 407 63 523 c 0
 63 585 84 635 126 672 c 0
 169 710 225 729 295 729 c 2xd0
EndSplineSet
Validated: 1
EndChar

StartChar: periodcentered
Encoding: 183 183 143
Width: 380
Flags: W
HStem: 253 189<102 278>
VStem: 102 176<253 442>
LayerCount: 2
Fore
SplineSet
102 442 m 1
 278 442 l 1
 278 253 l 1
 102 253 l 1
 102 442 l 1
EndSplineSet
Validated: 1
EndChar

StartChar: cedilla
Encoding: 184 184 144
Width: 500
Flags: W
HStem: -196 72<129.568 262.928> -20 20G<226 312.5>
VStem: 269 80<-116.145 -42.6728>
LayerCount: 2
Fore
SplineSet
294 0 m 1
 331 -40 349 -74 349 -105 c 0
 349 -166 310 -196 227 -196 c 0
 196 -196 163 -191 128 -183 c 1
 128 -109 l 1
 160 -120 188 -124 209 -124 c 0
 246 -124 269 -109 269 -82 c 0
 269 -65 255 -39 226 0 c 1
 294 0 l 1
EndSplineSet
Validated: 1
EndChar

StartChar: onesuperior
Encoding: 185 185 145
Width: 438
Flags: W
HStem: 326 77<69 170 282 382> 632 78<60 90.8> 714 20G<78.6667 282>
VStem: 170 112<403 657>
LayerCount: 2
Fore
SplineSet
69 403 m 1
 170 403 l 1
 170 657 l 1
 60 632 l 1
 60 710 l 1
 172 734 l 1
 282 734 l 1
 282 403 l 1
 382 403 l 1
 382 326 l 1
 69 326 l 1
 69 403 l 1
EndSplineSet
Validated: 1
EndChar

StartChar: ordmasculine
Encoding: 186 186 146
Width: 564
Flags: W
HStem: 182 98<81 483> 341 83<226.355 337.801> 659 83<226.355 337.645>
VStem: 57 140<455.719 626.609> 367 140<455.719 626.609>
LayerCount: 2
Fore
SplineSet
282 742 m 0
 421 742 507 665 507 541 c 0
 507 417 422 341 282 341 c 0
 143 341 57 417 57 541 c 0
 57 665 143 742 282 742 c 0
81 280 m 1
 483 280 l 1
 483 182 l 1
 81 182 l 1
 81 280 l 1
282 659 m 0
 227 659 197 617 197 541 c 0
 197 465 227 424 282 424 c 0
 337 424 367 465 367 541 c 0
 367 617 337 659 282 659 c 0
EndSplineSet
Validated: 1
EndChar

StartChar: guillemotright
Encoding: 187 187 147
Width: 646
Flags: W
LayerCount: 2
Fore
SplineSet
328 519 m 1
 569 338 l 1
 569 247 l 1
 328 67 l 1
 328 185 l 1
 471 293 l 1
 328 401 l 1
 328 519 l 1
94 519 m 1
 334 338 l 1
 334 247 l 1
 94 67 l 1
 94 185 l 1
 237 293 l 1
 94 401 l 1
 94 519 l 1
EndSplineSet
Validated: 1
EndChar

StartChar: onequarter
Encoding: 188 188 148
Width: 1035
Flags: W
HStem: 0 21G<249 370.063 778 890> 79 76<661 778 890 957> 326 77<58 158 270 370> 632 78<49 79.52> 722 12G<67.6667 270 692.937 814>
VStem: 158 112<403 657> 778 112<0 79 155 313>
LayerCount: 2
Fore
SplineSet
778 313 m 1
 661 155 l 1
 778 155 l 1
 778 313 l 1
769 408 m 1
 890 408 l 1
 890 155 l 1
 957 155 l 1
 957 79 l 1
 890 79 l 1
 890 0 l 1
 778 0 l 1
 778 79 l 1
 587 79 l 1
 587 161 l 1
 769 408 l 1
358 -14 m 1
 249 -14 l 1
 705 742 l 1
 814 742 l 1
 358 -14 l 1
58 403 m 1
 158 403 l 1
 158 657 l 1
 49 632 l 1
 49 710 l 1
 161 734 l 1
 270 734 l 1
 270 403 l 1
 370 403 l 1
 370 326 l 1
 58 326 l 1
 58 403 l 1
EndSplineSet
Validated: 1
Ligature2: "sous-table Remplacement de ligature lookups11" one fraction four
Ligature2: "sous-table Remplacement de ligature lookups11" one slash four
EndChar

StartChar: onehalf
Encoding: 189 189 149
Width: 1035
Flags: W
HStem: -14 21G<249 370.063> 0 82<805 987> 326 77<58 158 270 370> 344 72<708.017 852.648> 632 78<49 79.52> 722 12G<67.6667 270 692.937 814>
VStem: 158 112<403 657> 866 118<240.129 331.387>
LayerCount: 2
Fore
SplineSet
805 82 m 1x5f
 987 82 l 1
 987 0 l 1
 657 0 l 1
 657 75 l 1
 811 206 l 2
 851 241 866 264 866 289 c 0
 866 321 840 344 801 344 c 0
 761 344 717 330 661 299 c 1
 661 390 l 1
 718 407 771 416 819 416 c 0
 922 416 984 372 984 300 c 0
 984 253 964 218 900 163 c 2
 805 82 l 1x5f
358 -14 m 1x8f
 249 -14 l 1
 705 742 l 1
 814 742 l 1
 358 -14 l 1x8f
58 403 m 1x2f
 158 403 l 1
 158 657 l 1
 49 632 l 1
 49 710 l 1
 161 734 l 1
 270 734 l 1
 270 403 l 1
 370 403 l 1
 370 326 l 1
 58 326 l 1
 58 403 l 1x2f
EndSplineSet
Validated: 1
Ligature2: "sous-table Remplacement de ligature lookups11" one fraction two
Ligature2: "sous-table Remplacement de ligature lookups11" one slash two
EndChar

StartChar: threequarters
Encoding: 190 190 150
Width: 1035
Flags: W
HStem: 0 21G<249 370.063 778 890> 79 76<661 778 890 957> 319 71<79.757 253.712> 511 67<128 251.673> 670 72<76.6196 252.282>
VStem: 261 119<590.222 660.29> 272 119<408.526 493.033> 778 112<0 79 155 313>
LayerCount: 2
Fore
SplineSet
769 408 m 1xf9
 890 408 l 1
 890 155 l 1
 957 155 l 1
 957 79 l 1
 890 79 l 1
 890 0 l 1
 778 0 l 1
 778 79 l 1
 587 79 l 1
 587 161 l 1
 769 408 l 1xf9
778 313 m 1
 661 155 l 1
 778 155 l 1
 778 313 l 1
296 547 m 1
 356 535 391 497 391 445 c 0
 391 361 327 319 196 319 c 0
 143 319 95 326 51 341 c 1
 51 426 l 1
 94 402 136 390 175 390 c 0
 236 390 272 411 272 450 c 0xfb
 272 491 239 511 164 511 c 2
 128 511 l 1
 128 578 l 1
 169 578 l 2
 233 578 261 593 261 626 c 0
 261 655 236 670 184 670 c 0
 149 670 111 661 64 644 c 1
 64 725 l 1
 107 736 156 742 212 742 c 0
 320 742 380 705 380 636 c 0xfd
 380 592 349 559 296 547 c 1
358 -14 m 1
 249 -14 l 1
 705 742 l 1
 814 742 l 1
 358 -14 l 1
EndSplineSet
Validated: 1
Ligature2: "sous-table Remplacement de ligature lookups11" three fraction four
Ligature2: "sous-table Remplacement de ligature lookups11" three slash four
EndChar

StartChar: questiondown
Encoding: 191 191 151
Width: 580
Flags: W
HStem: -14 128<268.666 433.736> 555 174<238 414>
VStem: 69 176<136.731 245.091> 238 176<404.195 482 555 729>
LayerCount: 2
Fore
SplineSet
238 482 m 1xd0
 414 482 l 1
 414 458 l 2xd0
 414 431 409 408 398 387 c 0
 387 367 364 341 329 308 c 1
 298 280 l 2
 262 247 245 218 245 187 c 0
 245 142 278 114 334 114 c 0
 387 114 450 136 515 179 c 1
 515 26 l 1
 438 -2 373 -14 313 -14 c 0
 154 -14 69 52 69 176 c 0xe0
 69 240 92 286 153 343 c 1
 184 371 l 2
 228 411 238 431 238 460 c 2
 238 482 l 1xd0
414 555 m 1
 238 555 l 1
 238 729 l 1
 414 729 l 1
 414 555 l 1
EndSplineSet
Validated: 1
Position2: "sous-table 'cpsp' Chasses pour composition en capitales dans Latin lookup 1" dx=5 dy=0 dh=10 dv=0
EndChar

StartChar: Agrave
Encoding: 192 192 152
Width: 774
Flags: W
HStem: 0 21G<5 200.917 573.083 769> 133 135<287 487> 709 20G<267.593 506.407>
LayerCount: 2
Fore
SplineSet
534 133 m 1
 240 133 l 1
 194 0 l 1
 5 0 l 1
 275 729 l 1
 499 729 l 1
 769 0 l 1
 580 0 l 1
 534 133 l 1
287 268 m 1
 487 268 l 1
 387 558 l 1
 287 268 l 1
350 927 m 1
 447 798 l 1
 351 798 l 1
 212 927 l 1
 350 927 l 1
EndSplineSet
Validated: 1
Position2: "sous-table 'cpsp' Chasses pour composition en capitales dans Latin lookup 1" dx=5 dy=0 dh=10 dv=0
EndChar

StartChar: Aacute
Encoding: 193 193 153
Width: 774
Flags: W
HStem: 0 21G<5 200.917 573.083 769> 133 135<287 487> 709 20G<267.593 506.407>
LayerCount: 2
Fore
SplineSet
534 133 m 1
 240 133 l 1
 194 0 l 1
 5 0 l 1
 275 729 l 1
 499 729 l 1
 769 0 l 1
 580 0 l 1
 534 133 l 1
287 268 m 1
 487 268 l 1
 387 558 l 1
 287 268 l 1
400 927 m 1
 538 927 l 1
 399 798 l 1
 303 798 l 1
 400 927 l 1
EndSplineSet
Validated: 1
Position2: "sous-table 'cpsp' Chasses pour composition en capitales dans Latin lookup 1" dx=5 dy=0 dh=10 dv=0
EndChar

StartChar: Acircumflex
Encoding: 194 194 154
Width: 774
Flags: W
HStem: 0 21G<5 200.917 573.083 769> 133 135<287 487> 709 20G<267.593 506.407>
LayerCount: 2
Fore
SplineSet
534 133 m 1
 240 133 l 1
 194 0 l 1
 5 0 l 1
 275 729 l 1
 499 729 l 1
 769 0 l 1
 580 0 l 1
 534 133 l 1
287 268 m 1
 487 268 l 1
 387 558 l 1
 287 268 l 1
300 927 m 1
 450 927 l 1
 559 798 l 1
 472 798 l 1
 375 877 l 1
 278 798 l 1
 191 798 l 1
 300 927 l 1
EndSplineSet
Validated: 1
Position2: "sous-table 'cpsp' Chasses pour composition en capitales dans Latin lookup 1" dx=5 dy=0 dh=10 dv=0
EndChar

StartChar: Atilde
Encoding: 195 195 155
Width: 774
Flags: W
HStem: 0 21G<5 200.917 573.083 769> 133 135<287 487> 709 20G<267.593 506.407> 798 73<391.556 470.308> 855 73<279.772 358.004>
VStem: 205 68<798 849.235> 477 67<876.765 928>
LayerCount: 2
Fore
SplineSet
534 133 m 1xe6
 240 133 l 1
 194 0 l 1
 5 0 l 1
 275 729 l 1
 499 729 l 1
 769 0 l 1
 580 0 l 1
 534 133 l 1xe6
287 268 m 1
 487 268 l 1
 387 558 l 1
 287 268 l 1
376 822 m 2
 349 839 l 2
 348 840 346 841 344 842 c 0
 329 851 317 855 308 855 c 0xee
 287 855 273 834 273 801 c 2
 273 798 l 1
 205 798 l 1xf6
 205 802 206 809 206 813 c 0
 206 882 244 928 301 928 c 0xee
 325 928 349 920 374 904 c 2
 403 885 l 2
 416 876 429 871 440 871 c 0xf6
 464 871 477 891 477 928 c 1
 545 928 l 1xee
 545 924 544 916 544 913 c 0
 544 844 506 798 449 798 c 0xf6
 425 798 403 805 376 822 c 2
EndSplineSet
Validated: 1
Position2: "sous-table 'cpsp' Chasses pour composition en capitales dans Latin lookup 1" dx=5 dy=0 dh=10 dv=0
EndChar

StartChar: Adieresis
Encoding: 196 196 156
Width: 774
Flags: W
HStem: 0 21G<5 200.917 573.083 769> 133 135<287 487> 709 20G<267.593 506.407> 807 120<221 336 414 529>
VStem: 221 115<807 927> 414 115<807 927>
LayerCount: 2
Fore
SplineSet
534 133 m 1
 240 133 l 1
 194 0 l 1
 5 0 l 1
 275 729 l 1
 499 729 l 1
 769 0 l 1
 580 0 l 1
 534 133 l 1
287 268 m 1
 487 268 l 1
 387 558 l 1
 287 268 l 1
221 927 m 1
 336 927 l 1
 336 807 l 1
 221 807 l 1
 221 927 l 1
414 927 m 1
 529 927 l 1
 529 807 l 1
 414 807 l 1
 414 927 l 1
EndSplineSet
Validated: 1
Position2: "sous-table 'cpsp' Chasses pour composition en capitales dans Latin lookup 1" dx=5 dy=0 dh=10 dv=0
EndChar

StartChar: Aring
Encoding: 197 197 157
Width: 774
Flags: W
HStem: 0 21G<5 200.917 573.083 769> 133 135<287 487> 853 75<339.914 434.086>
VStem: 248 75<741.564 836.086> 451 75<740.745 836.086>
LayerCount: 2
Fore
SplineSet
504 715 m 1
 769 0 l 1
 580 0 l 1
 534 133 l 1
 240 133 l 1
 194 0 l 1
 5 0 l 1
 270 715 l 1
 255 736 248 761 248 789 c 0
 248 827 262 860 289 887 c 0
 316 914 349 928 387 928 c 0
 425 928 458 914 485 887 c 0
 512 860 526 827 526 789 c 0
 526 758 519 734 504 715 c 1
323 789 m 0
 323 754 352 725 387 725 c 0
 423 725 451 754 451 789 c 0
 451 824 422 853 387 853 c 0
 352 853 323 824 323 789 c 0
287 268 m 1
 487 268 l 1
 387 558 l 1
 287 268 l 1
EndSplineSet
Validated: 1
Position2: "sous-table 'cpsp' Chasses pour composition en capitales dans Latin lookup 1" dx=5 dy=0 dh=10 dv=0
EndChar

StartChar: AE
Encoding: 198 198 158
Width: 1085
Flags: W
HStem: 0 142<682 1012> 171 135<310 494> 309 142<682 982> 587 142<682 1001> 604 125<435 494>
VStem: 494 188<142 171 306 309 451 587>
LayerCount: 2
Fore
SplineSet
435 604 m 1xec
 310 306 l 1
 494 306 l 1
 494 604 l 1
 435 604 l 1xec
305 729 m 1
 1001 729 l 1
 1001 587 l 1
 682 587 l 1xf4
 682 451 l 1
 982 451 l 1
 982 309 l 1
 682 309 l 1
 682 142 l 1
 1012 142 l 1
 1012 0 l 1
 494 0 l 1
 494 171 l 1
 253 171 l 1
 181 0 l 1
 0 0 l 1
 305 729 l 1
EndSplineSet
Validated: 1
Ligature2: "sous-table 'dpng' Dipthongs (Obsolete) dans Latin lookup 9" A e
Ligature2: "sous-table 'dpng' Dipthongs (Obsolete) dans Latin lookup 9" A E
Position2: "sous-table 'cpsp' Chasses pour composition en capitales dans Latin lookup 1" dx=5 dy=0 dh=10 dv=0
EndChar

StartChar: Ccedilla
Encoding: 199 199 159
Width: 734
Flags: W
HStem: -196 72<310.568 443.928> -13.3608 135.361<359.509 431.368> 606 136<359.145 579.812>
VStem: 50 194<246.845 481.132> 450 80<-116.074 -42.7071>
LayerCount: 2
Fore
SplineSet
416.705657292 -13.3608084018 m 1
 308.799711101 -8.4079514448 221.377331882 25.3058980832 156 87 c 0
 85 155 50 247 50 364 c 0
 50 481 85 573 156 640 c 0
 227 708 324 742 445 742 c 0
 526 742 601 724 670 688 c 1
 670 537 l 1
 601 585 535 606 460 606 c 0
 325 606 244 515 244 364 c 0
 244 213 325 122 460 122 c 0
 535 122 601 143 670 191 c 1
 670 40 l 1
 612.803006202 10.1580901924 551.483143974 -7.31521432404 486.040413303 -12.419913396 c 1
 515.585674372 -47.1155494988 530.000000012 -77.2589686294 530 -105 c 0
 530 -166 491 -196 408 -196 c 0
 377 -196 344 -191 309 -183 c 1
 309 -109 l 1
 341 -120 369 -124 390 -124 c 0
 427 -124 450 -109 450 -82 c 0
 450 -67.0203760757 439.129938198 -45.0528552787 416.705657292 -13.3608084018 c 1
EndSplineSet
Validated: 524289
Position2: "sous-table 'cpsp' Chasses pour composition en capitales dans Latin lookup 1" dx=5 dy=0 dh=10 dv=0
EndChar

StartChar: Egrave
Encoding: 200 200 160
Width: 683
Flags: W
HStem: 0 142<280 610> 309 142<280 580> 587 142<280 599>
VStem: 92 188<142 309 451 587>
LayerCount: 2
Fore
SplineSet
92 729 m 1
 599 729 l 1
 599 587 l 1
 280 587 l 1
 280 451 l 1
 580 451 l 1
 580 309 l 1
 280 309 l 1
 280 142 l 1
 610 142 l 1
 610 0 l 1
 92 0 l 1
 92 729 l 1
313 927 m 1
 410 798 l 1
 314 798 l 1
 175 927 l 1
 313 927 l 1
EndSplineSet
Validated: 1
Position2: "sous-table 'cpsp' Chasses pour composition en capitales dans Latin lookup 1" dx=5 dy=0 dh=10 dv=0
EndChar

StartChar: Eacute
Encoding: 201 201 161
Width: 683
Flags: W
HStem: 0 142<280 610> 309 142<280 580> 587 142<280 599>
VStem: 92 188<142 309 451 587>
LayerCount: 2
Fore
SplineSet
92 729 m 1
 599 729 l 1
 599 587 l 1
 280 587 l 1
 280 451 l 1
 580 451 l 1
 580 309 l 1
 280 309 l 1
 280 142 l 1
 610 142 l 1
 610 0 l 1
 92 0 l 1
 92 729 l 1
363 927 m 1
 501 927 l 1
 362 798 l 1
 266 798 l 1
 363 927 l 1
EndSplineSet
Validated: 1
Position2: "sous-table 'cpsp' Chasses pour composition en capitales dans Latin lookup 1" dx=5 dy=0 dh=10 dv=0
EndChar

StartChar: Ecircumflex
Encoding: 202 202 162
Width: 683
Flags: W
HStem: 0 142<280 610> 309 142<280 580> 587 142<280 599>
VStem: 92 188<142 309 451 587>
LayerCount: 2
Fore
SplineSet
92 729 m 1
 599 729 l 1
 599 587 l 1
 280 587 l 1
 280 451 l 1
 580 451 l 1
 580 309 l 1
 280 309 l 1
 280 142 l 1
 610 142 l 1
 610 0 l 1
 92 0 l 1
 92 729 l 1
263 927 m 1
 413 927 l 1
 522 798 l 1
 435 798 l 1
 338 877 l 1
 241 798 l 1
 154 798 l 1
 263 927 l 1
EndSplineSet
Validated: 1
Position2: "sous-table 'cpsp' Chasses pour composition en capitales dans Latin lookup 1" dx=5 dy=0 dh=10 dv=0
EndChar

StartChar: Edieresis
Encoding: 203 203 163
Width: 683
Flags: W
HStem: 0 142<280 610> 309 142<280 580> 587 142<280 599> 807 120<184 299 377 492>
VStem: 92 188<142 309 451 587> 184 115<807 927> 377 115<807 927>
LayerCount: 2
Fore
SplineSet
92 729 m 1xfa
 599 729 l 1
 599 587 l 1
 280 587 l 1
 280 451 l 1
 580 451 l 1
 580 309 l 1
 280 309 l 1
 280 142 l 1
 610 142 l 1
 610 0 l 1
 92 0 l 1
 92 729 l 1xfa
184 927 m 1xf6
 299 927 l 1
 299 807 l 1
 184 807 l 1
 184 927 l 1xf6
377 927 m 1
 492 927 l 1
 492 807 l 1
 377 807 l 1
 377 927 l 1
EndSplineSet
Validated: 1
Position2: "sous-table 'cpsp' Chasses pour composition en capitales dans Latin lookup 1" dx=5 dy=0 dh=10 dv=0
EndChar

StartChar: Igrave
Encoding: 204 204 164
Width: 372
Flags: W
HStem: 0 21G<92 280> 709 20G<92 280>
VStem: 92 188<0 729>
LayerCount: 2
Fore
SplineSet
92 729 m 1
 280 729 l 1
 280 0 l 1
 92 0 l 1
 92 729 l 1
149 927 m 1
 246 798 l 1
 150 798 l 1
 11 927 l 1
 149 927 l 1
EndSplineSet
Validated: 1
Position2: "sous-table 'cpsp' Chasses pour composition en capitales dans Latin lookup 1" dx=5 dy=0 dh=10 dv=0
EndChar

StartChar: Iacute
Encoding: 205 205 165
Width: 372
Flags: W
HStem: 0 21G<92 280> 709 20G<92 280>
VStem: 92 188<0 729>
LayerCount: 2
Fore
SplineSet
92 729 m 1
 280 729 l 1
 280 0 l 1
 92 0 l 1
 92 729 l 1
199 927 m 1
 337 927 l 1
 198 798 l 1
 102 798 l 1
 199 927 l 1
EndSplineSet
Validated: 1
Position2: "sous-table 'cpsp' Chasses pour composition en capitales dans Latin lookup 1" dx=5 dy=0 dh=10 dv=0
EndChar

StartChar: Icircumflex
Encoding: 206 206 166
Width: 372
Flags: W
HStem: 0 21G<92 280> 709 20G<92 280>
VStem: 92 188<0 729>
LayerCount: 2
Fore
SplineSet
92 729 m 1
 280 729 l 1
 280 0 l 1
 92 0 l 1
 92 729 l 1
99 927 m 1
 249 927 l 1
 358 798 l 1
 271 798 l 1
 174 877 l 1
 77 798 l 1
 -10 798 l 1
 99 927 l 1
EndSplineSet
Validated: 1
Position2: "sous-table 'cpsp' Chasses pour composition en capitales dans Latin lookup 1" dx=5 dy=0 dh=10 dv=0
EndChar

StartChar: Idieresis
Encoding: 207 207 167
Width: 372
Flags: W
HStem: 0 21G<92 280> 709 20G<92 280> 807 120<20 135 213 328>
VStem: 20 115<807 927> 92 188<0 729> 213 115<807 927>
LayerCount: 2
Fore
SplineSet
92 729 m 1xe8
 280 729 l 1
 280 0 l 1
 92 0 l 1
 92 729 l 1xe8
20 927 m 1xf0
 135 927 l 1
 135 807 l 1
 20 807 l 1
 20 927 l 1xf0
213 927 m 1xe4
 328 927 l 1
 328 807 l 1
 213 807 l 1
 213 927 l 1xe4
EndSplineSet
Validated: 1
Position2: "sous-table 'cpsp' Chasses pour composition en capitales dans Latin lookup 1" dx=5 dy=0 dh=10 dv=0
EndChar

StartChar: Eth
Encoding: 208 208 168
Width: 838
Flags: W
HStem: 0 142<289 473.629> 303 127<16 101 289 404> 587 142<289 474.51>
VStem: 101 188<142 303 430 587> 593 194<254.935 474.811>
LayerCount: 2
Fore
SplineSet
289 587 m 1
 289 430 l 1
 404 430 l 1
 404 303 l 1
 289 303 l 1
 289 142 l 1
 356 142 l 2
 509 142 593 220 593 365 c 0
 593 510 511 587 356 587 c 2
 289 587 l 1
101 729 m 1
 299 729 l 2
 410 729 492 721 546 705 c 0
 600 690 647 663 686 625 c 0
 754 560 787 474 787 365 c 0
 787 256 754 169 686 104 c 0
 647 66 600 39 545 23 c 0
 490 8 408 0 299 0 c 2
 101 0 l 1
 101 303 l 1
 16 303 l 1
 16 430 l 1
 101 430 l 1
 101 729 l 1
EndSplineSet
Validated: 1
Position2: "sous-table 'cpsp' Chasses pour composition en capitales dans Latin lookup 1" dx=5 dy=0 dh=10 dv=0
EndChar

StartChar: Ntilde
Encoding: 209 209 169
Width: 837
Flags: W
HStem: 0 21G<92 270 524.4 745> 709 20G<92 312.6 567 745> 798 73<417.556 496.308> 855 73<305.772 384.004>
VStem: 92 178<0 500> 231 68<798 849.235> 503 67<876.765 928> 567 178<229 729>
LayerCount: 2
Fore
SplineSet
92 729 m 1xc9
 302 729 l 1
 567 229 l 1
 567 729 l 1
 745 729 l 1
 745 0 l 1
 535 0 l 1
 270 500 l 1
 270 0 l 1
 92 0 l 1
 92 729 l 1xc9
402 822 m 2
 375 839 l 2
 374 840 372 841 370 842 c 0
 355 851 343 855 334 855 c 0xd6
 313 855 299 834 299 801 c 2
 299 798 l 1
 231 798 l 1xe6
 231 802 232 809 232 813 c 0
 232 882 270 928 327 928 c 0xd6
 351 928 375 920 400 904 c 2
 429 885 l 2
 442 876 455 871 466 871 c 0xe6
 490 871 503 891 503 928 c 1
 571 928 l 1xd6
 571 924 570 916 570 913 c 0
 570 844 532 798 475 798 c 0xe6
 451 798 429 805 402 822 c 2
EndSplineSet
Validated: 1
Position2: "sous-table 'cpsp' Chasses pour composition en capitales dans Latin lookup 1" dx=5 dy=0 dh=10 dv=0
EndChar

StartChar: Ograve
Encoding: 210 210 170
Width: 850
Flags: W
HStem: -14 136<341.034 509.036> 606 136<341.034 509.036>
VStem: 50 194<233.789 494.03> 606 194<233.789 494.03>
LayerCount: 2
Fore
SplineSet
425 606 m 0
 310 606 244 517 244 364 c 0
 244 211 310 122 425 122 c 0
 540 122 606 211 606 364 c 0
 606 517 540 606 425 606 c 0
425 742 m 0
 542 742 634 708 700 641 c 0
 767 574 800 482 800 364 c 0
 800 246 767 153 700 86 c 0
 634 19 542 -14 425 -14 c 0
 308 -14 217 19 150 86 c 0
 83 153 50 246 50 364 c 0
 50 482 83 574 150 641 c 0
 217 708 308 742 425 742 c 0
388 927 m 1
 485 798 l 1
 389 798 l 1
 250 927 l 1
 388 927 l 1
EndSplineSet
Validated: 1
Position2: "sous-table 'cpsp' Chasses pour composition en capitales dans Latin lookup 1" dx=5 dy=0 dh=10 dv=0
EndChar

StartChar: Oacute
Encoding: 211 211 171
Width: 850
Flags: W
HStem: -14 136<341.034 509.036> 606 136<341.034 509.036>
VStem: 50 194<233.789 494.03> 606 194<233.789 494.03>
LayerCount: 2
Fore
SplineSet
425 606 m 0
 310 606 244 517 244 364 c 0
 244 211 310 122 425 122 c 0
 540 122 606 211 606 364 c 0
 606 517 540 606 425 606 c 0
425 742 m 0
 542 742 634 708 700 641 c 0
 767 574 800 482 800 364 c 0
 800 246 767 153 700 86 c 0
 634 19 542 -14 425 -14 c 0
 308 -14 217 19 150 86 c 0
 83 153 50 246 50 364 c 0
 50 482 83 574 150 641 c 0
 217 708 308 742 425 742 c 0
438 927 m 1
 576 927 l 1
 437 798 l 1
 341 798 l 1
 438 927 l 1
EndSplineSet
Validated: 1
Position2: "sous-table 'cpsp' Chasses pour composition en capitales dans Latin lookup 1" dx=5 dy=0 dh=10 dv=0
EndChar

StartChar: Ocircumflex
Encoding: 212 212 172
Width: 850
Flags: W
HStem: -14 136<341.034 509.036> 606 136<341.034 509.036>
VStem: 50 194<233.789 494.03> 606 194<233.789 494.03>
LayerCount: 2
Fore
SplineSet
425 606 m 0
 310 606 244 517 244 364 c 0
 244 211 310 122 425 122 c 0
 540 122 606 211 606 364 c 0
 606 517 540 606 425 606 c 0
425 742 m 0
 542 742 634 708 700 641 c 0
 767 574 800 482 800 364 c 0
 800 246 767 153 700 86 c 0
 634 19 542 -14 425 -14 c 0
 308 -14 217 19 150 86 c 0
 83 153 50 246 50 364 c 0
 50 482 83 574 150 641 c 0
 217 708 308 742 425 742 c 0
338 927 m 1
 488 927 l 1
 597 798 l 1
 510 798 l 1
 413 877 l 1
 316 798 l 1
 229 798 l 1
 338 927 l 1
EndSplineSet
Validated: 1
Position2: "sous-table 'cpsp' Chasses pour composition en capitales dans Latin lookup 1" dx=5 dy=0 dh=10 dv=0
EndChar

StartChar: Otilde
Encoding: 213 213 173
Width: 850
Flags: W
HStem: -14 136<341.034 509.036> 606 136<341.034 509.036> 798 73<429.556 508.308> 855 73<317.772 396.004>
VStem: 50 194<233.789 494.03> 243 68<798 849.235> 515 67<876.765 928> 606 194<233.789 494.03>
LayerCount: 2
Fore
SplineSet
425 606 m 0xcb
 310 606 244 517 244 364 c 0
 244 211 310 122 425 122 c 0
 540 122 606 211 606 364 c 0
 606 517 540 606 425 606 c 0xcb
425 742 m 0
 542 742 634 708 700 641 c 0
 767 574 800 482 800 364 c 0
 800 246 767 153 700 86 c 0
 634 19 542 -14 425 -14 c 0
 308 -14 217 19 150 86 c 0
 83 153 50 246 50 364 c 0
 50 482 83 574 150 641 c 0
 217 708 308 742 425 742 c 0
414 822 m 2
 387 839 l 2
 386 840 384 841 382 842 c 0
 367 851 355 855 346 855 c 0xdb
 325 855 311 834 311 801 c 2
 311 798 l 1
 243 798 l 1xe7
 243 802 244 809 244 813 c 0
 244 882 282 928 339 928 c 0xdb
 363 928 387 920 412 904 c 2
 441 885 l 2
 454 876 467 871 478 871 c 0xeb
 502 871 515 891 515 928 c 1
 583 928 l 1xdb
 583 924 582 916 582 913 c 0
 582 844 544 798 487 798 c 0xeb
 463 798 441 805 414 822 c 2
EndSplineSet
Validated: 1
Position2: "sous-table 'cpsp' Chasses pour composition en capitales dans Latin lookup 1" dx=5 dy=0 dh=10 dv=0
EndChar

StartChar: Odieresis
Encoding: 214 214 174
Width: 850
Flags: W
HStem: -14 136<341.034 509.036> 606 136<341.034 509.036> 807 120<259 374 452 567>
VStem: 50 194<233.789 494.03> 259 115<807 927> 452 115<807 927> 606 194<233.789 494.03>
LayerCount: 2
Fore
SplineSet
425 606 m 0
 310 606 244 517 244 364 c 0
 244 211 310 122 425 122 c 0
 540 122 606 211 606 364 c 0
 606 517 540 606 425 606 c 0
425 742 m 0
 542 742 634 708 700 641 c 0
 767 574 800 482 800 364 c 0
 800 246 767 153 700 86 c 0
 634 19 542 -14 425 -14 c 0
 308 -14 217 19 150 86 c 0
 83 153 50 246 50 364 c 0
 50 482 83 574 150 641 c 0
 217 708 308 742 425 742 c 0
259 927 m 1
 374 927 l 1
 374 807 l 1
 259 807 l 1
 259 927 l 1
452 927 m 1
 567 927 l 1
 567 807 l 1
 452 807 l 1
 452 927 l 1
EndSplineSet
Validated: 1
Position2: "sous-table 'cpsp' Chasses pour composition en capitales dans Latin lookup 1" dx=5 dy=0 dh=10 dv=0
EndChar

StartChar: multiply
Encoding: 215 215 175
Width: 838
Flags: W
LayerCount: 2
Fore
SplineSet
713 525 m 1
 501 313 l 1
 713 102 l 1
 631 20 l 1
 419 231 l 1
 207 20 l 1
 125 102 l 1
 337 313 l 1
 125 525 l 1
 207 607 l 1
 419 395 l 1
 631 607 l 1
 713 525 l 1
EndSplineSet
Validated: 1
EndChar

StartChar: Oslash
Encoding: 216 216 176
Width: 850
Flags: W
HStem: -14 136<339.324 509.036> 606 136<341.034 509.417> 745 20G<748 787.643>
VStem: 50 194<256.236 494.03> 606 194<233.789 476.943>
LayerCount: 2
Fore
SplineSet
295 181 m 1
 328 141 370 122 425 122 c 0
 540 122 606 211 606 364 c 0
 606 408 602 446 591 478 c 1
 295 181 l 1
553 550 m 1
 520 587 478 606 425 606 c 0
 310 606 244 517 244 364 c 0
 244 323 249 284 258 255 c 1
 553 550 l 1
122 119 m 1
 74 184 50 265 50 364 c 0
 50 482 83 574 150 641 c 0
 217 708 308 742 425 742 c 0
 525 742 604 719 671 668 c 1
 768 765 l 1
 823 709 l 1
 725 612 l 1
 776 547 800 464 800 364 c 0
 800 246 767 153 700 86 c 0
 634 19 542 -14 425 -14 c 0
 325 -14 243 11 176 63 c 1
 77 -36 l 1
 22 19 l 1
 122 119 l 1
EndSplineSet
Validated: 1
Position2: "sous-table 'cpsp' Chasses pour composition en capitales dans Latin lookup 1" dx=5 dy=0 dh=10 dv=0
EndChar

StartChar: Ugrave
Encoding: 217 217 177
Width: 812
Flags: W
HStem: -14 138<329.331 482.669> 709 20G<92 280 532 720>
VStem: 92 188<179.152 729> 532 188<179.152 729>
LayerCount: 2
Fore
SplineSet
92 729 m 1
 280 729 l 1
 280 292 l 2
 280 172 317 124 406 124 c 0
 495 124 532 172 532 292 c 2
 532 729 l 1
 720 729 l 1
 720 292 l 2
 720 85 618 -14 406 -14 c 0
 194 -14 92 85 92 292 c 2
 92 729 l 1
369 927 m 1
 466 798 l 1
 370 798 l 1
 231 927 l 1
 369 927 l 1
EndSplineSet
Validated: 1
Position2: "sous-table 'cpsp' Chasses pour composition en capitales dans Latin lookup 1" dx=5 dy=0 dh=10 dv=0
EndChar

StartChar: Uacute
Encoding: 218 218 178
Width: 812
Flags: W
HStem: -14 138<329.331 482.669> 709 20G<92 280 532 720>
VStem: 92 188<179.152 729> 532 188<179.152 729>
LayerCount: 2
Fore
SplineSet
92 729 m 1
 280 729 l 1
 280 292 l 2
 280 172 317 124 406 124 c 0
 495 124 532 172 532 292 c 2
 532 729 l 1
 720 729 l 1
 720 292 l 2
 720 85 618 -14 406 -14 c 0
 194 -14 92 85 92 292 c 2
 92 729 l 1
419 927 m 1
 557 927 l 1
 418 798 l 1
 322 798 l 1
 419 927 l 1
EndSplineSet
Validated: 1
Position2: "sous-table 'cpsp' Chasses pour composition en capitales dans Latin lookup 1" dx=5 dy=0 dh=10 dv=0
EndChar

StartChar: Ucircumflex
Encoding: 219 219 179
Width: 812
Flags: W
HStem: -14 138<329.331 482.669> 709 20G<92 280 532 720>
VStem: 92 188<179.152 729> 532 188<179.152 729>
LayerCount: 2
Fore
SplineSet
92 729 m 1
 280 729 l 1
 280 292 l 2
 280 172 317 124 406 124 c 0
 495 124 532 172 532 292 c 2
 532 729 l 1
 720 729 l 1
 720 292 l 2
 720 85 618 -14 406 -14 c 0
 194 -14 92 85 92 292 c 2
 92 729 l 1
319 927 m 1
 469 927 l 1
 578 798 l 1
 491 798 l 1
 394 877 l 1
 297 798 l 1
 210 798 l 1
 319 927 l 1
EndSplineSet
Validated: 1
Position2: "sous-table 'cpsp' Chasses pour composition en capitales dans Latin lookup 1" dx=5 dy=0 dh=10 dv=0
EndChar

StartChar: Udieresis
Encoding: 220 220 180
Width: 812
Flags: W
HStem: -14 138<329.331 482.669> 709 20G<92 280 532 720> 807 120<240 355 433 548>
VStem: 92 188<179.152 729> 240 115<807 927> 433 115<807 927> 532 188<179.152 729>
LayerCount: 2
Fore
SplineSet
92 729 m 1xf2
 280 729 l 1
 280 292 l 2
 280 172 317 124 406 124 c 0
 495 124 532 172 532 292 c 2
 532 729 l 1
 720 729 l 1
 720 292 l 2
 720 85 618 -14 406 -14 c 0
 194 -14 92 85 92 292 c 2
 92 729 l 1xf2
240 927 m 1xe8
 355 927 l 1
 355 807 l 1
 240 807 l 1
 240 927 l 1xe8
433 927 m 1xe4
 548 927 l 1
 548 807 l 1
 433 807 l 1
 433 927 l 1xe4
EndSplineSet
Validated: 1
Position2: "sous-table 'cpsp' Chasses pour composition en capitales dans Latin lookup 1" dx=5 dy=0 dh=10 dv=0
EndChar

StartChar: Yacute
Encoding: 221 221 181
Width: 724
Flags: W
HStem: 0 21G<268 456> 709 20G<-10 208.769 515.231 734>
VStem: 268 188<0 307>
LayerCount: 2
Fore
SplineSet
-10 729 m 1
 196 729 l 1
 362 469 l 1
 528 729 l 1
 734 729 l 1
 456 307 l 1
 456 0 l 1
 268 0 l 1
 268 307 l 1
 -10 729 l 1
375 927 m 1
 513 927 l 1
 374 798 l 1
 278 798 l 1
 375 927 l 1
EndSplineSet
Validated: 1
Position2: "sous-table 'cpsp' Chasses pour composition en capitales dans Latin lookup 1" dx=5 dy=0 dh=10 dv=0
EndChar

StartChar: Thorn
Encoding: 222 222 182
Width: 738
Flags: W
HStem: 0 21G<92 280> 126 136<280 461.733> 467 135<280 460.269> 709 20G<92 280>
VStem: 92 188<0 126 262 467 602 729> 498 194<297.51 430.848>
LayerCount: 2
Fore
SplineSet
280 126 m 1
 280 0 l 1
 92 0 l 1
 92 729 l 1
 280 729 l 1
 280 602 l 1
 404 602 l 2
 589 602 692 517 692 364 c 0
 692 212 589 126 404 126 c 2
 280 126 l 1
280 467 m 1
 280 262 l 1
 384 262 l 2
 456 262 498 299 498 364 c 0
 498 429 456 467 384 467 c 2
 280 467 l 1
EndSplineSet
Validated: 1
Position2: "sous-table 'cpsp' Chasses pour composition en capitales dans Latin lookup 1" dx=5 dy=0 dh=10 dv=0
EndChar

StartChar: germandbls
Encoding: 223 223 183
Width: 719
Flags: W
HStem: -14 116<327.529 485.641> 0 21G<84 259> 644 116<292.427 424.404>
VStem: 84 175<0 611.864> 311 153<389.881 475.817> 504 172<120.705 211.136>
LayerCount: 2
Fore
SplineSet
84 544 m 2x7c
 84 688 172 760 349 760 c 0
 520 760 608 685 608 544 c 2
 608 509 l 1
 509 502 464 478 464 430 c 0
 464 406 473 392 533 359 c 1
 567 341 l 2
 643 300 676 246 676 170 c 0
 676 47 602 -14 451 -14 c 0
 408 -14 364 -6 316 10 c 1
 316 129 l 1
 352 112 390 102 426 102 c 0xbc
 473 102 504 128 504 165 c 0
 504 180 499 193 490 204 c 0
 481 215 461 230 429 248 c 2
 395 267 l 2
 338 299 311 342 311 401 c 0
 311 477 355 527 450 559 c 1
 449 615 417 644 358 644 c 0
 293 644 259 608 259 537 c 2
 259 0 l 1
 84 0 l 1
 84 544 l 2x7c
EndSplineSet
Validated: 1
EndChar

StartChar: agrave
Encoding: 224 224 184
Width: 675
Flags: W
HStem: -14 116<205.5 338.357> 0 21G<420 596> 246 104<243.383 420> 444 116<146.263 388.293>
VStem: 43 176<121.909 220.772> 420 176<0 81 153.123 246 350 412.505>
LayerCount: 2
Fore
SplineSet
329 246 m 2xbc
 256 246 219 221 219 173 c 0
 219 129 251 102 303 102 c 0
 370 102 420 155 420 226 c 2
 420 246 l 1
 329 246 l 2xbc
596 312 m 2
 596 0 l 1
 420 0 l 1x7c
 420 81 l 1
 373 14 318 -14 234 -14 c 0
 177 -14 131 2 96 35 c 0
 61 68 43 111 43 164 c 0
 43 292 128 350 317 350 c 2
 420 350 l 1
 420 364 l 2
 420 419 377 444 285 444 c 0
 210 444 146 428 91 399 c 1
 91 532 l 1
 166 551 241 560 317 560 c 0
 514 560 596 487 596 312 c 2
275 800 m 1
 413 616 l 1
 317 616 l 1
 137 800 l 1
 275 800 l 1
EndSplineSet
Validated: 1
EndChar

StartChar: aacute
Encoding: 225 225 185
Width: 675
Flags: W
HStem: -14 116<205.5 338.357> 0 21G<420 596> 246 104<243.383 420> 444 116<146.263 388.293>
VStem: 43 176<121.909 220.772> 420 176<0 81 153.123 246 350 412.505>
LayerCount: 2
Fore
SplineSet
329 246 m 2xbc
 256 246 219 221 219 173 c 0
 219 129 251 102 303 102 c 0
 370 102 420 155 420 226 c 2
 420 246 l 1
 329 246 l 2xbc
596 312 m 2
 596 0 l 1
 420 0 l 1x7c
 420 81 l 1
 373 14 318 -14 234 -14 c 0
 177 -14 131 2 96 35 c 0
 61 68 43 111 43 164 c 0
 43 292 128 350 317 350 c 2
 420 350 l 1
 420 364 l 2
 420 419 377 444 285 444 c 0
 210 444 146 428 91 399 c 1
 91 532 l 1
 166 551 241 560 317 560 c 0
 514 560 596 487 596 312 c 2
407 800 m 1
 545 800 l 1
 365 616 l 1
 269 616 l 1
 407 800 l 1
EndSplineSet
Validated: 1
EndChar

StartChar: acircumflex
Encoding: 226 226 186
Width: 675
Flags: W
HStem: -14 116<205.5 338.357> 0 21G<420 596> 246 104<243.383 420> 444 116<146.263 388.293>
VStem: 43 176<121.909 220.772> 420 176<0 81 153.123 246 350 412.505>
LayerCount: 2
Fore
SplineSet
329 246 m 2xbc
 256 246 219 221 219 173 c 0
 219 129 251 102 303 102 c 0
 370 102 420 155 420 226 c 2
 420 246 l 1
 329 246 l 2xbc
596 312 m 2
 596 0 l 1
 420 0 l 1x7c
 420 81 l 1
 373 14 318 -14 234 -14 c 0
 177 -14 131 2 96 35 c 0
 61 68 43 111 43 164 c 0
 43 292 128 350 317 350 c 2
 420 350 l 1
 420 364 l 2
 420 419 377 444 285 444 c 0
 210 444 146 428 91 399 c 1
 91 532 l 1
 166 551 241 560 317 560 c 0
 514 560 596 487 596 312 c 2
282 800 m 1
 400 800 l 1
 525 616 l 1
 438 616 l 1
 341 726 l 1
 244 616 l 1
 157 616 l 1
 282 800 l 1
EndSplineSet
Validated: 1
EndChar

StartChar: atilde
Encoding: 227 227 187
Width: 675
Flags: W
HStem: -14 116<205.5 338.357> 0 21G<420 596> 246 104<243.383 420> 444 116<146.263 388.293> 638 76<360.472 436.668> 702 76<245.298 320.672>
VStem: 43 176<121.909 220.772> 171 68<639 698.266> 420 176<0 81 153.123 246 350 412.505> 443 68<717.734 777>
LayerCount: 2
Fore
SplineSet
329 246 m 2xb280
 256 246 219 221 219 173 c 0
 219 129 251 102 303 102 c 0
 370 102 420 155 420 226 c 2
 420 246 l 1
 329 246 l 2xb280
596 312 m 2
 596 0 l 1
 420 0 l 1x7280
 420 81 l 1
 373 14 318 -14 234 -14 c 0
 177 -14 131 2 96 35 c 0
 61 68 43 111 43 164 c 0
 43 292 128 350 317 350 c 2
 420 350 l 1
 420 364 l 2
 420 419 377 444 285 444 c 0
 210 444 146 428 91 399 c 1
 91 532 l 1
 166 551 241 560 317 560 c 0
 514 560 596 487 596 312 c 2
342 666 m 2
 315 684 l 2
 314 685 312 686 310 687 c 0
 295 697 283 702 275 702 c 0
 252 702 239 682 239 643 c 2
 239 639 l 1
 171 639 l 1
 171 728 206 778 267 778 c 0x3540
 290 778 313 770 340 750 c 2
 370 729 l 1
 385 720 397 714 406 714 c 0
 430 714 443 736 443 773 c 2
 443 777 l 1
 511 777 l 1
 511 688 476 638 415 638 c 0x3940
 392 638 373 645 342 666 c 2
EndSplineSet
Validated: 1
EndChar

StartChar: adieresis
Encoding: 228 228 188
Width: 675
Flags: W
HStem: -14 116<205.5 338.357> 0 21G<420 596> 246 104<243.383 420> 444 116<146.263 388.293> 654 120<187 302 380 495>
VStem: 43 176<121.909 220.772> 187 115<654 774> 380 115<654 774> 420 176<0 81 153.123 246 350 412.505>
LayerCount: 2
Fore
SplineSet
329 246 m 2xbc80
 256 246 219 221 219 173 c 0
 219 129 251 102 303 102 c 0
 370 102 420 155 420 226 c 2
 420 246 l 1
 329 246 l 2xbc80
596 312 m 2
 596 0 l 1
 420 0 l 1x7c80
 420 81 l 1
 373 14 318 -14 234 -14 c 0
 177 -14 131 2 96 35 c 0
 61 68 43 111 43 164 c 0
 43 292 128 350 317 350 c 2
 420 350 l 1
 420 364 l 2
 420 419 377 444 285 444 c 0
 210 444 146 428 91 399 c 1
 91 532 l 1
 166 551 241 560 317 560 c 0
 514 560 596 487 596 312 c 2
187 774 m 1x3a
 302 774 l 1
 302 654 l 1
 187 654 l 1
 187 774 l 1x3a
380 774 m 1x39
 495 774 l 1
 495 654 l 1
 380 654 l 1
 380 774 l 1x39
EndSplineSet
Validated: 1
EndChar

StartChar: aring
Encoding: 229 229 189
Width: 675
Flags: W
HStem: -14 116<205.5 338.357> 0 21G<420 596> 246 104<243.383 420> 444 116<146.263 388.293> 610 75<292.991 388.469> 813 75<293.327 388.294>
VStem: 43 176<121.909 220.772> 202 75<701.327 796.806> 405 75<700.991 796.294> 420 176<0 81 153.123 246 350 412.505>
LayerCount: 2
Fore
SplineSet
329 246 m 2xbe40
 256 246 219 221 219 173 c 0
 219 129 251 102 303 102 c 0
 370 102 420 155 420 226 c 2
 420 246 l 1
 329 246 l 2xbe40
596 312 m 2
 596 0 l 1
 420 0 l 1x7e40
 420 81 l 1
 373 14 318 -14 234 -14 c 0
 177 -14 131 2 96 35 c 0
 61 68 43 111 43 164 c 0
 43 292 128 350 317 350 c 2
 420 350 l 1
 420 364 l 2
 420 419 377 444 285 444 c 0
 210 444 146 428 91 399 c 1
 91 532 l 1
 166 551 241 560 317 560 c 0
 514 560 596 487 596 312 c 2
277 749 m 0x3d80
 277 713 306 685 341 685 c 0
 377 685 405 714 405 749 c 0
 405 784 376 813 341 813 c 0
 305 813 277 784 277 749 c 0x3d80
202 749 m 0
 202 788 215 820 242 847 c 0
 269 874 302 888 341 888 c 0
 380 888 412 874 439 847 c 0
 466 820 480 788 480 749 c 0
 480 710 466 677 439 650 c 0
 412 623 380 610 341 610 c 0
 302 610 269 623 242 650 c 0
 215 677 202 710 202 749 c 0
EndSplineSet
Validated: 1
EndChar

StartChar: ae
Encoding: 230 230 190
Width: 1048
Flags: W
HStem: -14 116<240.47 363.035 649.841 869.457> 225 108<594 820> 246 104<243.383 420> 444 116<144.902 389.593 641.66 781.43>
VStem: 43 176<123.611 220.772> 420 171<160.584 225 350 388.243>
LayerCount: 2
Fore
SplineSet
820 333 m 1xdc
 820 400 778 444 715 444 c 0
 648 444 605 405 594 333 c 1
 820 333 l 1xdc
329 246 m 2xbc
 256 246 219 221 219 173 c 0
 219 129 251 102 303 102 c 0
 370 102 420 155 420 226 c 2
 420 246 l 1
 329 246 l 2xbc
91 532 m 1
 168 551 242 560 305 560 c 0
 402 560 472 535 519 484 c 1
 570 533 636 560 716 560 c 0
 802 560 871 534 922 482 c 1
 974 431 1000 362 1000 275 c 2
 1000 225 l 1
 591 225 l 1xdc
 600 144 650 102 742 102 c 0
 815 102 893 124 974 168 c 1
 974 33 l 1
 891 2 809 -14 726 -14 c 0
 610 -14 521 22 474 87 c 1
 409 18 339 -14 248 -14 c 0
 121 -14 43 55 43 164 c 0
 43 292 128 350 317 350 c 2
 420 350 l 1
 420 364 l 2
 420 419 377 444 285 444 c 0
 210 444 146 428 91 399 c 1
 91 532 l 1
EndSplineSet
Validated: 1
Ligature2: "sous-table 'dpng' Dipthongs (Obsolete) dans Latin lookup 9" a e
EndChar

StartChar: ccedilla
Encoding: 231 231 191
Width: 593
Flags: W
HStem: -196 72<219.568 352.928> 435 125<295.406 478.908>
VStem: 43 182<184.502 366.303> 359 80<-116.145 -42.3818>
LayerCount: 2
Fore
SplineSet
526 530 m 1
 526 387 l 1
 478 420 431 435 380 435 c 0
 283 435 225 376 225 273 c 0
 225 170 283 111 380 111 c 0
 435 111 485 127 526 159 c 1
 526 16 l 1
 483.12326079 0.408458469176 439.031040744 -9.10567887896 395.144681373 -12.5424122475 c 1
 424.619587865 -47.1865079603 438.999999984 -77.2916215552 439 -105 c 0
 439 -166 400 -196 317 -196 c 0
 286 -196 253 -191 218 -183 c 1
 218 -109 l 1
 250 -120 278 -124 299 -124 c 0
 336 -124 359 -109 359 -82 c 0
 359 -66.9613552132 348.044111701 -44.8796393772 325.440059001 -12.9857480811 c 1
 148.069524275 -1.70275149088 42.9999999999 103.148305305 43 273 c 0
 43 453 161 560 358 560 c 0
 415 560 470 550 526 530 c 1
EndSplineSet
Validated: 524289
EndChar

StartChar: egrave
Encoding: 232 232 192
Width: 678
Flags: W
HStem: -14 116<283.511 499.457> 225 108<223 450> 444 116<271.063 411.43>
VStem: 43 178<165.31 225 333 388.955>
LayerCount: 2
Fore
SplineSet
630 275 m 2
 630 225 l 1
 221 225 l 1
 230 144 281 102 372 102 c 0
 445 102 523 124 604 168 c 1
 604 33 l 1
 521 2 439 -14 356 -14 c 0
 159 -14 43 92 43 273 c 0
 43 362 70 432 124 483 c 0
 178 534 252 560 346 560 c 0
 432 560 501 534 552 482 c 1
 604 431 630 362 630 275 c 2
450 333 m 1
 450 400 408 444 345 444 c 0
 277 444 234 405 223 333 c 1
 450 333 l 1
290 800 m 1
 428 616 l 1
 332 616 l 1
 152 800 l 1
 290 800 l 1
EndSplineSet
Validated: 1
EndChar

StartChar: eacute
Encoding: 233 233 193
Width: 678
Flags: W
HStem: -14 116<283.511 499.457> 225 108<223 450> 444 116<271.063 411.43>
VStem: 43 178<165.31 225 333 388.955>
LayerCount: 2
Fore
SplineSet
630 275 m 2
 630 225 l 1
 221 225 l 1
 230 144 281 102 372 102 c 0
 445 102 523 124 604 168 c 1
 604 33 l 1
 521 2 439 -14 356 -14 c 0
 159 -14 43 92 43 273 c 0
 43 362 70 432 124 483 c 0
 178 534 252 560 346 560 c 0
 432 560 501 534 552 482 c 1
 604 431 630 362 630 275 c 2
450 333 m 1
 450 400 408 444 345 444 c 0
 277 444 234 405 223 333 c 1
 450 333 l 1
422 800 m 1
 560 800 l 1
 380 616 l 1
 284 616 l 1
 422 800 l 1
EndSplineSet
Validated: 1
EndChar

StartChar: ecircumflex
Encoding: 234 234 194
Width: 678
Flags: W
HStem: -14 116<283.511 499.457> 225 108<223 450> 444 116<271.063 411.43>
VStem: 43 178<165.31 225 333 388.955>
LayerCount: 2
Fore
SplineSet
630 275 m 2
 630 225 l 1
 221 225 l 1
 230 144 281 102 372 102 c 0
 445 102 523 124 604 168 c 1
 604 33 l 1
 521 2 439 -14 356 -14 c 0
 159 -14 43 92 43 273 c 0
 43 362 70 432 124 483 c 0
 178 534 252 560 346 560 c 0
 432 560 501 534 552 482 c 1
 604 431 630 362 630 275 c 2
450 333 m 1
 450 400 408 444 345 444 c 0
 277 444 234 405 223 333 c 1
 450 333 l 1
297 800 m 1
 415 800 l 1
 540 616 l 1
 453 616 l 1
 356 726 l 1
 259 616 l 1
 172 616 l 1
 297 800 l 1
EndSplineSet
Validated: 1
EndChar

StartChar: edieresis
Encoding: 235 235 195
Width: 678
Flags: W
HStem: -14 116<283.511 499.457> 225 108<223 450> 444 116<271.063 411.43> 654 120<202 317 395 510>
VStem: 43 178<165.31 225 333 388.955> 202 115<654 774> 395 115<654 774>
LayerCount: 2
Fore
SplineSet
630 275 m 2xfa
 630 225 l 1
 221 225 l 1
 230 144 281 102 372 102 c 0
 445 102 523 124 604 168 c 1
 604 33 l 1
 521 2 439 -14 356 -14 c 0
 159 -14 43 92 43 273 c 0
 43 362 70 432 124 483 c 0
 178 534 252 560 346 560 c 0
 432 560 501 534 552 482 c 1
 604 431 630 362 630 275 c 2xfa
450 333 m 1
 450 400 408 444 345 444 c 0
 277 444 234 405 223 333 c 1
 450 333 l 1
202 774 m 1xf6
 317 774 l 1
 317 654 l 1
 202 654 l 1
 202 774 l 1xf6
395 774 m 1
 510 774 l 1
 510 654 l 1
 395 654 l 1
 395 774 l 1
EndSplineSet
Validated: 1
EndChar

StartChar: igrave
Encoding: 236 236 196
Width: 343
Flags: W
HStem: 0 21G<84 259> 527 20G<84 259>
VStem: 84 175<0 547>
LayerCount: 2
Fore
SplineSet
84 547 m 1
 259 547 l 1
 259 0 l 1
 84 0 l 1
 84 547 l 1
117 800 m 1
 255 616 l 1
 159 616 l 1
 -21 800 l 1
 117 800 l 1
EndSplineSet
Validated: 1
EndChar

StartChar: iacute
Encoding: 237 237 197
Width: 343
Flags: W
HStem: 0 21G<84 259> 527 20G<84 259>
VStem: 84 175<0 547>
LayerCount: 2
Fore
SplineSet
84 547 m 1
 259 547 l 1
 259 0 l 1
 84 0 l 1
 84 547 l 1
249 800 m 1
 387 800 l 1
 207 616 l 1
 111 616 l 1
 249 800 l 1
EndSplineSet
Validated: 1
EndChar

StartChar: icircumflex
Encoding: 238 238 198
Width: 343
Flags: W
HStem: 0 21G<84 259> 527 20G<84 259>
VStem: 84 175<0 547>
LayerCount: 2
Fore
SplineSet
84 547 m 1
 259 547 l 1
 259 0 l 1
 84 0 l 1
 84 547 l 1
124 800 m 1
 242 800 l 1
 367 616 l 1
 280 616 l 1
 183 726 l 1
 86 616 l 1
 -1 616 l 1
 124 800 l 1
EndSplineSet
Validated: 1
EndChar

StartChar: idieresis
Encoding: 239 239 199
Width: 343
Flags: W
HStem: 0 21G<84 259> 527 20G<84 259> 654 120<29 144 222 337>
VStem: 29 115<654 774> 84 175<0 547> 222 115<654 774>
LayerCount: 2
Fore
SplineSet
84 547 m 1xe8
 259 547 l 1
 259 0 l 1
 84 0 l 1
 84 547 l 1xe8
29 774 m 1xf0
 144 774 l 1
 144 654 l 1
 29 654 l 1
 29 774 l 1xf0
222 774 m 1xe4
 337 774 l 1
 337 654 l 1
 222 654 l 1
 222 774 l 1xe4
EndSplineSet
Validated: 1
EndChar

StartChar: eth
Encoding: 240 240 200
Width: 687
Flags: W
HStem: -14 125<276.865 411.63> 389 126<270.416 396> 551 21G<116.286 184.759> 740 20G<162 352.947 506.286 577.397>
VStem: 43 182<170.394 344.547> 462 182<169.524 362.364>
LayerCount: 2
Fore
SplineSet
449 363 m 1
 413 380 379 389 344 389 c 0
 268 389 225 344 225 265 c 0
 225 169 271 111 344 111 c 0
 420 111 462 168 462 273 c 0
 462 302 458 332 449 363 c 1
535 537 m 1
 611 449 644 369 644 273 c 0
 644 93 532 -14 344 -14 c 0
 156 -14 43 93 43 273 c 0
 43 424 147 515 319 515 c 0
 348 515 373 511 397 502 c 1
 304 609 l 1
 122 551 l 1
 104 614 l 1
 254 661 l 1
 162 760 l 1
 334 760 l 1
 388 703 l 1
 572 759 l 1
 589 696 l 1
 435 649 l 1
 535 537 l 1
EndSplineSet
Validated: 1
EndChar

StartChar: ntilde
Encoding: 241 241 201
Width: 712
Flags: W
HStem: 0 21G<84 259 458 634> 428 132<344.641 504.5> 527 20G<84 259> 638 76<387.472 463.668> 702 76<272.298 347.672>
VStem: 84 175<0 369.368 467 547> 198 68<639 698.266> 458 176<0 402.958> 470 68<717.734 777>
LayerCount: 2
Fore
SplineSet
634 333 m 2xc5
 634 0 l 1
 458 0 l 1
 458 54 l 1
 458 255 l 2
 458 302 457 335 455 352 c 0
 453 370 449 383 444 392 c 0
 431 415 405 428 376 428 c 0xc5
 303 428 259 369 259 269 c 2
 259 0 l 1
 84 0 l 1
 84 547 l 1
 259 547 l 1xa5
 259 467 l 1
 311 531 369 560 441 560 c 0
 568 560 634 481 634 333 c 2xc5
369 666 m 2
 342 684 l 2
 341 685 339 686 337 687 c 0
 322 697 310 702 302 702 c 0
 279 702 266 682 266 643 c 2
 266 639 l 1
 198 639 l 1
 198 728 233 778 294 778 c 0x8a80
 317 778 340 770 367 750 c 2
 397 729 l 1
 412 720 424 714 433 714 c 0
 457 714 470 736 470 773 c 2
 470 777 l 1
 538 777 l 1
 538 688 503 638 442 638 c 0x9280
 419 638 400 645 369 666 c 2
EndSplineSet
Validated: 1
EndChar

StartChar: ograve
Encoding: 242 242 202
Width: 687
Flags: W
HStem: -14 125<275.98 411.63> 435 125<275.98 411.63>
VStem: 43 182<169.524 376.476> 462 182<169.524 376.476>
LayerCount: 2
Fore
SplineSet
344 435 m 0
 267 435 225 378 225 273 c 0
 225 168 267 111 344 111 c 0
 420 111 462 168 462 273 c 0
 462 378 420 435 344 435 c 0
344 560 m 0
 532 560 644 453 644 273 c 0
 644 93 532 -14 344 -14 c 0
 156 -14 43 93 43 273 c 0
 43 453 156 560 344 560 c 0
289 800 m 1
 427 616 l 1
 331 616 l 1
 151 800 l 1
 289 800 l 1
EndSplineSet
Validated: 1
EndChar

StartChar: oacute
Encoding: 243 243 203
Width: 687
Flags: W
HStem: -14 125<275.98 411.63> 435 125<275.98 411.63>
VStem: 43 182<169.524 376.476> 462 182<169.524 376.476>
LayerCount: 2
Fore
SplineSet
344 435 m 0
 267 435 225 378 225 273 c 0
 225 168 267 111 344 111 c 0
 420 111 462 168 462 273 c 0
 462 378 420 435 344 435 c 0
344 560 m 0
 532 560 644 453 644 273 c 0
 644 93 532 -14 344 -14 c 0
 156 -14 43 93 43 273 c 0
 43 453 156 560 344 560 c 0
421 800 m 1
 559 800 l 1
 379 616 l 1
 283 616 l 1
 421 800 l 1
EndSplineSet
Validated: 1
EndChar

StartChar: ocircumflex
Encoding: 244 244 204
Width: 687
Flags: W
HStem: -14 125<275.98 411.63> 435 125<275.98 411.63>
VStem: 43 182<169.524 376.476> 462 182<169.524 376.476>
LayerCount: 2
Fore
SplineSet
344 435 m 0
 267 435 225 378 225 273 c 0
 225 168 267 111 344 111 c 0
 420 111 462 168 462 273 c 0
 462 378 420 435 344 435 c 0
344 560 m 0
 532 560 644 453 644 273 c 0
 644 93 532 -14 344 -14 c 0
 156 -14 43 93 43 273 c 0
 43 453 156 560 344 560 c 0
296 800 m 1
 414 800 l 1
 539 616 l 1
 452 616 l 1
 355 726 l 1
 258 616 l 1
 171 616 l 1
 296 800 l 1
EndSplineSet
Validated: 1
EndChar

StartChar: otilde
Encoding: 245 245 205
Width: 687
Flags: W
HStem: -14 125<275.98 411.63> 435 125<275.98 411.63> 638 76<374.472 450.668> 702 76<259.298 334.672>
VStem: 43 182<169.524 376.476> 185 68<639 698.266> 457 68<717.734 777> 462 182<169.524 376.476>
LayerCount: 2
Fore
SplineSet
344 435 m 0xc9
 267 435 225 378 225 273 c 0
 225 168 267 111 344 111 c 0
 420 111 462 168 462 273 c 0
 462 378 420 435 344 435 c 0xc9
344 560 m 0
 532 560 644 453 644 273 c 0
 644 93 532 -14 344 -14 c 0
 156 -14 43 93 43 273 c 0
 43 453 156 560 344 560 c 0
356 666 m 2
 329 684 l 2
 328 685 326 686 324 687 c 0
 309 697 297 702 289 702 c 0
 266 702 253 682 253 643 c 2
 253 639 l 1
 185 639 l 1
 185 728 220 778 281 778 c 0xd6
 304 778 327 770 354 750 c 2
 384 729 l 1
 399 720 411 714 420 714 c 0
 444 714 457 736 457 773 c 2
 457 777 l 1
 525 777 l 1
 525 688 490 638 429 638 c 0xe6
 406 638 387 645 356 666 c 2
EndSplineSet
Validated: 1
EndChar

StartChar: odieresis
Encoding: 246 246 206
Width: 687
Flags: W
HStem: -14 125<275.98 411.63> 435 125<275.98 411.63> 654 120<201 316 394 509>
VStem: 43 182<169.524 376.476> 201 115<654 774> 394 115<654 774> 462 182<169.524 376.476>
LayerCount: 2
Fore
SplineSet
344 435 m 0xf2
 267 435 225 378 225 273 c 0
 225 168 267 111 344 111 c 0
 420 111 462 168 462 273 c 0
 462 378 420 435 344 435 c 0xf2
344 560 m 0
 532 560 644 453 644 273 c 0
 644 93 532 -14 344 -14 c 0
 156 -14 43 93 43 273 c 0
 43 453 156 560 344 560 c 0
201 774 m 1xe8
 316 774 l 1
 316 654 l 1
 201 654 l 1
 201 774 l 1xe8
394 774 m 1xe4
 509 774 l 1
 509 654 l 1
 394 654 l 1
 394 774 l 1xe4
EndSplineSet
Validated: 1
EndChar

StartChar: divide
Encoding: 247 247 207
Width: 838
Flags: W
HStem: 42 151<344 494> 256 115<106 732> 434 151<344 494>
VStem: 344 150<42 193 434 585>
CounterMasks: 1 e0
LayerCount: 2
Fore
SplineSet
344 193 m 1
 494 193 l 1
 494 42 l 1
 344 42 l 1
 344 193 l 1
344 585 m 1
 494 585 l 1
 494 434 l 1
 344 434 l 1
 344 585 l 1
106 371 m 1
 732 371 l 1
 732 256 l 1
 106 256 l 1
 106 371 l 1
EndSplineSet
Validated: 1
EndChar

StartChar: oslash
Encoding: 248 248 208
Width: 687
Flags: W
HStem: -14 125<276.049 411.63> 435 125<275.98 411.93>
VStem: 43 182<208.919 376.476> 462 182<169.524 338.957>
LayerCount: 2
Fore
SplineSet
418 408 m 1
 399 427 375 435 344 435 c 0
 267 435 225 378 225 273 c 0
 225 246 228 225 232 208 c 1
 418 408 l 1
267 140 m 1
 287 120 313 111 344 111 c 0
 420 111 462 168 462 273 c 0
 462 301 459 322 455 341 c 1
 267 140 l 1
109 77 m 1
 65 128 43 193 43 273 c 0
 43 453 156 560 344 560 c 0
 413 560 471 546 520 517 c 1
 592 594 l 1
 645 545 l 1
 576 472 l 1
 621 420 644 354 644 273 c 0
 644 93 532 -14 344 -14 c 0
 275 -14 216 1 165 30 c 1
 93 -46 l 1
 38 0 l 1
 109 77 l 1
EndSplineSet
Validated: 1
EndChar

StartChar: ugrave
Encoding: 249 249 209
Width: 712
Flags: W
HStem: -14 132<208.5 367.427> 0 21G<453 628> 527 20G<78 254 453 628>
VStem: 78 175<148.717 547> 453 175<0 79 176.632 547>
LayerCount: 2
Fore
SplineSet
78 213 m 2xb8
 78 547 l 1
 254 547 l 1
 254 492 l 2
 254 463 254 425 253 380 c 1
 253 291 l 2
 253 203 257 171 268 154 c 0
 283 131 305 118 336 118 c 0xb8
 409 118 453 177 453 277 c 2
 453 547 l 1
 628 547 l 1
 628 0 l 1
 453 0 l 1x78
 453 79 l 1
 401 15 343 -14 272 -14 c 0
 145 -14 78 65 78 213 c 2xb8
302 800 m 1
 440 616 l 1
 344 616 l 1
 164 800 l 1
 302 800 l 1
EndSplineSet
Validated: 1
EndChar

StartChar: uacute
Encoding: 250 250 210
Width: 712
Flags: W
HStem: -14 132<208.5 367.427> 0 21G<453 628> 527 20G<78 254 453 628>
VStem: 78 175<148.717 547> 453 175<0 79 176.632 547>
LayerCount: 2
Fore
SplineSet
78 213 m 2xb8
 78 547 l 1
 254 547 l 1
 254 492 l 2
 254 463 254 425 253 380 c 1
 253 291 l 2
 253 203 257 171 268 154 c 0
 283 131 305 118 336 118 c 0xb8
 409 118 453 177 453 277 c 2
 453 547 l 1
 628 547 l 1
 628 0 l 1
 453 0 l 1x78
 453 79 l 1
 401 15 343 -14 272 -14 c 0
 145 -14 78 65 78 213 c 2xb8
434 800 m 1
 572 800 l 1
 392 616 l 1
 296 616 l 1
 434 800 l 1
EndSplineSet
Validated: 1
EndChar

StartChar: ucircumflex
Encoding: 251 251 211
Width: 712
Flags: W
HStem: -14 132<208.5 367.427> 0 21G<453 628> 527 20G<78 254 453 628>
VStem: 78 175<148.717 547> 453 175<0 79 176.632 547>
LayerCount: 2
Fore
SplineSet
78 213 m 2xb8
 78 547 l 1
 254 547 l 1
 254 492 l 2
 254 463 254 425 253 380 c 1
 253 291 l 2
 253 203 257 171 268 154 c 0
 283 131 305 118 336 118 c 0xb8
 409 118 453 177 453 277 c 2
 453 547 l 1
 628 547 l 1
 628 0 l 1
 453 0 l 1x78
 453 79 l 1
 401 15 343 -14 272 -14 c 0
 145 -14 78 65 78 213 c 2xb8
309 800 m 1
 427 800 l 1
 552 616 l 1
 465 616 l 1
 368 726 l 1
 271 616 l 1
 184 616 l 1
 309 800 l 1
EndSplineSet
Validated: 1
EndChar

StartChar: udieresis
Encoding: 252 252 212
Width: 712
Flags: W
HStem: -14 132<208.5 367.427> 0 21G<453 628> 527 20G<78 254 453 628> 654 120<214 329 407 522>
VStem: 78 175<148.717 547> 214 115<654 774> 407 115<654 774> 453 175<0 79 176.632 547>
LayerCount: 2
Fore
SplineSet
78 213 m 2xb9
 78 547 l 1
 254 547 l 1
 254 492 l 2
 254 463 254 425 253 380 c 1
 253 291 l 2
 253 203 257 171 268 154 c 0
 283 131 305 118 336 118 c 0xb9
 409 118 453 177 453 277 c 2
 453 547 l 1
 628 547 l 1
 628 0 l 1
 453 0 l 1x79
 453 79 l 1
 401 15 343 -14 272 -14 c 0
 145 -14 78 65 78 213 c 2xb9
214 774 m 1x34
 329 774 l 1
 329 654 l 1
 214 654 l 1
 214 774 l 1x34
407 774 m 1x32
 522 774 l 1
 522 654 l 1
 407 654 l 1
 407 774 l 1x32
EndSplineSet
Validated: 1
EndChar

StartChar: yacute
Encoding: 253 253 213
Width: 652
Flags: W
HStem: -216 115<100 228.429> 527 20G<12 194.925 452.261 634>
LayerCount: 2
Fore
SplineSet
12 547 m 1
 187 547 l 1
 334 176 l 1
 459 547 l 1
 634 547 l 1
 404 -52 l 2
 381 -113 354 -155 323 -179 c 0
 292 -204 252 -216 201 -216 c 2
 100 -216 l 1
 100 -101 l 1
 155 -101 l 2
 214 -101 236 -85 251 -36 c 1
 256 -21 l 1
 12 547 l 1
392 800 m 1
 530 800 l 1
 350 616 l 1
 254 616 l 1
 392 800 l 1
EndSplineSet
Validated: 1
EndChar

StartChar: thorn
Encoding: 254 254 214
Width: 716
Flags: W
HStem: -208 21G<84 259> -14 127<342.08 474.533> 433 127<342.08 474.533> 740 20G<84 259>
VStem: 84 175<-208 79 167.605 378.395 467 760> 490 181<167.457 378.125>
LayerCount: 2
Fore
SplineSet
259 79 m 1
 259 -208 l 1
 84 -208 l 1
 84 760 l 1
 259 760 l 1
 259 467 l 1
 307 531 364 560 440 560 c 0
 507 560 563 533 606 479 c 0
 649 426 671 357 671 273 c 0
 671 188 649 119 606 66 c 0
 563 13 507 -14 440 -14 c 0
 364 -14 307 15 259 79 c 1
375 433 m 0
 300 433 259 377 259 273 c 0
 259 169 300 113 375 113 c 0
 450 113 490 169 490 273 c 0
 490 377 450 433 375 433 c 0
EndSplineSet
Validated: 1
EndChar

StartChar: ydieresis
Encoding: 255 255 215
Width: 652
Flags: W
HStem: -216 115<100 228.429> 527 20G<12 194.925 452.261 634> 654 120<172 287 365 480>
VStem: 172 115<654 774> 365 115<654 774>
LayerCount: 2
Fore
SplineSet
12 547 m 1
 187 547 l 1
 334 176 l 1
 459 547 l 1
 634 547 l 1
 404 -52 l 2
 381 -113 354 -155 323 -179 c 0
 292 -204 252 -216 201 -216 c 2
 100 -216 l 1
 100 -101 l 1
 155 -101 l 2
 214 -101 236 -85 251 -36 c 1
 256 -21 l 1
 12 547 l 1
172 774 m 1
 287 774 l 1
 287 654 l 1
 172 654 l 1
 172 774 l 1
365 774 m 1
 480 774 l 1
 480 654 l 1
 365 654 l 1
 365 774 l 1
EndSplineSet
Validated: 1
EndChar

StartChar: fraction
Encoding: 8260 8260 216
Width: 167
Flags: W
HStem: -14 21G<-199 -77.9365> 722 20G<244.937 366>
LayerCount: 2
Fore
SplineSet
-90 -14 m 1
 -199 -14 l 1
 257 742 l 1
 366 742 l 1
 -90 -14 l 1
EndSplineSet
Validated: 1
EndChar

StartChar: fi
Encoding: 64257 64257 217
Width: 741
Flags: W
HStem: 0 21G<107 283 481 657> 422 125<21 107 283 481> 617 143<481 657> 645 115<291.94 445>
VStem: 107 176<0 422 547 636.194> 481 176<0 422 617 760>
LayerCount: 2
Fore
SplineSet
481 760 m 1xec
 657 760 l 1
 657 617 l 1
 481 617 l 1
 481 760 l 1xec
445 760 m 1xdc
 445 645 l 1
 348 645 l 2
 300 645 283 629 283 585 c 2
 283 547 l 1
 657 547 l 1
 657 0 l 1
 481 0 l 1
 481 422 l 1
 283 422 l 1
 283 0 l 1
 107 0 l 1
 107 422 l 1
 21 422 l 1
 21 547 l 1
 107 547 l 1
 107 585 l 2
 107 704 172 760 311 760 c 2
 445 760 l 1xdc
EndSplineSet
Validated: 1
Ligature2: "sous-table 'liga' Ligatures standard dans Latin lookup 6" f i
EndChar

StartChar: fl
Encoding: 64258 64258 218
Width: 741
Flags: W
HStem: 0 21G<106 281 481 657> 422 125<19 106 281 418> 645 115<290.94 481>
VStem: 106 175<0 422 547 636.194> 481 176<0 645>
LayerCount: 2
Fore
SplineSet
310 760 m 2
 657 760 l 1
 657 0 l 1
 481 0 l 1
 481 645 l 1
 347 645 l 2
 298 645 281 629 281 585 c 2
 281 547 l 1
 418 547 l 1
 418 422 l 1
 281 422 l 1
 281 0 l 1
 106 0 l 1
 106 422 l 1
 19 422 l 1
 19 547 l 1
 106 547 l 1
 106 585 l 2
 106 704 171 760 310 760 c 2
EndSplineSet
Validated: 1
Ligature2: "sous-table 'liga' Ligatures standard dans Latin lookup 7" f l
EndChar

StartChar: breve
Encoding: 728 728 219
Width: 500
Flags: W
HStem: 639 75<181.528 318.472>
VStem: 86 70<739.736 784> 344 70<739.736 784>
LayerCount: 2
Fore
SplineSet
86 784 m 1
 156 784 l 1
 163 739 195 714 250 714 c 0
 305 714 337 739 344 784 c 1
 414 784 l 1
 410 691 351 639 250 639 c 0
 149 639 90 691 86 784 c 1
EndSplineSet
Validated: 1
EndChar

StartChar: dotaccent
Encoding: 729 729 220
Width: 500
Flags: W
HStem: 654 120<183 317>
VStem: 183 134<654 774>
LayerCount: 2
Fore
SplineSet
183 774 m 1
 317 774 l 1
 317 654 l 1
 183 654 l 1
 183 774 l 1
EndSplineSet
Validated: 1
EndChar

StartChar: ring
Encoding: 730 730 221
Width: 500
Flags: W
HStem: 610 75<201.991 297.469> 813 75<202.327 297.294>
VStem: 111 75<701.327 796.806> 314 75<700.991 796.294>
LayerCount: 2
Fore
SplineSet
186 749 m 0
 186 713 215 685 250 685 c 0
 286 685 314 714 314 749 c 0
 314 784 285 813 250 813 c 0
 214 813 186 784 186 749 c 0
111 749 m 0
 111 788 124 820 151 847 c 0
 178 874 211 888 250 888 c 0
 289 888 321 874 348 847 c 0
 375 820 389 788 389 749 c 0
 389 710 375 677 348 650 c 0
 321 623 289 610 250 610 c 0
 211 610 178 623 151 650 c 0
 124 677 111 710 111 749 c 0
EndSplineSet
Validated: 1
EndChar

StartChar: hungarumlaut
Encoding: 733 733 222
Width: 500
Flags: W
HStem: 616 184
LayerCount: 2
Fore
SplineSet
189 800 m 1
 295 800 l 1
 174 616 l 1
 94 616 l 1
 189 800 l 1
366 800 m 1
 479 800 l 1
 346 616 l 1
 261 616 l 1
 366 800 l 1
EndSplineSet
Validated: 1
EndChar

StartChar: ogonek
Encoding: 731 731 223
Width: 500
Flags: W
HStem: -196 72<253.122 374.527> -20 20G<202.5 290>
VStem: 167 80<-116.563 -41.4765>
LayerCount: 2
Fore
SplineSet
221 0 m 1
 290 0 l 1
 258 -44 247 -64 247 -81 c 0
 247 -106 268 -124 300 -124 c 0
 325 -124 349 -120 376 -109 c 1
 376 -185 l 1
 340 -192 310 -196 283 -196 c 0
 208 -196 167 -165 167 -109 c 0
 167 -74 184 -40 221 0 c 1
EndSplineSet
Validated: 1
EndChar

StartChar: caron
Encoding: 711 711 224
Width: 500
Flags: W
HStem: 616 184
LayerCount: 2
Fore
SplineSet
191 616 m 1
 66 800 l 1
 153 800 l 1
 250 689 l 1
 347 800 l 1
 434 800 l 1
 309 616 l 1
 191 616 l 1
EndSplineSet
Validated: 1
EndChar

StartChar: Lslash
Encoding: 321 321 225
Width: 642
Flags: W
HStem: 0 142<285 615> 709 20G<97 285>
VStem: 97 188<142 256 526 729>
LayerCount: 2
Fore
SplineSet
97 729 m 1
 285 729 l 1
 285 526 l 1
 409 616 l 1
 479 522 l 1
 285 389 l 1
 285 142 l 1
 615 142 l 1
 615 0 l 1
 97 0 l 1
 97 256 l 1
 25 204 l 1
 -45 297 l 1
 97 393 l 1
 97 729 l 1
EndSplineSet
Validated: 1
Position2: "sous-table 'cpsp' Chasses pour composition en capitales dans Latin lookup 1" dx=5 dy=0 dh=10 dv=0
EndChar

StartChar: dotlessi
Encoding: 305 305 226
Width: 343
Flags: W
HStem: 0 21G<84 259> 527 20G<84 259>
VStem: 84 175<0 547>
LayerCount: 2
Fore
SplineSet
84 547 m 1
 259 547 l 1
 259 0 l 1
 84 0 l 1
 84 547 l 1
EndSplineSet
Validated: 1
EndChar

StartChar: lslash
Encoding: 322 322 227
Width: 371
Flags: W
HStem: 0 21G<97 273> 538 20G<306.698 350.4> 740 20G<97 273>
VStem: 97 176<0 313 515 760>
LayerCount: 2
Fore
SplineSet
97 760 m 1
 273 760 l 1
 273 515 l 1
 336 558 l 1
 390 483 l 1
 273 403 l 1
 273 0 l 1
 97 0 l 1
 97 313 l 1
 36 271 l 1
 -18 346 l 1
 97 426 l 1
 97 760 l 1
EndSplineSet
Validated: 1
EndChar

StartChar: Zcaron
Encoding: 381 381 228
Width: 725
Flags: W
HStem: 0 142<278 680> 587 142<56 436>
LayerCount: 2
Fore
SplineSet
56 729 m 1
 669 729 l 1
 669 615 l 1
 278 142 l 1
 680 142 l 1
 680 0 l 1
 45 0 l 1
 45 114 l 1
 436 587 l 1
 56 587 l 1
 56 729 l 1
276 798 m 1
 167 927 l 1
 254 927 l 1
 351 848 l 1
 448 927 l 1
 535 927 l 1
 426 798 l 1
 276 798 l 1
EndSplineSet
Validated: 1
Position2: "sous-table 'cpsp' Chasses pour composition en capitales dans Latin lookup 1" dx=5 dy=0 dh=10 dv=0
EndChar

StartChar: zcaron
Encoding: 382 382 229
Width: 582
Flags: W
HStem: 0 125<246 534> 422 125<57 333>
LayerCount: 2
Fore
SplineSet
57 547 m 1
 534 547 l 1
 534 425 l 1
 246 125 l 1
 534 125 l 1
 534 0 l 1
 45 0 l 1
 45 122 l 1
 333 422 l 1
 57 422 l 1
 57 547 l 1
232 616 m 1
 107 800 l 1
 194 800 l 1
 291 689 l 1
 388 800 l 1
 475 800 l 1
 350 616 l 1
 232 616 l 1
EndSplineSet
Validated: 1
EndChar

StartChar: notequal
Encoding: 8800 8800 231
Width: 838
Flags: W
HStem: -5 21G<199.452 239.51> 144 116<106 221 443 732> 367 115<106 399 617 732>
LayerCount: 2
Fore
SplineSet
106 482 m 1
 492 482 l 1
 615 631 l 1
 688 570 l 1
 617 482 l 1
 732 482 l 1
 732 367 l 1
 528 367 l 1
 443 260 l 1
 732 260 l 1
 732 144 l 1
 346 144 l 1
 223 -5 l 1
 150 57 l 1
 221 144 l 1
 106 144 l 1
 106 260 l 1
 313 260 l 1
 399 367 l 1
 106 367 l 1
 106 482 l 1
EndSplineSet
Validated: 1
EndChar

StartChar: infinity
Encoding: 8734 8734 232
Width: 833
Flags: W
HStem: 91 121<185.727 299.732 511.17 653.788> 383 121<181.862 320.196 532.736 648.635>
VStem: 95 59<240.283 355.766> 680 59<238.803 353.085>
LayerCount: 2
Fore
SplineSet
467 274 m 1
 495 230 533 208 581 208 c 0
 640 208 680 244 680 296 c 0
 680 345 642 383 593 383 c 0
 546 383 511 353 467 274 c 1
367 321 m 1
 339 365 302 386 253 386 c 0
 194 386 154 350 154 299 c 0
 154 248 192 212 241 212 c 0
 288 212 324 244 367 321 c 1
418 216 m 1
 374 131 323 91 260 91 c 0
 215 91 176 111 143 150 c 0
 111 189 95 238 95 297 c 0
 95 358 109 408 138 446 c 0
 167 484 204 503 249 503 c 0
 308 503 352 471 416 378 c 1
 463 463 513 504 574 504 c 0
 620 504 659 484 691 445 c 0
 723 406 739 357 739 298 c 0
 739 237 725 187 696 148 c 0
 667 110 630 91 585 91 c 0
 526 91 483 121 418 216 c 1
EndSplineSet
Validated: 1
EndChar

StartChar: lessequal
Encoding: 8804 8804 233
Width: 838
Flags: W
HStem: 0 116<106 732>
LayerCount: 2
Fore
SplineSet
732 116 m 1
 732 0 l 1
 106 0 l 1
 106 116 l 1
 732 116 l 1
732 463 m 1
 294 361 l 1
 732 259 l 1
 732 140 l 1
 106 304 l 1
 106 419 l 1
 732 582 l 1
 732 463 l 1
EndSplineSet
Validated: 1
EndChar

StartChar: greaterequal
Encoding: 8805 8805 234
Width: 838
Flags: W
HStem: 0 116<106 732>
LayerCount: 2
Fore
SplineSet
106 116 m 1
 732 116 l 1
 732 0 l 1
 106 0 l 1
 106 116 l 1
106 463 m 1
 106 582 l 1
 732 419 l 1
 732 304 l 1
 106 140 l 1
 106 259 l 1
 544 361 l 1
 106 463 l 1
EndSplineSet
Validated: 1
EndChar

StartChar: partialdiff
Encoding: 8706 8706 235
Width: 544
Flags: W
HStem: -12 37<189.18 276.489> 376 44<224.372 316.484> 610 55<272.5 375.473>
VStem: 29 133<94.9823 287.108> 395 120<336.191 513.005>
LayerCount: 2
Fore
SplineSet
374 334 m 1
 387 407 395 471 395 508 c 0
 395 564 372 610 347 610 c 0
 336 610 314 595 282 564 c 0
 251 534 222 519 195 519 c 0
 163 519 140 544 140 576 c 0
 140 599 155 619 185 637 c 0
 216 656 252 665 293 665 c 0
 362 665 416 639 455 586 c 1
 495 534 515 462 515 371 c 0
 515 259 488 167 435 95 c 0
 382 24 315 -12 232 -12 c 0
 173 -12 124 7 86 45 c 0
 48 83 29 132 29 191 c 0
 29 257 48 312 87 355 c 0
 126 398 175 420 233 420 c 0
 298 420 342 393 374 334 c 1
341 260 m 0
 341 333 316 376 272 376 c 0
 241 376 214 354 193 309 c 0
 172 265 162 209 162 140 c 0
 162 64 187 25 232 25 c 0
 263 25 289 47 310 91 c 0
 331 135 341 191 341 260 c 0
EndSplineSet
Validated: 1
EndChar

StartChar: summation
Encoding: 8721 8721 236
Width: 718
Flags: W
HStem: -192 130<241 697> 590 129<242 671>
LayerCount: 2
Fore
SplineSet
32 719 m 1
 671 719 l 1
 671 590 l 1
 242 590 l 1
 545 275 l 1
 241 -62 l 1
 697 -62 l 1
 697 -192 l 1
 20 -192 l 1
 20 -108 l 1
 361 269 l 1
 32 606 l 1
 32 719 l 1
EndSplineSet
Validated: 1
EndChar

StartChar: product
Encoding: 8719 8719 237
Width: 787
Flags: W
HStem: 578 141<241 544>
VStem: 73 168<-192 578> 544 168<-192 578>
LayerCount: 2
Fore
SplineSet
73 719 m 1
 712 719 l 1
 712 -192 l 1
 544 -192 l 1
 544 578 l 1
 241 578 l 1
 241 -192 l 1
 73 -192 l 1
 73 719 l 1
EndSplineSet
Validated: 1
EndChar

StartChar: pi
Encoding: 960 960 238
Width: 644
Flags: W
HStem: 0 21G<85 228.491 341 484.538> 424 109<101.647 159 299 415 556 642>
VStem: -17 104<360 410.098>
LayerCount: 2
Fore
SplineSet
661 533 m 1
 642 424 l 1
 556 424 l 1
 481 0 l 1
 341 0 l 1
 415 424 l 1
 299 424 l 1
 225 0 l 1
 85 0 l 1
 159 424 l 1
 147 424 l 2
 111 424 94 405 87 360 c 1
 -17 360 l 1
 -8 425 12 470 43 495 c 0
 74 520 124 533 195 533 c 2
 661 533 l 1
EndSplineSet
Validated: 1
EndChar

StartChar: integral
Encoding: 8747 8747 239
Width: 610
Flags: W
HStem: -182 61<105.5 197.904> 700 60<413.281 505>
VStem: 25 135<-120.622 -37.5942> 235 138<55.2477 499.125> 451 135<615.48 698.235>
LayerCount: 2
Fore
SplineSet
177 -121 m 0
 209 -121 228 -12 235 205 c 0
 236 238 236 263 237 280 c 0
 242 450 263 572 300 647 c 0
 337 722 394 760 471 760 c 0
 539 760 586 722 586 667 c 0
 586 626 557 597 514 597 c 0
 473 597 451 623 451 671 c 0
 451 695 447 700 435 700 c 0
 402 700 382 592 375 375 c 0
 374 355 374 340 373 330 c 0
 370 223 365 146 358 99 c 0
 352 52 343 13 330 -20 c 0
 290 -128 227 -182 140 -182 c 0
 71 -182 25 -145 25 -89 c 0
 25 -46 55 -19 100 -19 c 0
 139 -19 161 -43 161 -87 c 0
 161 -91 161 -95 160 -99 c 1
 160 -100 l 2
 160 -116 165 -121 177 -121 c 0
EndSplineSet
Validated: 1
EndChar

StartChar: Omega
Encoding: 8486 8486 240
Width: 769
Flags: W
HStem: 0 125<27 169 599 741> 606 131<293.871 474.013>
VStem: 48 150<273.23 503.789> 570 150<273.23 503.789>
LayerCount: 2
Fore
SplineSet
599 125 m 1
 741 125 l 1
 741 0 l 1
 444 0 l 1
 444 142 l 1
 525 198 570 286 570 393 c 0
 570 525 500 606 384 606 c 0
 268 606 198 525 198 393 c 0
 198 286 243 198 324 142 c 1
 324 0 l 1
 27 0 l 1
 27 125 l 1
 169 125 l 1
 86 204 48 293 48 400 c 0
 48 502 78 584 139 645 c 0
 200 706 282 737 384 737 c 0
 486 737 567 706 628 645 c 0
 689 584 720 502 720 400 c 0
 720 293 682 204 599 125 c 1
EndSplineSet
Validated: 1
EndChar

StartChar: radical
Encoding: 8730 8730 241
Width: 667
Flags: W
HStem: 764 73<622 669>
LayerCount: 2
Fore
SplineSet
564 837 m 1
 669 837 l 1
 669 764 l 1
 622 764 l 1
 334 -20 l 1
 276 -20 l 1
 126 393 l 1
 55 366 l 1
 37 429 l 1
 213 491 l 1
 322 181 l 1
 564 837 l 1
EndSplineSet
Validated: 1
EndChar

StartChar: approxequal
Encoding: 8776 8776 242
Width: 838
Flags: W
HStem: 121 114<458.339 648.217> 188 114<190.353 379.661> 325 114<458.339 646.877> 392 113<191.565 379.958>
LayerCount: 2
Fore
SplineSet
732 517 m 1x20
 732 398 l 1
 663 346 609 325 546 325 c 0x20
 511 325 471 335 424 354 c 0
 419 355 416 357 413 358 c 0
 411 359 407 360 402 362 c 0
 352 382 312 392 281 392 c 0
 224 392 170 367 106 314 c 1
 106 433 l 1
 174 484 229 505 292 505 c 0x10
 328 505 370 495 417 476 c 0
 420 475 423 474 425 473 c 0
 428 472 431 471 436 469 c 0
 486 449 526 439 557 439 c 0
 613 439 665 462 732 517 c 1x20
732 313 m 1
 732 194 l 1
 663 142 609 121 546 121 c 0x80
 511 121 471 130 424 149 c 0
 419 151 416 153 413 154 c 0
 411 155 407 156 402 158 c 0
 352 178 312 188 281 188 c 0
 224 188 170 165 106 110 c 1
 106 229 l 1
 175 281 229 302 292 302 c 0x40
 327 302 367 292 414 273 c 0
 419 272 422 270 425 269 c 0
 428 268 431 267 436 265 c 0
 486 245 526 235 557 235 c 0x80
 613 235 665 257 732 313 c 1
EndSplineSet
Validated: 1
EndChar

StartChar: increment
Encoding: 57355 57355 243
Width: 697
Flags: W
HStem: 0 125<189 508>
LayerCount: 2
Fore
SplineSet
348 542 m 1
 189 125 l 1
 508 125 l 1
 348 542 l 1
275 719 m 1
 422 719 l 1
 697 0 l 1
 0 0 l 1
 275 719 l 1
EndSplineSet
Validated: 1
EndChar

StartChar: lozenge
Encoding: 9674 9674 245
Width: 494
Flags: W
LayerCount: 2
Fore
SplineSet
247 688 m 1
 59 289 l 1
 247 -114 l 1
 435 289 l 1
 247 688 l 1
247 807 m 1
 491 289 l 1
 247 -233 l 1
 3 289 l 1
 247 807 l 1
EndSplineSet
Validated: 1
EndChar

StartChar: middot
Encoding: 57356 57356 246
Width: 380
Flags: W
HStem: 253 189<102 278>
VStem: 102 176<253 442>
LayerCount: 2
Fore
SplineSet
102 442 m 1
 278 442 l 1
 278 253 l 1
 102 253 l 1
 102 442 l 1
EndSplineSet
Validated: 1
EndChar

StartChar: overscore
Encoding: 57358 57358 247
Width: 500
Flags: W
HStem: 668 92<96 404>
VStem: 96 308<668 760>
LayerCount: 2
Fore
SplineSet
96 760 m 1
 404 760 l 1
 404 668 l 1
 96 668 l 1
 96 760 l 1
EndSplineSet
Validated: 1
EndChar

StartChar: Gbreve
Encoding: 286 286 248
Width: 821
Flags: W
HStem: -14 136<363.377 567.797> 279 126<454 569> 606 136<367.03 614.46> 798 70<329.849 468.151>
VStem: 50 194<243.649 482.16> 235 70<893.893 927> 493 70<893.893 927> 569 178<130.016 279>
LayerCount: 2
Fore
SplineSet
747 54 m 1xfb
 654 9 552 -14 445 -14 c 0
 324 -14 227 20 156 87 c 0
 85 155 50 247 50 364 c 0
 50 481 86 574 158 641 c 0
 231 708 330 742 455 742 c 0
 552 742 641 724 720 688 c 1
 720 537 l 1
 639 584 559 606 478 606 c 0
 329 606 244 519 244 364 c 0
 244 209 325 122 469 122 c 0
 509 122 542 126 569 137 c 1
 569 279 l 1
 454 279 l 1
 454 405 l 1
 747 405 l 1
 747 54 l 1xfb
235 927 m 1xf7
 305 927 l 1
 318 887 350 868 399 868 c 0
 448 868 480 887 493 927 c 1
 563 927 l 1
 552 843 495 798 399 798 c 0
 303 798 246 843 235 927 c 1xf7
EndSplineSet
Validated: 1
EndChar

StartChar: gbreve
Encoding: 287 287 249
Width: 716
Flags: W
HStem: -216 116<175.839 391.637> 0 127<273.401 373.315> 433 126<242.13 373.315> 527 20G<456 632> 639 75<289.528 426.472>
VStem: 45 181<178.749 378.969> 194 70<739.736 784> 452 70<739.736 784> 456 176<-35.3647 93 180.252 379.748 466 547>
LayerCount: 2
Fore
SplineSet
456 93 m 1xdc80
 408 29 352 0 276 0 c 0
 209 0 154 26 110 79 c 0
 67 132 45 199 45 280 c 0
 45 361 67 428 110 480 c 0
 154 533 209 559 276 559 c 0xec80
 352 559 408 530 456 466 c 1
 456 547 l 1
 632 547 l 1
 632 55 l 2
 632 -121 518 -216 307 -216 c 0
 239 -216 176 -205 112 -184 c 1
 112 -48 l 1
 173 -83 231 -100 290 -100 c 0
 405 -100 456 -52 456 55 c 2
 456 93 l 1xdc80
341 433 m 0
 269 433 226 377 226 280 c 0
 226 180 266 127 341 127 c 0
 414 127 456 183 456 280 c 0
 456 377 414 433 341 433 c 0
194 784 m 1xcb
 264 784 l 1
 271 739 303 714 358 714 c 0
 413 714 445 739 452 784 c 1
 522 784 l 1
 518 691 459 639 358 639 c 0
 257 639 198 691 194 784 c 1xcb
EndSplineSet
Validated: 1
EndChar

StartChar: Idot
Encoding: 57345 57345 250
Width: 372
Flags: W
HStem: 0 21G<92 280> 709 20G<92 280> 807 120<107 241>
VStem: 92 188<0 729> 107 134<807 927>
LayerCount: 2
Fore
SplineSet
92 729 m 1xf0
 280 729 l 1
 280 0 l 1
 92 0 l 1
 92 729 l 1xf0
107 927 m 1xe8
 241 927 l 1
 241 807 l 1
 107 807 l 1
 107 927 l 1xe8
EndSplineSet
Validated: 1
EndChar

StartChar: Scedilla
Encoding: 350 350 251
Width: 720
Flags: W
HStem: -196 72<237.568 370.928> -13.8883 135.888<207.164 358.576> 552 21G<559 599> 606 136<272.597 511.079>
VStem: 72 170<484.896 579.498> 377 80<-116.074 -41.7998> 466 181<153.819 251.91>
LayerCount: 2
Fore
SplineSet
599 706 m 1
 599 552 l 1
 519 588 442 606 374 606 c 0
 285 606 242 582 242 530 c 0
 242 490 267 472 343 456 c 2
 423 440 l 2
 584 408 647 347 647 224 c 0
 647 79.8984861042 570.752611216 2.31065178572 412.413490988 -11.6856739886 c 1
 442.381786315 -46.6905541831 457.000000025 -77.0634617097 457 -105 c 0
 457 -166 418 -196 335 -196 c 0
 304 -196 271 -191 236 -183 c 1
 236 -109 l 1
 268 -120 296 -124 317 -124 c 0
 354 -124 377 -109 377 -82 c 0
 377 -67.1036319896 366.250432808 -45.296827927 344.078485363 -13.8883355608 c 1
 256.209307191 -12.3704233759 166.650330488 4.6369723944 78 38 c 1
 78 197 l 1
 171 148 258 122 339 122 c 0
 420 122 466 150 466 201 c 0
 466 246 443 267 355 287 c 2
 282 303 l 2
 137 335 72 400 72 516 c 0
 72 661 168 742 344 742 c 0
 424 742 508 730 599 706 c 1
EndSplineSet
Validated: 524289
EndChar

StartChar: scedilla
Encoding: 351 351 252
Width: 595
Flags: W
HStem: -196 72<177.568 310.928> -13.9668 115.967<132.807 298.607> 444 116<217.105 439.721>
VStem: 52 154<360.007 429.828> 317 80<-116.145 -42.3598> 382 166<119.867 195.67>
LayerCount: 2
Fore
SplineSet
511 530 m 1xf4
 511 397 l 1
 436 428 367 444 304 444 c 0
 237 444 206 428 206 393 c 0
 206 365 227 352 290 344 c 2
 321 340 l 2
 410 329 470 310 501 284 c 0
 532 258 548 217 548 161 c 0xf4
 548 59.7122949644 482.431396369 1.88285047487 351.959916199 -11.1568793873 c 1
 382.234296077 -46.3848143136 396.999999991 -76.9228824402 397 -105 c 0
 397 -166 358 -196 275 -196 c 0
 244 -196 211 -191 176 -183 c 1
 176 -109 l 1
 208 -120 236 -124 257 -124 c 0
 294 -124 317 -109 317 -82 c 0xf8
 317 -67.1160394414 306.268332364 -45.3331496885 284.133863825 -13.9667976683 c 1
 214.051106482 -13.2904423951 138.43194795 -2.27080003566 60 20 c 1
 60 153 l 1
 129 118 203 102 279 102 c 0
 347 102 382 121 382 158 c 0
 382 190 364 203 293 211 c 1
 262 215 l 2
 107 234 52 282 52 389 c 0
 52 505 130 560 294 560 c 0
 358 560 428 550 511 530 c 1xf4
EndSplineSet
Validated: 8912897
EndChar

StartChar: Cacute
Encoding: 262 262 253
Width: 734
Flags: W
HStem: -14 136<359.145 579.812> 606 136<359.145 579.812>
VStem: 50 194<246.845 481.132>
LayerCount: 2
Fore
SplineSet
670 40 m 1
 601 4 526 -14 445 -14 c 0
 324 -14 227 20 156 87 c 0
 85 155 50 247 50 364 c 0
 50 481 85 573 156 640 c 0
 227 708 324 742 445 742 c 0
 526 742 601 724 670 688 c 1
 670 537 l 1
 601 585 535 606 460 606 c 0
 325 606 244 515 244 364 c 0
 244 213 325 122 460 122 c 0
 535 122 601 143 670 191 c 1
 670 40 l 1
450 927 m 1
 588 927 l 1
 449 798 l 1
 353 798 l 1
 450 927 l 1
EndSplineSet
Validated: 1
EndChar

StartChar: cacute
Encoding: 263 263 254
Width: 593
Flags: W
HStem: -14 125<295.406 482.34> 435 125<295.406 478.908>
VStem: 43 182<179.685 366.315>
LayerCount: 2
Fore
SplineSet
526 530 m 1
 526 387 l 1
 478 420 431 435 380 435 c 0
 283 435 225 376 225 273 c 0
 225 170 283 111 380 111 c 0
 435 111 485 127 526 159 c 1
 526 16 l 1
 471 -4 414 -14 358 -14 c 0
 161 -14 43 93 43 273 c 0
 43 453 161 560 358 560 c 0
 415 560 470 550 526 530 c 1
419 800 m 1
 557 800 l 1
 377 616 l 1
 281 616 l 1
 419 800 l 1
EndSplineSet
Validated: 1
EndChar

StartChar: Ccaron
Encoding: 268 268 255
Width: 734
Flags: W
HStem: -14 136<359.145 579.812> 606 136<359.145 579.812>
VStem: 50 194<246.845 481.132>
LayerCount: 2
Fore
SplineSet
670 40 m 1
 601 4 526 -14 445 -14 c 0
 324 -14 227 20 156 87 c 0
 85 155 50 247 50 364 c 0
 50 481 85 573 156 640 c 0
 227 708 324 742 445 742 c 0
 526 742 601 724 670 688 c 1
 670 537 l 1
 601 585 535 606 460 606 c 0
 325 606 244 515 244 364 c 0
 244 213 325 122 460 122 c 0
 535 122 601 143 670 191 c 1
 670 40 l 1
350 798 m 1
 241 927 l 1
 328 927 l 1
 425 848 l 1
 522 927 l 1
 609 927 l 1
 500 798 l 1
 350 798 l 1
EndSplineSet
Validated: 1
EndChar

StartChar: ccaron
Encoding: 269 269 256
Width: 593
Flags: W
HStem: -14 125<295.406 482.34> 435 125<295.406 478.908>
VStem: 43 182<179.685 366.315>
LayerCount: 2
Fore
SplineSet
526 530 m 1
 526 387 l 1
 478 420 431 435 380 435 c 0
 283 435 225 376 225 273 c 0
 225 170 283 111 380 111 c 0
 435 111 485 127 526 159 c 1
 526 16 l 1
 471 -4 414 -14 358 -14 c 0
 161 -14 43 93 43 273 c 0
 43 453 161 560 358 560 c 0
 415 560 470 550 526 530 c 1
294 616 m 1
 169 800 l 1
 256 800 l 1
 353 689 l 1
 450 800 l 1
 537 800 l 1
 412 616 l 1
 294 616 l 1
EndSplineSet
Validated: 1
EndChar

StartChar: dslash
Encoding: 57354 57354 257
Width: 716
Flags: W
HStem: -14 127<241.467 373.649> 0 21G<456 632> 433 127<241.467 373.649> 604 100<297 456 632 707> 740 20G<456 632>
VStem: 45 181<167.457 378.125> 456 176<0 79 167.605 378.395 467 604 704 760>
LayerCount: 2
Fore
SplineSet
456 467 m 1xbe
 456 604 l 1
 297 604 l 1
 297 704 l 1
 456 704 l 1
 456 760 l 1
 632 760 l 1
 632 704 l 1
 707 704 l 1
 707 604 l 1
 632 604 l 1
 632 0 l 1
 456 0 l 1x7e
 456 79 l 1
 408 15 352 -14 276 -14 c 0
 209 -14 153 13 110 66 c 0
 67 119 45 188 45 273 c 0
 45 357 67 426 110 479 c 0
 153 533 209 560 276 560 c 0
 352 560 408 531 456 467 c 1xbe
341 113 m 0xbe
 416 113 456 169 456 273 c 0
 456 377 416 433 341 433 c 0
 266 433 226 377 226 273 c 0
 226 169 266 113 341 113 c 0xbe
EndSplineSet
Validated: 1
EndChar

StartChar: sfthyphen
Encoding: 57359 57359 258
Width: 415
Flags: W
HStem: 217 142<54 361>
VStem: 54 307<217 359>
LayerCount: 2
Fore
SplineSet
54 359 m 1
 361 359 l 1
 361 217 l 1
 54 217 l 1
 54 359 l 1
EndSplineSet
Validated: 1
EndChar

StartChar: c6459
Encoding: 57346 57346 259
Width: 500
Flags: W
HStem: 625 120<96 211 289 404>
VStem: 96 115<625 745> 289 115<625 745>
LayerCount: 2
Fore
SplineSet
96 745 m 1
 211 745 l 1
 211 625 l 1
 96 625 l 1
 96 745 l 1
289 745 m 1
 404 745 l 1
 404 625 l 1
 289 625 l 1
 289 745 l 1
EndSplineSet
Validated: 1
EndChar

StartChar: c6460
Encoding: 57347 57347 260
Width: 500
Flags: W
HStem: 616 129
VStem: 178 235
LayerCount: 2
Fore
SplineSet
275 745 m 1
 413 745 l 1
 274 616 l 1
 178 616 l 1
 275 745 l 1
EndSplineSet
Validated: 1
EndChar

StartChar: c6461
Encoding: 57348 57348 261
Width: 500
Flags: W
HStem: 616 73<266.556 345.308> 673 73<154.772 233.004>
VStem: 80 68<616 667.235> 352 67<694.765 746>
LayerCount: 2
Fore
SplineSet
251 640 m 2xb0
 224 657 l 2
 223 658 221 659 219 660 c 0
 204 669 192 673 183 673 c 0x70
 162 673 148 652 148 619 c 2
 148 616 l 1
 80 616 l 1xb0
 80 620 81 627 81 631 c 0
 81 700 119 746 176 746 c 0x70
 200 746 224 738 249 722 c 2
 278 703 l 2
 291 694 304 689 315 689 c 0xb0
 339 689 352 709 352 746 c 1
 420 746 l 1x70
 420 742 419 734 419 731 c 0
 419 662 381 616 324 616 c 0
 300 616 278 623 251 640 c 2xb0
EndSplineSet
Validated: 1
EndChar

StartChar: c6462
Encoding: 57349 57349 262
Width: 500
Flags: W
HStem: 616 129
VStem: 87 235
LayerCount: 2
Fore
SplineSet
225 745 m 1
 322 616 l 1
 226 616 l 1
 87 745 l 1
 225 745 l 1
EndSplineSet
Validated: 1
EndChar

StartChar: c6463
Encoding: 57350 57350 263
Width: 500
Flags: W
HStem: 616 129
LayerCount: 2
Fore
SplineSet
175 745 m 1
 325 745 l 1
 434 616 l 1
 347 616 l 1
 250 695 l 1
 153 616 l 1
 66 616 l 1
 175 745 l 1
EndSplineSet
Validated: 1
EndChar

StartChar: c6466
Encoding: 57351 57351 264
Width: 500
Flags: W
HStem: 616 129
LayerCount: 2
Fore
SplineSet
175 616 m 1
 66 745 l 1
 153 745 l 1
 250 666 l 1
 347 745 l 1
 434 745 l 1
 325 616 l 1
 175 616 l 1
EndSplineSet
Validated: 1
EndChar

StartChar: c6467
Encoding: 57352 57352 265
Width: 500
Flags: W
HStem: 616 70<180.849 319.151> 725 20G<86 162.5 337.5 414>
VStem: 86 70<711.893 745> 344 70<711.893 745>
LayerCount: 2
Fore
SplineSet
86 745 m 1
 156 745 l 1
 169 705 201 686 250 686 c 0
 299 686 331 705 344 745 c 1
 414 745 l 1
 403 661 346 616 250 616 c 0
 154 616 97 661 86 745 c 1
EndSplineSet
Validated: 1
EndChar

StartChar: c6468
Encoding: 57353 57353 266
Width: 500
Flags: W
HStem: 625 120<183 317>
VStem: 183 134<625 745>
LayerCount: 2
Fore
SplineSet
183 745 m 1
 317 745 l 1
 317 625 l 1
 183 625 l 1
 183 745 l 1
EndSplineSet
Validated: 1
EndChar

StartChar: uni00AD
Encoding: 173 173 268
Width: 415
Flags: W
HStem: 217 142<54 361>
VStem: 54 307<217 359>
LayerCount: 2
Fore
SplineSet
54 359 m 1
 361 359 l 1
 361 217 l 1
 54 217 l 1
 54 359 l 1
EndSplineSet
Validated: 1
EndChar
